<svg width="200" height="200" viewBox="0 0 200 200" fill="none" xmlns="http://www.w3.org/2000/svg">
<path d="M61 126H59C56.7909 126 55 127.791 55 130V170C55 172.209 56.7909 174 59 174H61C63.2091 174 65 172.209 65 170V130C65 127.791 63.2091 126 61 126Z" fill="#00256C"/>
<path d="M161 126H159C156.791 126 155 127.791 155 130V170C155 172.209 156.791 174 159 174H161C163.209 174 165 172.209 165 170V130C165 127.791 163.209 126 161 126Z" fill="#DF4C77"/>
<path d="M41 126H39C36.7909 126 35 127.791 35 130V170C35 172.209 36.7909 174 39 174H41C43.2091 174 45 172.209 45 170V130C45 127.791 43.2091 126 41 126Z" fill="#00256C"/>
<path d="M141 126H139C136.791 126 135 127.791 135 130V170C135 172.209 136.791 174 139 174H141C143.209 174 145 172.209 145 170V130C145 127.791 143.209 126 141 126Z" fill="#DF4C77"/>
<path d="M69.9223 46.527C72.6096 48.0626 72.6096 51.9374 69.9223 53.473L39.9846 70.5803C37.3179 72.104 34 70.1786 34 67.1073V32.8927C34 29.8214 37.3179 27.896 39.9846 29.4197L69.9223 46.527Z" fill="#00256C"/>
<path d="M169.922 46.6402C172.61 48.1758 172.61 52.0506 169.922 53.5862L139.985 70.6935C137.318 72.2172 134 70.2918 134 67.2205V33.0059C134 29.9346 137.318 28.0092 139.985 29.5329L169.922 46.6402Z" fill="#DF4C77"/>
</svg>
