<svg width="200" height="200" viewBox="0 0 200 200" fill="none" xmlns="http://www.w3.org/2000/svg">
<path d="M200 0H0V200H200V0Z" fill="#222326"/>
<path fill-rule="evenodd" clip-rule="evenodd" d="M67.2994 58.6188V124.166C62.9492 123.917 58.5987 124.652 54.5683 126.317C43.1658 130.954 36.5729 141.078 39.8338 148.909C43.1373 156.761 55.0301 159.333 66.4256 154.689C75.1853 151.117 80.336 144.329 81.1103 137.813L81.0606 74.3305L131.232 64.6206V110.191C126.525 109.758 121.784 110.486 117.421 112.313C106.019 116.957 99.4329 127.081 102.701 134.912C105.99 142.757 117.883 145.336 129.285 140.692C138.045 137.113 144.134 130.325 144.922 123.816L145 43L67.2994 58.6188Z" fill="#2F2E41"/>
</svg>
