<svg width="950" height="740" viewBox="0 0 950 740" fill="none" xmlns="http://www.w3.org/2000/svg">
<g opacity="0.1" clip-path="url(#clip0)">
<path opacity="0.2" d="M551.967 172.058C491.123 169.8 433.174 148.77 377.839 125.754C322.503 102.737 267.685 77.2563 208.344 65.0641C170.148 57.2201 126.469 56.1049 95.6906 78.0342C66.0294 99.1762 56.4589 135.566 51.3447 169.359C47.4714 194.794 45.1963 221.558 55.8009 245.362C63.162 261.893 76.239 275.782 85.283 291.61C116.748 346.696 94.5056 414.63 60.4075 468.412C44.4254 493.64 25.8675 517.706 13.5237 544.565C1.18001 571.423 -4.5547 602.199 6.21905 629.601C16.9176 656.779 42.423 677.152 70.0531 691.454C126.169 720.589 192.268 728.939 256.77 733.625C399.499 744.083 542.999 739.556 686.112 735.021C739.07 733.344 792.271 731.638 844.372 722.839C873.309 717.965 903.176 710.233 924.179 691.575C950.846 667.894 957.461 627.783 939.587 598.085C909.616 548.266 826.773 535.887 805.799 482.423C794.273 452.996 806.109 420.215 822.872 392.925C858.812 334.372 919.074 283.007 922.242 216.076C924.423 170.156 895.458 124.086 850.671 102.334C803.721 79.5336 738.627 82.4013 704.012 120.14C668.363 159.154 605.685 174.064 551.967 172.058Z" fill="#BCC0C7"/>
<path d="M846.985 377.715C852.147 378.539 857.882 380.526 859.856 385.343C861.341 388.989 860.194 393.085 859.856 397.002C859.709 398.034 859.748 399.084 859.969 400.103C860.529 401.718 861.463 403.179 862.695 404.367C864.271 405.99 865.596 407.838 866.624 409.849C867.133 410.862 867.418 411.97 867.464 413.102C867.51 414.233 867.313 415.36 866.888 416.41C866.562 416.937 866.341 417.523 866.239 418.134C866.173 419.475 867.574 420.318 868.608 421.171C872.481 424.367 872.312 430.186 872.369 435.228C872.437 445.48 874.734 455.596 879.1 464.879C877.468 465.705 875.624 466.021 873.809 465.785C871.994 465.549 870.293 464.773 868.928 463.558C869.468 465.843 870.243 468.066 871.241 470.193C867.96 471.776 864.011 469.171 862.375 465.938C860.739 462.705 860.495 458.928 859.366 455.498C858.239 452.068 856.086 449.042 855.145 445.583C854.964 444.414 854.566 443.29 853.971 442.265C853.38 441.574 852.682 440.983 851.903 440.513C848.502 438.065 845.955 434.617 844.617 430.654C840.602 431.591 836.513 432.425 832.394 432.06C828.277 431.694 824.131 429.839 821.978 426.353C821.039 424.816 820.502 423.045 819.619 421.471C818.537 419.54 816.94 417.956 815.727 416.1C812.849 411.715 812.323 406.082 813.489 400.965C814.654 395.849 817.381 391.228 820.605 387.087C826.839 379.112 837.218 376.15 846.985 377.715Z" fill="#3F3D56"/>
<path d="M879.533 441.975C879.824 443.85 880.173 445.649 880.596 447.476C881.06 449.578 881.654 451.65 882.372 453.68C882.784 454.558 882.974 455.524 882.927 456.492C882.8 457.096 882.568 457.674 882.241 458.197C879.88 462.368 876.703 466.397 876.431 471.177C876.365 472.367 876.431 473.65 875.791 474.634C873.967 470.736 871.959 466.931 869.765 463.22C867.471 459.34 864.924 455.423 864.265 450.963C864.004 448.869 864.029 446.751 864.34 444.665C864.511 442.297 865.295 440.014 866.616 438.039C868.167 436.015 872.445 432.95 875.208 433.578C878.452 434.365 879.119 439.36 879.533 441.975Z" fill="#F86D70"/>
<path d="M835.873 644.595C836.128 648.522 836.297 652.758 834.144 656.048C833.373 657.237 832.33 658.231 831.445 659.346C830.946 659.904 830.619 660.595 830.506 661.333C830.374 662.767 831.727 664.003 833.156 664.266C834.604 664.419 836.068 664.21 837.415 663.657C838.722 663.334 839.951 662.758 841.035 661.961C842.915 660.377 843.404 657.744 843.78 655.326L844.654 649.703C844.919 648.355 845.027 646.981 844.974 645.607C844.793 644.096 844.424 642.613 843.874 641.194L842.426 636.977C842.329 636.569 842.106 636.201 841.786 635.927C841.449 635.751 841.065 635.683 840.687 635.73C839.305 635.796 835.817 636.302 835.15 637.754C834.539 639.067 835.779 643.115 835.873 644.595Z" fill="#EE8E9E"/>
<path d="M804.897 528.249C804.892 528.283 804.892 528.318 804.897 528.352C804.975 528.91 805.154 529.45 805.424 529.945C806.602 532.53 807.291 535.311 807.454 538.145C807.44 538.845 807.532 539.543 807.727 540.217C808.023 540.854 808.378 541.463 808.789 542.035C810.039 544.068 810.331 546.514 810.754 548.866C811.294 551.916 812.096 554.913 813.151 557.826C814.59 561.79 816.527 565.856 815.868 570.008C815.619 570.988 815.492 571.996 815.492 573.007C815.672 574.126 816.072 575.199 816.668 576.165C817.156 577.102 817.607 578.096 817.993 579.089C818.379 580.083 818.792 581.254 819.112 582.351C819.497 583.7 819.76 585.293 818.867 586.371C818.59 586.633 818.347 586.929 818.144 587.252C817.975 587.744 817.975 588.278 818.144 588.77C818.651 590.907 819.196 593.04 819.779 595.171C820.231 596.839 820.719 598.497 821.199 600.157C824.828 612.283 828.926 624.288 831.361 636.705C831.71 638.494 834.003 639.779 835.79 640.163C836.684 640.355 837.613 640.332 838.497 640.096C839.381 639.859 840.197 639.417 840.875 638.804C841.004 638.698 841.123 638.583 841.233 638.457C843.112 636.452 843.367 633.378 843.236 630.604C842.605 617.822 836.147 606.125 833.072 593.699C831.963 589.211 831.295 584.625 831.079 580.007C830.356 564.573 830.074 548.266 834.445 533.45C835.385 530.367 836.429 526.89 834.793 524.079C833.759 522.336 831.851 521.267 829.961 520.555C826.097 519.048 821.97 518.326 817.822 518.432C813.675 518.538 809.59 519.471 805.809 521.173C805.789 521.486 805.789 521.798 805.809 522.11C805.973 523.548 805.806 525.002 805.32 526.365C805.063 526.961 804.92 527.6 804.897 528.249Z" fill="#3F3D56"/>
<path opacity="0.05" d="M818.877 586.38C819.816 585.303 819.506 583.709 819.121 582.369C818.97 581.863 818.82 581.367 818.651 580.869L830.957 576.727C830.957 577.824 831.051 578.92 831.098 580.017C831.315 584.638 831.982 589.226 833.091 593.718C836.165 606.135 842.624 617.831 843.253 630.604C843.394 633.547 843.084 636.836 840.903 638.823C840.22 639.431 839.403 639.871 838.517 640.106C837.632 640.34 836.704 640.363 835.808 640.172C834.031 639.788 831.727 638.504 831.38 636.714C828.945 624.297 824.799 612.292 821.217 600.166C820.089 596.417 819.071 592.618 818.161 588.77C817.998 588.28 817.998 587.751 818.161 587.261C818.363 586.939 818.602 586.643 818.877 586.38Z" fill="black"/>
<path d="M852.89 635.102C853.83 636.77 855.343 638.251 855.569 640.163C855.567 641.325 855.494 642.486 855.352 643.64C855.4 644.595 855.574 645.541 855.87 646.451C857.061 650.762 858.439 655.017 860.007 659.215C860.263 659.755 860.376 660.353 860.335 660.949C860.188 661.427 859.924 661.862 859.569 662.215C859.213 662.567 858.776 662.828 858.295 662.974C855.371 664.219 852.063 664.135 848.894 664.004C847.969 664.05 847.05 663.837 846.243 663.385C845.105 662.608 844.823 661.07 844.748 659.703C844.532 655.72 845.209 651.718 844.748 647.754C844.598 646.311 844.288 644.886 844.062 643.461C843.639 641.476 843.703 639.419 844.25 637.464C844.793 636.103 845.552 634.838 846.497 633.715C847.334 632.491 848.396 631.435 849.627 630.605C850.004 630.379 851.066 629.667 851.441 630.126C851.639 630.342 851.554 630.923 851.582 631.195C851.63 631.611 851.703 632.024 851.799 632.432C852.033 633.369 852.401 634.269 852.89 635.102Z" fill="#EE8E9E"/>
<path d="M864.03 505.898C864.707 508.044 865.309 510.209 865.816 512.392C866.048 513.145 866.109 513.938 865.995 514.717C865.723 515.418 865.491 516.135 865.3 516.862C865.187 518.015 865.985 519.027 866.437 520.105C867.574 522.841 866.361 525.925 865.168 528.633L861.605 536.664L858.69 543.225C857.825 545.183 856.96 547.142 856.124 549.12C852.323 558.119 849.181 567.421 846.798 576.892C846.65 577.483 844.552 581.471 844.552 581.471C844.552 581.471 843.808 584.539 843.808 585.592C843.394 590.419 847.023 595.077 848.894 599.547C853.19 609.856 852.41 621.401 853.896 632.441L852.222 631.504C850.614 632.235 850.671 634.503 849.816 636.03C848.518 638.336 845.35 638.663 842.708 638.485C841.885 638.482 841.072 638.296 840.33 637.942C839.966 637.753 839.669 637.458 839.479 637.097C839.29 636.735 839.215 636.323 839.267 635.918C841.759 624.672 833.626 613.192 828.042 603.118C827.201 601.481 823.204 597.052 821.978 595.676C819.506 592.715 819.158 588.535 819.356 584.683C819.75 575.621 822.148 566.757 826.379 558.725C825.936 555.914 827.027 552.868 827.544 550.103C828.041 547.044 828.748 544.022 829.659 541.06C830.214 539.4 830.891 537.779 831.304 536.083C831.472 535.626 831.537 535.138 831.499 534.653C831.459 534.168 831.317 533.697 831.079 533.272C830.661 532.784 830.108 532.43 829.49 532.251C827.004 531.406 824.431 530.84 821.818 530.563L804.539 528.09C803.985 524.547 803.421 520.593 803.806 517.05C804.221 513.749 805.602 510.641 807.775 508.115C809.948 505.59 812.817 503.756 816.027 502.843C816.388 502.695 816.778 502.63 817.167 502.654C817.557 502.679 817.936 502.791 818.274 502.984C833.523 500.005 849.286 501.009 864.03 505.898Z" fill="#3F3D56"/>
<path d="M848.33 412.754C848.077 414.436 848.339 416.154 849.082 417.684C849.593 418.524 850.259 419.259 851.047 419.849C852.716 421.193 854.661 422.153 856.744 422.66C857.967 422.97 859.339 423.176 860.148 424.151C861.361 425.612 860.552 427.815 859.518 429.408C857.732 432.22 855.241 434.703 852.053 435.565C849.506 436.259 846.779 435.837 844.175 436.287C842.295 436.614 840.509 437.392 838.647 437.833C835.99 438.446 833.221 438.387 830.593 437.658C827.965 436.93 825.562 435.556 823.605 433.662C826.369 431.544 829.246 429.286 830.684 426.109C831.695 423.838 831.884 421.288 831.22 418.893C830.553 416.541 829.058 414.207 829.528 411.845C829.998 409.484 832.349 407.798 834.708 406.982C836.83 406.329 839.013 405.889 841.223 405.67C842.436 405.501 850.173 403.796 850.624 404.639C850.897 405.117 849.289 407.928 849.091 408.547C848.639 409.906 848.382 411.323 848.33 412.754Z" fill="#A1616A"/>
<path opacity="0.05" d="M848.33 412.754C848.077 414.436 848.339 416.154 849.082 417.684C849.593 418.524 850.259 419.259 851.047 419.849C852.716 421.193 854.661 422.153 856.744 422.66C857.967 422.97 859.339 423.176 860.148 424.151C861.361 425.612 860.552 427.815 859.518 429.408C857.732 432.22 855.241 434.703 852.053 435.565C849.506 436.259 846.779 435.837 844.175 436.287C842.295 436.614 840.509 437.392 838.647 437.833C835.99 438.446 833.221 438.387 830.593 437.658C827.965 436.93 825.562 435.556 823.605 433.662C826.369 431.544 829.246 429.286 830.684 426.109C831.695 423.838 831.884 421.288 831.22 418.893C830.553 416.541 829.058 414.207 829.528 411.845C829.998 409.484 832.349 407.798 834.708 406.982C836.83 406.329 839.013 405.889 841.223 405.67C842.436 405.501 850.173 403.796 850.624 404.639C850.897 405.117 849.289 407.928 849.091 408.547C848.639 409.906 848.382 411.323 848.33 412.754Z" fill="black"/>
<path d="M838.6 418.378C847.266 418.378 854.291 411.376 854.291 402.737C854.291 394.099 847.266 387.096 838.6 387.096C829.935 387.096 822.91 394.099 822.91 402.737C822.91 411.376 829.935 418.378 838.6 418.378Z" fill="#A1616A"/>
<path d="M846.882 428.592L836.25 430.374C833.632 430.904 830.968 431.171 828.297 431.17C826.839 431.029 825.372 431.029 823.916 431.17C822.91 431.339 821.951 431.723 820.935 431.845C819.694 432.004 818.435 431.769 817.175 431.929C814.862 432.22 812.963 433.803 811.205 435.34C809.146 437.121 806.937 439.211 806.787 441.9C806.746 442.217 806.789 442.54 806.909 442.837C807.111 443.164 807.381 443.445 807.698 443.662C809.654 445.255 810.754 447.645 812.145 449.754C813.58 451.924 815.365 453.843 817.429 455.433C817.898 455.132 818.783 455.92 818.576 456.426C818.369 456.932 817.87 457.297 817.701 457.823C817.325 459.021 818.811 459.902 819.422 461.008C820.033 462.114 819.732 463.502 819.797 464.757C819.863 466.013 820.428 467.503 820.616 468.908C821.039 472.161 820.326 474.534 819.857 475.941C819.387 476.879 817.977 482.038 817.977 482.038C817.507 484.383 814.073 508.038 816.536 508.438C818.818 508.969 821.128 509.376 823.455 509.656C825.609 509.834 827.771 509.9 829.933 509.853L844.166 509.797C848.161 509.797 852.166 509.797 856.161 509.497C859.922 509.253 863.683 508.785 867.302 509.759C867.753 508.999 867.03 508.119 866.587 507.35C866.078 506.31 865.799 505.172 865.77 504.015L864.877 494.558C864.696 493.26 864.671 491.945 864.802 490.641C864.999 489.245 865.525 487.924 865.798 486.546C866.315 483.894 865.798 481.157 865.967 478.459C866.146 476.077 866.562 473.72 867.208 471.421L870.028 459.847C870.362 457.885 870.827 455.947 871.42 454.045C873.582 448.485 875.854 442.974 878.235 437.514C878.325 437.277 878.361 437.023 878.34 436.769C878.319 436.517 878.242 436.272 878.113 436.053L875.763 431.845C875.132 430.652 874.413 429.509 873.61 428.424C871.621 425.919 868.807 424.197 865.666 423.561C862.522 422.954 859.265 423.437 856.434 424.928C855.335 425.51 854.319 426.231 853.201 426.803C851.311 427.74 849.007 428.733 846.882 428.592Z" fill="#F86D70"/>
<path d="M823.097 393.825C824.545 391.575 826.419 389.631 828.616 388.099C831.539 385.915 834.915 384.107 838.572 383.9C840.099 383.819 841.626 384.068 843.047 384.631C843.122 380.208 844.222 377.275 846.986 377.715C852.147 378.539 857.882 380.526 859.856 385.343C861.342 388.989 860.194 393.084 859.856 397.001C859.71 398.034 859.748 399.084 859.969 400.103C860.529 401.718 861.463 403.179 862.695 404.367C864.271 405.99 865.596 407.838 866.625 409.849C867.133 410.862 867.419 411.97 867.464 413.102C867.51 414.233 867.313 415.36 866.888 416.41C866.562 416.937 866.341 417.523 866.239 418.134C866.174 419.475 867.575 420.318 868.608 421.171C872.481 424.366 872.312 430.186 872.369 435.228C872.437 445.48 874.734 455.596 879.1 464.879C877.468 465.705 875.624 466.021 873.809 465.785C871.995 465.549 870.293 464.773 868.928 463.558C869.468 465.843 870.243 468.066 871.241 470.193C867.96 471.776 864.011 469.171 862.375 465.938C860.739 462.705 860.495 458.928 859.367 455.498C858.239 452.068 856.086 449.041 855.146 445.583C854.964 444.414 854.566 443.29 853.971 442.265C853.381 441.574 852.682 440.983 851.903 440.513C848.528 438.096 853.5 419.783 852.185 415.857C850.22 416.279 846.61 406.832 844.551 397.226C843.118 397.721 841.588 397.875 840.086 397.676C839.561 397.559 839.023 397.522 838.487 397.564C837.993 397.667 837.522 397.857 837.096 398.126C835.579 399.06 833.992 399.874 832.348 400.563C828.945 401.828 825.194 401.659 821.574 401.5C821.087 398.841 821.631 396.098 823.097 393.825Z" fill="#3F3D56"/>
<path d="M875.396 469.752C875.303 470.58 875.393 471.419 875.659 472.209C875.925 472.999 876.362 473.722 876.938 474.326C877.59 474.954 878.324 475.493 879.119 475.928C879.898 476.44 880.787 476.761 881.714 476.865C882.964 476.825 884.152 476.308 885.033 475.422C887.768 473.032 889.131 469.49 890.391 466.097C892.213 461.653 893.57 457.034 894.443 452.312C895.214 447.223 894.885 441.947 896.324 437.008C895.026 434.421 894.198 431.573 892.723 429.08C891.787 427.593 890.958 426.044 890.24 424.441C888.866 421.03 888.71 417.251 889.799 413.738C889.542 413.57 889.238 413.486 888.929 413.502C888.622 413.517 888.327 413.63 888.087 413.823C887.619 414.226 887.263 414.742 887.054 415.323C886.205 417.305 885.854 419.463 886.029 421.61C886.134 422.129 886.071 422.668 885.85 423.148C885.65 423.393 885.393 423.584 885.101 423.707C884.81 423.829 884.492 423.879 884.177 423.851C882.861 423.791 881.558 423.559 880.303 423.157C876.41 422.166 872.377 421.834 868.373 422.173C867.565 422.192 866.77 422.383 866.042 422.735C865.681 422.915 865.379 423.193 865.167 423.535C864.957 423.879 864.846 424.274 864.848 424.675L874.381 426.072C875.101 426.111 875.798 426.349 876.392 426.756C876.674 426.971 876.859 427.288 876.91 427.637C876.962 427.988 876.873 428.344 876.665 428.63C876.462 428.797 876.241 428.941 876.007 429.061C875.768 429.25 875.577 429.491 875.447 429.766C875.317 430.041 875.253 430.342 875.261 430.645C875.269 430.949 875.346 431.246 875.488 431.514C875.631 431.783 875.834 432.014 876.082 432.192C876.327 432.297 876.546 432.45 876.732 432.641C877.126 433.166 876.608 433.85 876.439 434.515C876.368 434.979 876.439 435.455 876.644 435.878C876.849 436.301 877.177 436.653 877.587 436.887C878.417 437.33 879.317 437.631 880.247 437.777C882.124 438.213 883.952 438.841 885.7 439.651C886.269 439.853 886.764 440.222 887.12 440.71C887.287 441.14 887.357 441.599 887.328 442.059C887.299 442.519 887.17 442.967 886.95 443.371L884.469 450.044C884.073 451.093 883.688 452.133 883.199 453.146C882.57 454.449 881.789 455.676 881.14 456.978C880.557 458.2 880.039 459.451 879.589 460.728C878.32 464.11 875.829 466.144 875.396 469.752Z" fill="#A1616A"/>
<path d="M464.838 211.793V526.122C454.319 522.748 443.331 521.058 432.281 521.117C385.397 521.117 347.322 554.189 347.322 600.925C347.322 647.66 385.397 680.367 432.281 680.367C479.165 680.367 517.475 645.955 517.475 596.024V377.743H764.726V526.122C754.208 522.747 743.219 521.057 732.169 521.117C685.285 521.117 647.211 554.189 647.211 600.925C647.211 647.66 685.285 680.367 732.169 680.367C779.053 680.367 817.363 645.955 817.363 596.024V211.793H464.838ZM764.735 328.937H517.484V264.274H764.735V328.937Z" fill="#336198"/>
<path d="M214.766 177.119V388.071C199.497 379.29 181.748 375.779 164.273 378.082C146.798 380.384 130.574 388.372 118.119 400.806C105.663 413.239 97.6734 429.423 95.3882 446.847C93.1033 464.27 96.6511 481.958 105.481 497.165C114.311 512.374 127.931 524.25 144.224 530.953C160.518 537.658 178.576 538.812 195.596 534.239C212.616 529.667 227.646 519.623 238.353 505.665C249.061 491.707 254.847 474.616 254.815 457.044V257.057H335.101V177.119H214.766Z" fill="#336198"/>
<path d="M96.3484 194.475L96.6209 196.518L105.505 197.774C105.505 197.774 106.229 197.23 107.386 196.49C109.491 195.112 113.026 193.059 116.034 192.479C120.688 191.541 135.485 184.935 130.719 184.503C125.953 184.072 126.441 185.056 126.441 185.056C126.441 185.056 121.187 179.912 115.762 184.616C111.644 188.186 102.6 192.028 98.473 193.669C97.1565 194.184 96.3484 194.475 96.3484 194.475Z" fill="#EFB7B9"/>
<path d="M131.838 170.99C133.196 170.421 134.631 170.056 136.097 169.903C136.829 169.828 137.569 169.909 138.269 170.142C138.968 170.374 139.609 170.753 140.149 171.252C140.722 171.843 141.089 172.601 141.652 173.202C144.36 176.088 149.615 173.932 152.878 176.173C154.88 177.559 155.501 180.173 156.215 182.507C156.929 184.841 158.227 187.399 160.615 187.896C161.771 188.006 162.939 187.962 164.084 187.765C164.659 187.674 165.247 187.731 165.793 187.932C166.34 188.132 166.826 188.467 167.206 188.908C168.314 190.586 166.782 193.388 168.39 194.587C169.828 195.646 172.432 194.165 173.438 195.637C173.631 196.031 173.701 196.474 173.639 196.908C173.577 197.342 173.386 197.748 173.091 198.073C172.493 198.711 171.946 199.394 171.455 200.116C171.193 200.61 171.071 201.167 171.102 201.725C171.132 202.282 171.315 202.821 171.628 203.285C171.941 203.748 172.375 204.119 172.882 204.356C173.389 204.593 173.952 204.689 174.51 204.634C175.525 204.531 176.606 203.958 177.49 204.455C177.766 204.638 177.997 204.884 178.16 205.172C178.323 205.46 178.416 205.783 178.43 206.114C178.494 207.236 178.121 208.338 177.389 209.192C176.657 210.046 175.622 210.585 174.5 210.696C172.77 210.809 171.182 209.872 169.64 209.085C168.098 208.298 166.284 207.632 164.685 208.288C163.951 208.645 163.278 209.116 162.692 209.684C160.862 211.217 158.791 212.439 156.563 213.302C154.607 214.07 152.333 214.529 150.452 213.573C148.337 212.496 147.246 209.872 145.009 209.075C142.771 208.279 140.215 209.769 138.071 211.034C135.927 212.299 133.06 213.358 131.123 211.802C129.036 210.125 129.675 206.76 128.407 204.409C127.892 203.528 127.197 202.764 126.367 202.169C124.938 201.072 123.311 200.247 121.872 199.17C120.363 198.156 119.275 196.63 118.808 194.877C118.384 192.751 119.4 190.623 120.557 188.786C121.713 186.95 123.057 185.15 123.433 183.023C123.715 181.429 123.433 179.771 123.8 178.196C124.059 177.251 124.549 176.385 125.224 175.674C125.9 174.962 126.741 174.429 127.673 174.12C128.726 173.764 128.914 173.857 129.45 172.93C129.688 172.457 130.024 172.04 130.436 171.705C130.847 171.371 131.325 171.127 131.838 170.99Z" fill="#3F3D56"/>
<g opacity="0.1">
<path opacity="0.1" d="M167.459 189.555C167.682 190.474 167.739 191.426 167.629 192.366C167.396 191.448 167.339 190.494 167.459 189.555Z" fill="black"/>
<path opacity="0.1" d="M171.483 200.285C171.316 200.607 171.208 200.956 171.163 201.316C170.992 200.896 170.914 200.444 170.933 199.991C170.953 199.539 171.069 199.096 171.276 198.692C171.767 197.973 172.314 197.293 172.912 196.659C173.116 196.371 173.274 196.055 173.382 195.721L173.457 195.806C173.65 196.198 173.72 196.638 173.66 197.07C173.6 197.503 173.411 197.908 173.119 198.233C172.52 198.873 171.973 199.559 171.483 200.285Z" fill="black"/>
<path opacity="0.1" d="M121.685 197.774C123.123 198.86 124.74 199.648 126.169 200.781C127.002 201.374 127.697 202.139 128.209 203.021C129.478 205.374 128.839 208.738 130.926 210.416C132.863 211.971 135.739 210.921 137.882 209.647C140.027 208.373 142.471 206.835 144.812 207.688C147.152 208.542 148.14 211.109 150.264 212.187C152.145 213.124 154.41 212.674 156.375 211.915C158.599 211.05 160.666 209.828 162.495 208.298C163.084 207.731 163.756 207.257 164.488 206.892C166.096 206.245 167.91 206.892 169.452 207.697C170.993 208.504 172.582 209.422 174.303 209.31C175.294 209.2 176.219 208.76 176.926 208.061C177.635 207.363 178.085 206.444 178.204 205.458C178.315 205.721 178.385 205.999 178.411 206.283C178.485 207.405 178.121 208.513 177.393 209.372C176.665 210.232 175.633 210.777 174.51 210.893C172.789 211.006 171.192 210.069 169.659 209.291C168.126 208.514 166.303 207.838 164.695 208.485C163.966 208.85 163.294 209.321 162.702 209.881C160.873 211.415 158.806 212.64 156.582 213.509C154.626 214.267 152.342 214.726 150.471 213.78C148.347 212.702 147.265 210.078 145.018 209.282C142.772 208.485 140.224 209.966 138.09 211.24C135.955 212.515 133.069 213.564 131.133 211.999C129.046 210.322 129.685 206.967 128.416 204.606C127.901 203.727 127.206 202.967 126.375 202.375C124.956 201.278 123.33 200.454 121.891 199.367C120.379 198.355 119.287 196.829 118.818 195.074C118.744 194.705 118.712 194.327 118.724 193.949C119.282 195.504 120.318 196.841 121.685 197.774Z" fill="black"/>
</g>
<path d="M195.484 294.946C195.484 294.946 199.959 297.251 204.124 299.922C207.113 301.797 209.943 303.924 210.864 305.489C213.083 309.238 223.866 313.305 223.866 313.305L234.565 321.421C237.085 322.255 239.538 325.31 240.544 326.678C240.844 327.09 241.963 328.199 244.313 328.668C246.662 329.137 248.071 330.075 249.951 328.199C251.83 326.323 250.89 323.978 250.89 323.978C250.89 323.978 248.7 320.134 242.433 317.412C237.639 315.303 229.676 308.094 229.676 308.094C229.676 308.094 218.282 293.906 214.869 293.437C214.504 293.382 214.145 293.291 213.798 293.165C210.329 291.957 205.336 287.496 205.336 287.496L195.484 294.946Z" fill="#EFB7B9"/>
<path d="M151.289 335.965C152.427 342.778 157.606 355.805 159.27 358.522C161.338 361.886 162.42 368.624 162.42 368.624L163.031 373.311C163.145 373.952 163.375 374.568 163.708 375.129C163.89 375.452 164.092 375.765 164.31 376.066C164.31 376.066 165.851 378.385 168.2 378.854C170.549 379.323 171.964 378.385 172.428 377.447C172.892 376.508 172.892 373.433 172.892 373.433C172.892 373.433 172.898 371.818 171.643 369.206C170.89 366.947 169.762 364.108 168.69 363.058C166.594 361.005 166.284 353.762 166.284 353.762C166.284 353.762 164.535 339.836 163.999 338.083C163.501 336.41 163.186 334.688 163.059 332.948C162.974 332.011 162.918 330.942 162.909 329.733C162.731 326.267 162.279 322.82 161.554 319.425L151.542 321.233L151.279 332.394C150.992 333.568 150.995 334.794 151.289 335.965Z" fill="#EFB7B9"/>
<path d="M127.711 208.129L130.532 220.312L131.105 222.823L136.285 223.479L141.624 224.154L147.434 222.055C147.434 222.055 149.051 216.544 147.716 212.412C147.296 210.94 146.337 209.679 145.028 208.878C144.622 208.636 144.246 208.346 143.909 208.016C143.522 207.625 143.205 207.172 142.969 206.676C142.686 206.065 142.517 205.408 142.471 204.736C142.18 201.447 144.267 197.848 144.267 197.848C144.267 197.848 131.95 193.66 132.91 196.368C133.539 198.12 131.8 201.175 130.503 203.106C129.798 204.146 129.225 204.867 129.225 204.867L127.711 208.129Z" fill="#EFB7B9"/>
<path d="M138.776 203.04C144.685 203.04 149.474 198.265 149.474 192.375C149.474 186.485 144.685 181.711 138.776 181.711C132.868 181.711 128.077 186.485 128.077 192.375C128.077 198.265 132.868 203.04 138.776 203.04Z" fill="#EFB7B9"/>
<path d="M128.481 248.67C128.99 251.022 131.302 254.724 131.302 254.724L146.24 258.379L156.911 247.245V247.17C156.582 246.13 152.511 233.001 155.453 229.768C158.537 226.403 157.334 216.91 157.334 216.91C157.334 216.91 152.003 210.799 150.922 209.319C149.841 207.838 142.922 206.676 142.922 206.676C143.27 207.145 143.589 207.614 143.862 208.016C144.61 209.123 145.183 210.336 145.563 211.615C146.01 212.889 145.96 214.284 145.422 215.522C145.259 215.84 145.136 216.177 145.056 216.525C143.89 221.614 138.569 220.902 136.453 220.396C135.908 220.265 135.57 220.153 135.57 220.153L130.484 220.312L127.288 220.414C127.288 220.414 128.744 245.512 128.397 247.508C128.353 247.897 128.383 248.291 128.481 248.67Z" fill="#F86D70"/>
<path d="M132.665 249.119L144.971 248.67V235.85C143.508 234.502 141.835 233.4 140.016 232.588C137.751 231.801 135.053 229.327 135.927 222.532C136.246 220.732 136.113 218.882 135.543 217.143C134.971 215.406 133.98 213.836 132.656 212.57L132.467 212.412L130.465 203.115C129.837 203.168 129.228 203.358 128.68 203.67C128.133 203.983 127.661 204.41 127.297 204.924C127.08 205.306 126.832 205.669 126.554 206.011C126.313 206.423 125.923 206.729 125.464 206.865C125.004 207.001 124.51 206.957 124.082 206.741C122.784 206.17 117.2 203.818 115.95 206.123C114.699 208.429 114.464 222.158 114.464 222.158C116.311 223.668 117.588 225.76 118.084 228.09C118.94 232.017 120.368 232.111 120.368 232.111L121.91 243.356C121.91 243.356 123.311 245.803 122.267 247.151" fill="#444053"/>
<path d="M85.9319 207.697C85.9319 207.697 96.0008 215.317 102.243 216.544C102.243 216.544 111.024 219.131 114.464 222.168L118.225 207.716L115.922 206.133C115.922 206.133 113.168 207.829 110.798 207.267C108.429 206.704 105.806 206.33 105.806 206.33C103.732 205.567 101.597 204.985 99.4231 204.587C97.7307 204.446 98.4167 202.253 100.109 201.091C100.329 200.934 100.565 200.802 100.814 200.698C101.125 201.128 101.583 201.431 102.103 201.548C102.623 201.667 103.168 201.59 103.635 201.335C104.273 200.924 104.833 200.403 105.289 199.797C105.989 198.912 106.618 197.971 107.17 196.986C107.17 196.986 101.914 195.861 99.3 195.055C98.4449 194.794 97.8811 194.568 97.8623 194.418C97.7871 193.819 102.562 191.925 102.562 191.925C102.562 191.925 98.4825 189.957 96.8277 191.391C96.8277 191.391 97.8999 192.188 97.0344 192.975C96.17 193.763 85.7533 201.756 85.7533 201.756C85.7533 201.756 80.6108 204.277 85.9319 207.697Z" fill="#444053"/>
<path d="M133.445 290.682C135.457 293.653 140.966 306.286 140.966 306.286C142.209 308.529 143.61 310.68 145.159 312.724C147.35 315.47 148.863 321.645 150.528 326.584C152.192 331.523 150.039 330.595 150.274 333.145C150.509 335.693 159.919 332.394 159.919 332.394C159.919 332.394 179.145 328.178 185.021 316.464C190.896 304.749 214.362 294.14 219.109 287.552C223.857 280.964 217.765 283.682 218 280.112C218.235 276.54 215.527 273.551 215.527 273.551C215.527 273.551 206.672 271.058 205.233 269.325C203.794 267.591 196.725 263.252 196.725 263.252C196.725 263.252 190.059 260.375 189.204 259.372C188.348 258.37 180.451 255.258 178.035 254.687C175.619 254.115 173.25 250.657 173.25 250.657C173.25 250.657 171.755 250.853 169.546 248.717C167.337 246.58 158.067 244.744 158.067 244.744C142.245 256.364 131.311 254.742 131.311 254.742L131.058 256.935C122.644 267.863 131.434 287.712 133.445 290.682Z" fill="#444053"/>
<path d="M131.659 186.068C132.506 186.621 133.201 187.521 134.216 187.652C134.94 187.671 135.655 187.493 136.285 187.136C137.967 186.406 139.875 185.844 141.615 186.415C144.097 187.24 145.46 190.088 147.933 190.922C148.695 191.181 149.514 191.226 150.302 191.054C150.774 190.951 151.225 190.771 151.636 190.52C152.604 189.917 153.299 188.962 153.573 187.859C153.739 186.899 153.648 185.913 153.31 185C152.972 184.087 152.397 183.279 151.646 182.657C150.123 181.438 148.315 180.622 146.391 180.286C141.427 179.18 136.276 179.555 131.199 179.93C130.781 179.924 130.372 180.034 130.014 180.248C129.253 180.811 127.927 183.697 128.199 184.672C128.576 185.975 131.518 184.982 131.659 186.068Z" fill="#3F3D56"/>
<path d="M197.063 193.912L198.681 200.426L200.777 199.16L212.171 192.31C212.171 192.31 220.801 191.991 221.468 185.075C222.137 178.159 211.879 185.01 211.334 185.534C210.789 186.059 209.548 186.987 209.548 186.987L198.944 192.89L197.063 193.912Z" fill="#EFB7B9"/>
<path d="M141.596 236.393L143.918 249.972L159.458 246.749C159.458 246.749 158.988 241.623 157.908 239.542C156.826 237.461 157.042 229.336 157.042 229.336C163.624 222.271 160.164 216.525 160.164 216.525C160.164 216.525 179.502 213.396 179.831 212.777C180.16 212.159 186.609 208.728 186.609 208.728C186.609 208.728 193.613 206.938 194.562 205.917C194.911 205.536 195.296 205.188 195.709 204.877C195.829 204.787 195.955 204.705 196.085 204.634L196.603 209.085H196.838C197.94 208.956 198.991 208.543 199.883 207.885C201.482 206.666 199.46 193.312 197.909 192.844C197.616 192.768 197.309 192.768 197.016 192.844C195.799 193.228 194.667 193.839 193.679 194.644L193.406 194.859L193.312 194.943C193.312 194.943 184.559 198.364 182.811 199.938C181.063 201.513 167.45 203.509 167.45 203.509C167.45 203.509 161.348 204.952 160.558 204.08C159.769 203.209 150.452 201.784 149.671 203.143C148.891 204.502 146.729 204.258 146.729 204.258C145.197 202.497 144.135 203.181 143.486 204.193C143.113 204.801 142.833 205.461 142.659 206.151C142.659 208.85 143.852 210.621 147.068 211.896C147.556 212.084 148.083 212.271 148.657 212.44C153.094 213.751 154.044 216.395 154.044 216.395C155.598 218.428 156.32 220.973 156.065 223.516C155.641 227.696 141.596 236.393 141.596 236.393Z" fill="#444053"/>
<g opacity="0.1">
<path opacity="0.1" d="M752.523 372.12H505.272V590.419C505.272 640.332 466.962 674.763 420.079 674.763C408.913 674.804 397.828 672.865 387.344 669.036C401.106 676.597 416.587 680.505 432.3 680.386C479.183 680.386 517.493 645.973 517.493 596.042V377.743H752.523V372.12Z" fill="black"/>
<path opacity="0.1" d="M505.252 323.305H517.475V264.255H752.523V258.632H505.252V323.305Z" fill="black"/>
<path opacity="0.1" d="M805.16 211.793V590.4C805.16 640.313 766.85 674.744 719.966 674.744C708.8 674.786 697.716 672.847 687.231 669.018C700.994 676.578 716.475 680.486 732.188 680.367C779.071 680.367 817.381 645.955 817.381 596.024V211.793H805.16Z" fill="black"/>
</g>
<path d="M525.381 125.416C531.445 137.908 541.363 152.116 552.579 146.69C563.794 141.263 572.171 118.247 566.107 105.736C560.043 93.2253 545.998 87.5368 534.754 92.9628C523.51 98.3889 519.308 112.943 525.381 125.416Z" fill="#336198"/>
<path d="M512.708 146.033C517.785 149.285 523.642 152.434 529.207 154.102C533.485 155.396 537.584 155.808 541.015 154.72C542.501 154.249 543.867 153.463 545.02 152.415C545.801 151.712 546.481 150.905 547.041 150.016C551.018 143.822 550.943 132.932 547.793 123.504C545.593 116.944 541.946 111.134 537.142 108.06C525.428 100.563 510.461 103 503.711 113.486C496.961 123.973 500.994 138.536 512.708 146.033Z" fill="#00256C"/>
<path opacity="0.1" d="M512.708 146.033C517.785 149.285 523.642 152.434 529.207 154.102C533.485 155.396 537.584 155.808 541.015 154.72C542.501 154.249 543.867 153.463 545.02 152.415C545.801 151.712 546.481 150.905 547.041 150.016C551.018 143.822 550.943 132.932 547.793 123.504C545.593 116.944 541.946 111.134 537.142 108.06C525.428 100.563 510.461 103 503.711 113.486C496.961 123.973 500.994 138.536 512.708 146.033Z" fill="#336198"/>
<g opacity="0.1">
<path opacity="0.1" d="M561.622 133.719C562.124 133.915 562.666 133.989 563.202 133.935C564.011 133.974 564.8 134.192 565.514 134.572C565.157 129.774 558.577 128.387 558.577 128.387C560.194 129.748 561.274 131.638 561.622 133.719Z" fill="black"/>
<path opacity="0.1" d="M528.794 151.188C528.916 152.125 529.048 153.146 529.207 154.14C533.485 155.433 537.584 155.845 541.015 154.758C541.776 155.002 542.529 155.358 542.67 155.845C542.729 155.99 542.729 156.151 542.67 156.295C542.608 156.426 542.522 156.544 542.416 156.641C542.306 156.752 542.203 156.868 542.105 156.989C541.053 158.273 542.039 158.6 542.039 158.6C543.534 160.681 548.489 158.451 548.489 158.451C548.489 158.451 550.172 157.007 548.489 155.911C548.342 155.813 548.188 155.726 548.028 155.648C547.472 155.385 546.965 155.027 546.534 154.59C546.384 154.44 546.233 154.28 546.091 154.112C545.68 153.6 545.326 153.043 545.039 152.453C545.821 151.75 546.5 150.942 547.06 150.054C551.037 143.859 550.962 132.97 547.812 123.542C535.59 125.266 527.111 137.599 528.794 151.188Z" fill="black"/>
<path opacity="0.1" d="M540.206 178.43C541.515 179.279 542.994 179.833 544.541 180.052C544.668 179.76 544.815 179.479 544.982 179.208L539.436 176.959C539.724 177.433 539.981 177.924 540.206 178.43Z" fill="black"/>
<path opacity="0.1" d="M542.087 186.509C542.087 186.509 544.287 186.884 544.07 184.907C544.056 184.728 544.024 184.553 543.976 184.381C543.827 183.787 543.783 183.172 543.845 182.563C543.858 182.346 543.886 182.13 543.929 181.917C544.056 181.271 544.258 180.641 544.532 180.043C544.658 179.751 544.806 179.47 544.973 179.199L539.436 176.959C539.72 177.448 539.97 177.956 540.187 178.477C540.48 179.217 540.686 180.033 540.405 180.455C540.318 180.581 540.187 180.671 540.037 180.708C539.894 180.733 539.748 180.733 539.605 180.708C539.449 180.699 539.292 180.699 539.135 180.708C537.471 180.708 537.847 181.645 537.847 181.645C537.208 184.147 542.087 186.509 542.087 186.509Z" fill="black"/>
<path opacity="0.1" d="M540.037 180.708L543.799 182.582C543.799 182.357 543.827 182.141 543.883 181.936C542.896 181.551 541.344 180.867 540.366 180.436C540.292 180.562 540.175 180.658 540.037 180.708Z" fill="black"/>
<path opacity="0.1" d="M542.086 186.509C542.086 186.509 544.277 186.875 544.07 184.897C543.203 184.817 542.36 184.569 541.588 184.166C540.351 183.363 539.471 182.113 539.135 180.68C537.471 180.68 537.847 181.617 537.847 181.617C537.198 184.147 542.086 186.509 542.086 186.509Z" fill="black"/>
<path opacity="0.1" d="M542.086 186.509C542.086 186.509 544.277 186.875 544.07 184.897C543.203 184.817 542.36 184.569 541.588 184.166C540.351 183.363 539.471 182.113 539.135 180.68C537.471 180.68 537.847 181.617 537.847 181.617C537.198 184.147 542.086 186.509 542.086 186.509Z" fill="black"/>
<path opacity="0.1" d="M561.622 133.719C562.124 133.915 562.666 133.989 563.202 133.935C564.011 133.974 564.8 134.192 565.514 134.572C565.157 129.774 558.577 128.387 558.577 128.387C560.194 129.748 561.274 131.638 561.622 133.719Z" fill="black"/>
</g>
<path d="M530.147 151.956C531.849 165.732 536.615 182.357 549.015 180.83C561.415 179.302 576.767 160.213 575.066 146.427C573.364 132.642 561.904 122.736 549.513 124.264C537.123 125.791 528.436 138.19 530.147 151.956Z" fill="#2A3E56"/>
<path d="M543.769 182.676C544.345 182.724 544.903 182.895 545.406 183.178C545.909 183.46 546.345 183.849 546.683 184.315C547.021 184.781 547.255 185.315 547.367 185.88C547.479 186.445 547.468 187.027 547.332 187.587C546.505 190.351 543.102 191.223 540.883 193.069C538.665 194.915 537.602 197.867 537.33 200.745C537.095 203.469 537.458 206.212 538.395 208.782C539.332 211.352 540.82 213.688 542.754 215.626C544.747 217.584 547.154 219.084 549.119 221.071C551.375 223.557 553.23 226.377 554.619 229.43C555.873 231.597 556.7 233.982 557.053 236.459C557.382 240.404 555.389 244.181 553.011 247.348C550.633 250.516 547.783 253.384 545.941 256.888C544.693 259.294 543.948 261.928 543.749 264.628C543.55 267.33 543.903 270.043 544.785 272.604C544.892 273.015 545.125 273.382 545.452 273.654C545.537 273.717 545.634 273.761 545.738 273.782C545.841 273.805 545.947 273.805 546.051 273.782C546.154 273.761 546.251 273.717 546.336 273.654C546.421 273.592 546.491 273.511 546.543 273.419" stroke="#444053" stroke-miterlimit="10"/>
<path d="M463.606 552.286L473.007 549.353C475.639 547.385 474.887 545.015 473.693 543.244C473.273 542.675 472.735 542.203 472.115 541.863C471.495 541.521 470.808 541.318 470.102 541.266C469.476 541.162 468.88 540.925 468.354 540.572C467.778 540.227 467.294 539.748 466.943 539.176C466.3 538.084 465.974 536.834 466.003 535.568C466.003 535.568 455.944 532.213 453.049 535.072C452.534 535.591 452.097 536.181 451.751 536.824C450.752 538.842 450.222 541.058 450.199 543.308C450.199 543.308 449.561 546.504 448.582 550.159C447.605 553.815 463.606 552.286 463.606 552.286Z" fill="#2D293D"/>
<path d="M418.452 545.999L427.853 543.065C430.485 541.097 429.734 538.726 428.539 536.964C428.12 536.393 427.581 535.919 426.959 535.578C426.337 535.236 425.647 535.035 424.938 534.987C424.577 534.93 424.224 534.819 423.895 534.659C423.653 534.554 423.42 534.428 423.199 534.284C420.652 532.766 420.811 529.327 420.811 529.327C420.811 529.327 410.762 525.971 407.866 528.83C407.478 529.219 407.134 529.649 406.841 530.114C405.663 532.245 405.036 534.634 405.018 537.068C405.018 537.068 404.369 540.273 403.391 543.918C402.414 547.563 418.452 545.999 418.452 545.999Z" fill="#2D293D"/>
<path d="M405.534 517.735C406.202 518.999 406.758 520.319 407.198 521.68L406.804 531.876C409.229 536.234 422.786 535.334 424.666 533.075C426.546 530.816 428.746 524.828 426.715 523.703C424.685 522.58 423.199 517.359 423.199 517.359C423.199 517.359 425.38 517.959 429.037 513.966C432.694 509.974 432.008 500.763 431.444 498.541C430.88 496.32 431.82 488.992 431.82 488.992C431.82 488.992 431.886 483.819 432.986 482.188C434.086 480.557 436.662 471.074 436.662 471.074C436.662 471.074 436.784 467.849 438.664 466.238C440.544 464.626 441.955 458.094 441.955 458.094C443.085 456.492 443.62 454.546 443.469 452.593C443.205 449.35 445.931 445.968 445.931 445.968L450.867 432.192L455.417 421.883L457.476 428.115C457.476 428.115 457.57 442.34 456.941 445.292C456.31 448.244 455.229 456.088 455.229 456.088C455.229 456.088 457.617 461.346 456.282 465.695C454.947 470.043 454.976 479.471 454.976 479.471C454.976 479.471 453.095 498.926 454.035 500.509C454.976 502.093 454.73 505.964 454.73 505.964L451.835 518.153V535.802L467.422 538.211C468.919 536.212 470.181 534.049 471.183 531.763C473.439 527.077 471.954 523.781 471.954 523.781C471.954 523.781 468.437 512.13 469.754 511.662C471.07 511.193 471.549 502.29 471.549 502.29C471.549 502.29 474.539 491.803 474.003 488.936C473.467 486.068 476.448 479.33 476.448 479.33L477.67 471.233C480.62 466.728 481.842 461.315 481.111 455.985L481.599 443.465C481.599 443.465 486.159 419.334 487.155 407.085C487.785 399.25 488.096 388.52 488.256 381.829C488.34 378.081 488.368 375.587 488.368 375.587L432.647 367.631C432.458 370.415 432.01 373.176 431.312 375.878C430.626 378.924 429.573 382.851 427.985 387.752C423.415 401.809 425.474 412.483 425.474 412.483L425.295 430.439C425.295 430.439 419.908 442.256 420.783 446.426C421.311 448.891 421.563 451.405 421.535 453.924C421.535 453.924 409.511 479.704 410.386 487.361C411.26 495.018 406.004 506.845 406.004 506.845C406.004 506.845 404.331 515.363 405.534 517.735Z" fill="#3F3D56"/>
<path d="M429.484 253.549L430.275 258.3L430.143 260.399L430.04 261.945L435.417 262.705L436.066 261.609C437.269 259.631 439.742 255.611 440.522 255.048C441.555 254.242 443.841 241.207 441.669 241.928C440.342 242.381 439.233 243.31 438.557 244.533C438.557 244.533 427.886 245.283 429.484 253.549Z" fill="#FFCDD3"/>
<path d="M544.873 257.659L552.327 262.018L553.07 260.611C553.85 259.131 555.016 256.863 555.345 256.085C555.843 254.848 559.106 253.387 559.106 253.387C567.36 246.105 558.165 239.226 558.165 239.226C553.531 228.965 547.411 242.234 547.411 242.234C547.411 242.234 546.367 249.31 546.894 249.815C547.42 250.322 547.354 252.253 547.354 252.253C546.569 253.619 545.899 255.048 545.352 256.526C545.014 257.21 544.873 257.659 544.873 257.659Z" fill="#FFCDD3"/>
<path d="M449.626 282.857C449.626 282.857 486.733 288.48 479.85 285.95C475.066 284.187 473.27 281.048 472.979 277.618C472.896 274.679 473.484 271.76 474.699 269.081C475.669 266.778 476.873 264.58 478.29 262.521C478.29 262.521 450.406 245.802 455.558 260.225C456.353 262.408 456.81 264.698 456.911 267.019C456.994 269.319 456.657 271.615 455.915 273.795C454.694 277.334 452.518 280.47 449.626 282.857Z" fill="#FFCDD3"/>
<path d="M467.291 270.439C475.806 270.439 482.709 263.559 482.709 255.07C482.709 246.582 475.806 239.701 467.291 239.701C458.776 239.701 451.873 246.582 451.873 255.07C451.873 263.559 458.776 270.439 467.291 270.439Z" fill="#FFCDD3"/>
<path d="M417.051 371.961C417.051 371.961 464.263 381.914 469.425 380.564C474.585 379.215 500.702 381.895 500.702 381.895C512.181 390.216 507.715 378.408 507.715 378.408C507.715 378.408 508.985 372.383 507.715 367.425C506.905 363.791 506.4 360.095 506.202 356.376C506.202 356.376 506.757 348.645 505.403 346.78C504.05 344.915 502.865 331.945 502.865 331.945C502.865 331.945 501.924 323.117 502.113 321.186C502.301 319.256 502.01 313.811 502.01 313.811L500.674 304.712C510.433 303.775 540.657 286.849 540.657 286.849C542.321 280.842 553.875 267.057 553.875 267.057C554.076 265.869 554.424 264.711 554.91 263.608C555.774 261.575 544.276 257.048 544.276 257.048C544.276 257.048 535.186 267.301 533.268 270.065C531.351 272.829 524.919 277.89 524.919 277.89C523.972 277.765 523.007 277.855 522.1 278.153H521.949C519.831 278.893 517.833 279.938 516.017 281.254C513.102 281.075 510.231 282.029 508.007 283.916C508.007 283.916 502.724 282.979 501.783 283.804C500.843 284.628 496.35 283.597 496.35 283.597C496.35 283.597 492.185 273.87 489.101 276.531C486.017 279.193 473.373 278.583 473.373 278.583C471.784 276.288 467.732 274.525 465.213 273.607C463.056 272.792 460.698 272.662 458.463 273.233C457.495 273.469 456.576 273.873 455.746 274.422L447.793 281.61C447.793 281.61 445.696 278.687 445.978 278.05C446.26 277.412 443.439 276.784 443.439 276.784C443.439 276.784 439.679 275.481 438.316 275.041C436.953 274.6 435.542 276.082 435.42 276.213C436.064 274.41 436.358 272.502 436.286 270.589C435.994 268.125 438.016 266.007 438.016 266.007C433.917 254.761 423.321 263.626 423.321 263.626C423.321 263.626 421.92 269.652 422.87 272.014C423.819 274.375 421.554 279.203 421.76 280.505C421.967 281.807 421.112 283.972 421.018 286.427C420.924 288.883 422.042 293.578 422.739 295.668C423.434 297.758 429.469 302.65 429.469 302.65C429.469 302.65 429.573 310.025 432.131 314.392C434.687 318.759 432.441 333.275 432.441 333.275C432.441 333.275 429.413 344.521 426.028 348.026C422.645 351.531 417.051 371.961 417.051 371.961Z" fill="#3F3D56"/>
<path d="M470.92 269.165C470.771 269.979 470.313 270.704 469.641 271.19C469.182 271.397 468.678 271.49 468.174 271.461C463.474 271.573 458.566 271.592 454.289 269.587C453.491 269.269 452.785 268.76 452.23 268.106C451.623 267.05 451.248 265.878 451.131 264.667C450.604 262.343 449.382 260.253 448.535 258.032C447.113 254.295 446.742 250.24 447.464 246.308C447.63 245.091 448.078 243.93 448.77 242.916C450.087 241.191 452.38 240.564 454.082 239.214C455.784 237.865 456.903 235.747 458.896 234.763C460.672 233.826 462.788 234.06 464.725 234.472C468.545 235.267 472.178 236.789 475.423 238.952C476.514 239.673 477.707 240.507 479.005 240.32C480.115 240.008 481.081 239.322 481.74 238.38C482.6 240.516 482.922 242.829 482.681 245.118C482.624 245.453 482.624 245.795 482.681 246.13C482.829 246.535 483.059 246.905 483.357 247.217C484.467 248.604 485.106 250.76 483.912 252.062C483.395 252.644 482.615 252.933 482.107 253.515C481.167 254.555 481.421 256.12 481.393 257.507C481.424 257.99 481.284 258.467 480.998 258.856C480.74 259.071 480.434 259.217 480.105 259.283C479.777 259.349 479.437 259.331 479.118 259.232C478.467 259.012 477.781 258.92 477.096 258.959C476.365 259.175 475.726 259.626 475.282 260.244C472.922 262.896 471.963 265.885 470.92 269.165Z" fill="#3F3D56"/>
<g opacity="0.1">
<path opacity="0.1" d="M451.751 266.925C452.307 267.582 453.017 268.09 453.819 268.406C458.096 270.374 462.995 270.356 467.704 270.281C468.207 270.3 468.709 270.207 469.171 270.009C469.845 269.521 470.303 268.792 470.449 267.975C471.493 264.704 472.452 261.714 474.727 259.044C475.17 258.425 475.809 257.973 476.542 257.76C477.227 257.72 477.913 257.812 478.563 258.032C478.884 258.132 479.224 258.149 479.553 258.081C479.882 258.014 480.188 257.865 480.443 257.648C480.73 257.258 480.87 256.78 480.838 256.298C480.838 254.92 480.641 253.356 481.543 252.315C482.05 251.725 482.831 251.434 483.357 250.862C483.698 250.437 483.916 249.927 483.99 249.388C484.062 248.847 483.987 248.299 483.771 247.799C484.542 249.129 484.843 250.815 483.837 251.912C483.31 252.484 482.53 252.783 482.022 253.365C481.082 254.405 481.346 255.97 481.317 257.357C481.349 257.839 481.209 258.317 480.923 258.706C480.665 258.921 480.359 259.067 480.03 259.133C479.702 259.199 479.362 259.181 479.042 259.081C478.392 258.864 477.706 258.771 477.021 258.809C476.288 259.022 475.649 259.474 475.207 260.094C472.932 262.764 471.963 265.716 470.929 269.034C470.78 269.847 470.322 270.572 469.65 271.058C469.191 271.266 468.687 271.358 468.184 271.33C463.483 271.442 458.576 271.461 454.298 269.456C453.497 269.14 452.786 268.632 452.23 267.975C451.953 267.591 451.743 267.164 451.61 266.71L451.751 266.925Z" fill="black"/>
<path opacity="0.1" d="M482.605 245.699C482.404 245.467 482.254 245.196 482.163 244.903C482.103 244.571 482.103 244.231 482.163 243.9C482.371 242.01 482.198 240.099 481.656 238.277L481.74 238.183C482.579 240.324 482.886 242.637 482.633 244.921C482.604 245.18 482.593 245.439 482.605 245.699Z" fill="black"/>
</g>
</g>
<defs>
<clipPath id="clip0">
<rect width="950" height="740" fill="white"/>
</clipPath>
</defs>
</svg>
