<svg width="40" height="60" viewBox="0 0 40 60" fill="none" xmlns="http://www.w3.org/2000/svg">
<path d="M9.45322 44.9042C9.53288 45.0669 9.69771 45.1699 9.87825 45.1699C10.0588 45.1699 10.2237 45.0669 10.3032 44.9042C10.6034 44.2913 11.392 43.315 12.507 42.6644C13.6046 42.024 14.9871 41.7147 16.5306 42.3451C18.0585 42.969 18.8164 44.2013 18.9705 45.6178C19.1268 47.0546 18.6568 48.681 17.694 49.9917C16.6964 51.3498 14.6758 53.4157 12.8787 55.1633C11.9853 56.0321 11.1554 56.8143 10.5487 57.3793C10.2746 57.6347 10.0462 57.8456 9.87825 58C9.71032 57.8456 9.48191 57.6347 9.20779 57.3793C8.60116 56.8143 7.77123 56.0321 6.87777 55.1633C5.08067 53.4157 3.06009 51.3498 2.06253 49.9917C0.159599 47.4011 0.835073 43.6005 3.90904 42.3451C5.45603 41.7132 6.65648 42.0297 7.56325 42.6469C8.49556 43.2815 9.1324 44.2491 9.45322 44.9042Z" fill="#D94271" stroke="#D94271" stroke-linecap="round" stroke-linejoin="round"/>
<path d="M29.4532 44.9042C29.5329 45.0669 29.6977 45.1699 29.8782 45.1699C30.0588 45.1699 30.2237 45.0669 30.3032 44.9042C30.6034 44.2913 31.392 43.315 32.507 42.6644C33.6046 42.024 34.9871 41.7147 36.5306 42.3451C38.0585 42.969 38.8164 44.2013 38.9705 45.6178C39.1268 47.0546 38.6568 48.681 37.694 49.9917C36.6964 51.3498 34.6758 53.4157 32.8787 55.1633C31.9853 56.0321 31.1554 56.8143 30.5487 57.3793C30.2746 57.6347 30.0462 57.8456 29.8782 58C29.7103 57.8456 29.4819 57.6347 29.2078 57.3793C28.6012 56.8143 27.7712 56.0321 26.8778 55.1633C25.0807 53.4157 23.0601 51.3498 22.0625 49.9917C20.1596 47.4011 20.8351 43.6005 23.909 42.3451C25.456 41.7132 26.6565 42.0297 27.5632 42.6469C28.4956 43.2815 29.1324 44.2491 29.4532 44.9042Z" fill="#D94271" stroke="#D94271" stroke-linecap="round" stroke-linejoin="round"/>
<path d="M29.4532 4.90418C29.5329 5.06685 29.6977 5.16989 29.8782 5.16989C30.0588 5.16989 30.2237 5.06685 30.3032 4.90418C30.6034 4.29131 31.392 3.315 32.507 2.66443C33.6046 2.02401 34.9871 1.71466 36.5306 2.34504C38.0585 2.96908 38.8164 4.20134 38.9705 5.61783C39.1268 7.05455 38.6568 8.68102 37.694 9.99173C36.6964 11.3498 34.6758 13.4157 32.8787 15.1633C31.9853 16.0321 31.1554 16.8143 30.5487 17.3793C30.2746 17.6347 30.0462 17.8456 29.8782 18C29.7103 17.8456 29.4819 17.6347 29.2078 17.3793C28.6012 16.8143 27.7712 16.0321 26.8778 15.1633C25.0807 13.4157 23.0601 11.3498 22.0625 9.99173C20.1596 7.40109 20.8351 3.60051 23.909 2.34504C25.456 1.71323 26.6565 2.02965 27.5632 2.64689C28.4956 3.28151 29.1324 4.24903 29.4532 4.90418Z" stroke="white" stroke-opacity="0.4" stroke-linecap="round" stroke-linejoin="round"/>
<path d="M9.45322 4.90418C9.53288 5.06685 9.69771 5.16989 9.87825 5.16989C10.0588 5.16989 10.2237 5.06685 10.3032 4.90418C10.6034 4.29131 11.392 3.315 12.507 2.66443C13.6046 2.02401 14.9871 1.71466 16.5306 2.34504C18.0585 2.96908 18.8164 4.20134 18.9705 5.61783C19.1268 7.05455 18.6568 8.68102 17.694 9.99173C16.6964 11.3498 14.6758 13.4157 12.8787 15.1633C11.9853 16.0321 11.1554 16.8143 10.5487 17.3793C10.2746 17.6347 10.0462 17.8456 9.87825 18C9.71032 17.8456 9.48191 17.6347 9.20779 17.3793C8.60116 16.8143 7.77123 16.0321 6.87777 15.1633C5.08067 13.4157 3.06009 11.3498 2.06253 9.99173C0.159599 7.40109 0.835073 3.60051 3.90904 2.34504C5.45603 1.71323 6.65648 2.02965 7.56325 2.64689C8.49556 3.28151 9.1324 4.24903 9.45322 4.90418Z" stroke="black" stroke-opacity="0.4" stroke-linecap="round" stroke-linejoin="round"/>
<path d="M9.45322 24.9042C9.53288 25.0668 9.69771 25.1699 9.87825 25.1699C10.0588 25.1699 10.2237 25.0668 10.3032 24.9042C10.6034 24.2913 11.392 23.315 12.507 22.6644C13.6046 22.024 14.9871 21.7147 16.5306 22.345C18.0585 22.9691 18.8164 24.2013 18.9705 25.6178C19.1268 27.0546 18.6568 28.681 17.694 29.9917C16.6964 31.3498 14.6758 33.4157 12.8787 35.1633C11.9853 36.0321 11.1554 36.8143 10.5487 37.3793C10.2746 37.6347 10.0462 37.8456 9.87825 38C9.71032 37.8456 9.48191 37.6347 9.20779 37.3793C8.60116 36.8143 7.77123 36.0321 6.87777 35.1633C5.08067 33.4157 3.06009 31.3498 2.06253 29.9917C0.159599 27.4011 0.835073 23.6005 3.90904 22.345C5.45603 21.7132 6.65648 22.0297 7.56325 22.6469C8.49556 23.2815 9.1324 24.249 9.45322 24.9042Z" stroke="#D94271" stroke-linecap="round" stroke-linejoin="round"/>
<path d="M29.4532 24.9042C29.5329 25.0668 29.6977 25.1699 29.8782 25.1699C30.0588 25.1699 30.2237 25.0668 30.3032 24.9042C30.6034 24.2913 31.392 23.315 32.507 22.6644C33.6046 22.024 34.9871 21.7147 36.5306 22.345C38.0585 22.9691 38.8164 24.2013 38.9705 25.6178C39.1268 27.0546 38.6568 28.681 37.694 29.9917C36.6964 31.3498 34.6758 33.4157 32.8787 35.1633C31.9853 36.0321 31.1554 36.8143 30.5487 37.3793C30.2746 37.6347 30.0462 37.8456 29.8782 38C29.7103 37.8456 29.4819 37.6347 29.2078 37.3793C28.6012 36.8143 27.7712 36.0321 26.8778 35.1633C25.0807 33.4157 23.0601 31.3498 22.0625 29.9917C20.1596 27.4011 20.8351 23.6005 23.909 22.345C25.456 21.7132 26.6565 22.0297 27.5632 22.6469C28.4956 23.2815 29.1324 24.249 29.4532 24.9042Z" stroke="#D94271" stroke-linecap="round" stroke-linejoin="round"/>
</svg>
