<svg width="290" height="530" viewBox="0 0 290 530" fill="none" xmlns="http://www.w3.org/2000/svg">
<g opacity="0.07">
<path d="M278.678 139.882L278.719 139.875L272.699 104.46L239.411 115.102L244.392 146.778C242.677 145.686 240.632 145.244 238.622 145.53C236.613 145.816 234.77 146.812 233.423 148.34C232.076 149.867 231.313 151.827 231.269 153.869C231.226 155.91 231.905 157.901 233.186 159.485C234.467 161.069 236.266 162.143 238.261 162.516C240.256 162.888 242.318 162.535 244.078 161.518C245.839 160.501 247.182 158.888 247.869 156.967C248.556 155.045 248.542 152.94 247.829 151.028L247.859 151.024L242.514 117.029L270.509 108.08L275.268 136.076C273.511 135.03 271.441 134.653 269.432 135.011C267.422 135.37 265.607 136.441 264.315 138.03C263.023 139.62 262.34 141.623 262.389 143.675C262.438 145.728 263.216 147.695 264.583 149.221C265.949 150.746 267.814 151.728 269.838 151.989C271.862 152.249 273.912 151.772 275.616 150.643C277.32 149.514 278.566 147.807 279.128 145.833C279.69 143.859 279.53 141.748 278.678 139.882Z" fill="#336198"/>
<path d="M53.4109 277.019L53.4519 277.012L47.432 241.597L14.1442 252.239L19.1247 283.915C17.4094 282.824 15.3644 282.382 13.355 282.668C11.3456 282.954 9.50282 283.95 8.15581 285.477C6.80881 287.005 6.0454 288.964 6.00196 291.006C5.95852 293.048 6.6379 295.038 7.91871 296.622C9.19952 298.207 10.9983 299.281 12.9937 299.653C14.9891 300.026 17.051 299.672 18.8111 298.655C20.5713 297.639 21.9149 296.026 22.6019 294.104C23.289 292.183 23.2747 290.078 22.5616 288.166L22.5922 288.161L17.2471 254.167L45.2416 245.217L50.0004 273.213C48.244 272.168 46.1736 271.79 44.1643 272.149C42.1551 272.507 40.34 273.578 39.048 275.168C37.756 276.757 37.0727 278.76 37.1218 280.813C37.1709 282.866 37.9492 284.833 39.3157 286.358C40.6822 287.883 42.5464 288.865 44.5705 289.126C46.5945 289.387 48.6444 288.909 50.3488 287.78C52.0532 286.651 53.2992 284.945 53.8609 282.971C54.4227 280.996 54.263 278.885 53.4109 277.019Z" fill="#336198"/>
<path d="M72.0544 114.355L72.0798 114.336L56.1102 92.3283L37.0969 110.72L51.1065 130.539C49.5765 130.375 48.0406 130.761 46.7734 131.629C45.5061 132.498 44.59 133.792 44.1887 135.28C43.7874 136.769 43.9271 138.355 44.5829 139.754C45.2386 141.154 46.3676 142.277 47.7682 142.922C49.1688 143.567 50.7497 143.692 52.2285 143.275C53.7073 142.858 54.9876 141.926 55.8406 140.646C56.6937 139.365 57.0639 137.82 56.8851 136.286C56.7064 134.751 55.9903 133.328 54.8649 132.27L54.884 132.256L39.8491 110.986L55.8391 95.5195L68.4631 112.917C66.9206 112.797 65.3891 113.235 64.1463 114.153C62.9034 115.071 62.0314 116.407 61.6883 117.919C61.3451 119.431 61.5536 121.019 62.2758 122.395C62.9981 123.771 64.1863 124.845 65.6253 125.421C67.0642 125.997 68.6585 126.038 70.1194 125.535C71.5802 125.033 72.8108 124.021 73.5882 122.683C74.3656 121.345 74.6383 119.769 74.3569 118.241C74.0755 116.713 73.2587 115.335 72.0544 114.355Z" fill="#336198"/>
<path d="M266.996 243.121L267.028 243.127L274.118 206.506L271.306 205.964L265.159 237.712C263.877 236.027 262.044 234.864 259.988 234.432C257.931 234 255.785 234.326 253.933 235.352C252.081 236.378 250.644 238.037 249.878 240.033C249.112 242.029 249.067 244.232 249.751 246.248C250.436 248.263 251.805 249.961 253.615 251.037C255.424 252.113 257.556 252.498 259.629 252.122C261.701 251.746 263.581 250.635 264.93 248.986C266.28 247.337 267.012 245.258 266.996 243.121Z" fill="#336198"/>
<path d="M69.2401 180.677C69.2435 179.199 68.7582 177.762 67.8605 176.591C66.9629 175.421 65.704 174.584 64.282 174.213C62.8599 173.842 61.3556 173.958 60.0059 174.541C58.6562 175.125 57.5378 176.144 56.8269 177.438C56.1159 178.731 55.8528 180.226 56.0789 181.687C56.305 183.148 57.0075 184.491 58.0758 185.506C59.1441 186.521 60.5174 187.149 61.9796 187.292C63.4418 187.435 64.9097 187.085 66.1522 186.296L62.4343 209.942L64.5522 210.279L68.8409 183.004L68.8172 183C69.0954 182.257 69.2386 181.471 69.2401 180.677Z" fill="#336198"/>
<path d="M95.1304 311.35C95.1304 311.35 83.6272 350.287 80.49 373.438C80.49 373.438 17.7455 458.676 29.2487 495.508C41.4414 532.116 41.4414 529.977 41.4414 529.977C41.4414 529.977 92.9775 529.977 110.51 529.977L100.359 510.24C100.359 510.24 106.634 502.874 97.2219 498.665C87.8102 494.455 96.1761 489.194 96.1761 489.194C96.1761 489.194 113.954 429.211 131.731 422.897L193.393 410.182C193.393 410.182 189.247 320.821 174.607 305.036C174.607 305.036 101.405 306.089 95.1304 311.35Z" fill="#2F2E41"/>
<path d="M129.951 413.738L148.015 473.823C148.015 473.823 142.137 493.95 140.046 511.793C137.955 529.637 135.795 529.977 135.795 529.977C135.795 529.977 177.768 529.977 189.457 529.977C197.82 521.741 193.393 410.182 193.393 410.182L168.633 395.208L129.951 413.738Z" fill="#2F2E41"/>
<path d="M104.111 131.27C114.967 105.493 142.602 100.625 142.602 100.625C142.602 100.625 169.211 93.4815 191.433 127.501C212.146 159.211 238.856 188.919 204.982 201.576L196.034 182.666L194.961 204.428C190.035 205.461 185.057 206.221 180.049 206.706C142.476 210.547 107.058 216.933 106.402 203.269C105.53 185.105 93.665 156.072 104.111 131.27Z" fill="#2F2E41"/>
<path d="M148.463 181.914C165.212 181.914 178.79 168.251 178.79 151.397C178.79 134.542 165.212 120.879 148.463 120.879C131.714 120.879 118.137 134.542 118.137 151.397C118.137 168.251 131.714 181.914 148.463 181.914Z" fill="#FFB8B8"/>
<path d="M139.574 170.865C139.574 170.865 139.051 201.908 135.914 209.275C132.777 216.641 191.861 203.487 191.861 203.487C191.861 203.487 170.947 188.754 167.809 168.76L139.574 170.865Z" fill="#FFB8B8"/>
<path d="M144.28 196.647L138.569 192.42L98.2677 194.542L89.9017 287.147C89.9017 287.147 65.8496 315.56 95.1304 315.56C124.411 315.56 151.6 301.879 172.515 311.35C193.43 320.821 211.208 211.379 211.208 211.379L179.943 192.42C179.943 192.42 166.241 209.275 144.28 196.647Z" fill="#575A89"/>
<path d="M109.771 271.362L168.332 283.99V297.67L109.771 299.775C109.771 299.775 103.496 275.571 109.771 271.362Z" fill="#FFB8B8"/>
<path d="M109.771 199.804L98.2676 194.542C98.2676 194.542 84.673 197.699 83.6272 209.275C82.5815 220.85 62.7124 295.565 78.3985 298.722C94.0847 301.879 114.999 301.879 114.999 301.879C114.999 301.879 101.405 282.938 118.137 272.414L105.588 266.1C105.588 266.1 93.0389 237.688 101.405 222.955C109.771 208.222 109.771 199.804 109.771 199.804Z" fill="#575A89"/>
<path d="M110.249 121.905L137.944 107.306L176.191 113.278L184.104 148.448L164.406 147.686L158.903 134.765V147.472L149.815 147.121L144.539 126.55L141.242 148.448L108.93 147.784L110.249 121.905Z" fill="#2F2E41"/>
<path d="M178.964 158.243C182.044 158.243 184.541 153.845 184.541 148.421C184.541 142.997 182.044 138.599 178.964 138.599C175.884 138.599 173.387 142.997 173.387 148.421C173.387 153.845 175.884 158.243 178.964 158.243Z" fill="#FFB8B8"/>
<path d="M179.5 155.374C181.602 155.374 183.306 153.659 183.306 151.544C183.306 149.428 181.602 147.714 179.5 147.714C177.398 147.714 175.694 149.428 175.694 151.544C175.694 153.659 177.398 155.374 179.5 155.374Z" fill="white"/>
<path d="M181.134 152.835C181.476 152.835 181.753 151.999 181.753 150.967C181.753 149.935 181.476 149.099 181.134 149.099C180.793 149.099 180.516 149.935 180.516 150.967C180.516 151.999 180.793 152.835 181.134 152.835Z" fill="#2F2E41"/>
<path d="M181.036 162.661C180.778 162.661 180.53 162.558 180.347 162.374C180.165 162.191 180.062 161.941 180.062 161.682L179.088 153.842H182.01V161.682C182.01 161.81 181.985 161.938 181.936 162.057C181.887 162.175 181.815 162.283 181.725 162.374C181.634 162.465 181.527 162.538 181.409 162.587C181.29 162.636 181.164 162.661 181.036 162.661Z" fill="white"/>
<path opacity="0.1" d="M105.089 228.356L95.215 271.416H118.256L100.153 267.276L105.089 228.356Z" fill="black"/>
<path d="M224.051 299.489L223.832 299.29L229.238 293.255C229.648 292.796 229.965 292.261 230.171 291.679C230.376 291.097 230.465 290.48 230.433 289.863C230.401 289.246 230.249 288.642 229.985 288.085C229.721 287.527 229.351 287.027 228.895 286.614L216.188 275.09C215.732 274.677 215.2 274.358 214.622 274.151C214.043 273.945 213.43 273.855 212.817 273.887C212.205 273.919 211.604 274.072 211.05 274.338C210.496 274.604 210 274.976 209.589 275.435L179.935 308.545C179.524 309.004 179.207 309.539 179.002 310.121C178.797 310.703 178.708 311.32 178.74 311.937C178.772 312.554 178.924 313.158 179.188 313.716C179.452 314.273 179.822 314.773 180.278 315.186L192.984 326.71C193.44 327.124 193.973 327.443 194.551 327.649C195.129 327.855 195.742 327.945 196.355 327.913C196.968 327.881 197.569 327.728 198.123 327.462C198.677 327.197 199.173 326.824 199.584 326.365L219.985 303.586L220.204 303.785L224.051 299.489Z" fill="#3F3D56"/>
<path d="M214.083 293.548C215.746 293.548 217.094 292.192 217.094 290.518C217.094 288.845 215.746 287.488 214.083 287.488C212.42 287.488 211.072 288.845 211.072 290.518C211.072 292.192 212.42 293.548 214.083 293.548Z" fill="#336198"/>
<path d="M193.201 288.692C193.201 288.692 228.849 297.374 220.636 309.753C212.422 322.132 179.996 299.506 179.996 299.506L193.201 288.692Z" fill="#FFB8B8"/>
<path d="M201.796 211.379H211.208C211.208 211.379 221.665 222.955 219.574 233.478C217.482 244.002 211.208 293.461 211.208 293.461C211.208 293.461 179.835 322.926 164.149 307.141C148.463 291.356 159.966 276.624 159.966 276.624C159.966 276.624 180.881 293.461 192.384 271.362L201.796 211.379Z" fill="#575A89"/>
<path d="M192.443 283.126L199.646 211.516C199.646 211.516 214.754 166.309 200.006 165.201C185.258 164.093 184.222 208.039 184.222 208.039L158.536 286.398C158.536 286.398 172.632 300.292 192.443 283.126Z" fill="#FFB8B8"/>
<path d="M256.889 357.851L256.922 357.863L266.909 329.914L238.653 323.945L229.429 348.778C228.636 347.29 227.343 346.135 225.782 345.518C224.22 344.901 222.491 344.863 220.904 345.411C219.317 345.959 217.976 347.057 217.119 348.508C216.262 349.959 215.946 351.67 216.227 353.334C216.508 354.998 217.368 356.508 218.654 357.593C219.939 358.678 221.566 359.267 223.243 359.256C224.921 359.245 226.54 358.634 227.811 357.533C229.083 356.431 229.924 354.911 230.183 353.243L230.207 353.252L240.106 326.602L263.869 331.622L255.974 353.716C255.133 352.245 253.796 351.125 252.205 350.561C250.614 349.997 248.875 350.024 247.302 350.639C245.73 351.254 244.429 352.415 243.634 353.913C242.839 355.41 242.604 357.144 242.971 358.801C243.337 360.458 244.282 361.928 245.633 362.944C246.984 363.96 248.652 364.456 250.335 364.341C252.018 364.226 253.604 363.508 254.807 362.318C256.009 361.127 256.748 359.543 256.889 357.851Z" fill="#336198"/>
</g>
</svg>
