<svg width="31" height="61" viewBox="0 0 31 61" fill="none" xmlns="http://www.w3.org/2000/svg">
<g filter="url(#filter0_d)">
<path d="M15 32C13.2273 32 11.8423 32.6835 10.8452 34.0506C9.84801 35.4177 9.34943 37.1652 9.34943 39.2932C9.33712 41.937 10.1496 44.0327 11.7869 45.5804C11.9962 45.7867 12.0701 46.0511 12.0085 46.3735L11.5838 47.3021C11.4484 47.6116 11.2483 47.8534 10.9837 48.0275C10.719 48.2016 10.1619 48.4499 9.3125 48.7723C9.27557 48.7852 8.49692 49.0496 6.97656 49.5655C5.4562 50.0813 4.64678 50.3651 4.5483 50.4167C3.5142 50.8681 2.83712 51.3388 2.51705 51.8289C2.17235 52.6414 2 54.6984 2 58H28C28 54.6984 27.8277 52.6414 27.483 51.8289C27.1629 51.3388 26.4858 50.8681 25.4517 50.4167C25.3532 50.3651 24.5438 50.0813 23.0234 49.5655C21.5031 49.0496 20.7244 48.7852 20.6875 48.7723C19.8381 48.4499 19.281 48.2016 19.0163 48.0275C18.7517 47.8534 18.5516 47.6116 18.4162 47.3021L17.9915 46.3735C17.9299 46.0511 18.0038 45.7867 18.2131 45.5804C19.8504 44.0327 20.6629 41.937 20.6506 39.2932C20.6506 37.1652 20.152 35.4177 19.1548 34.0506C18.1577 32.6835 16.7727 32 15 32Z" fill="white"/>
</g>
<path d="M15 2C13.2273 2 11.8423 2.68353 10.8452 4.0506C9.84801 5.41766 9.34943 7.16518 9.34943 9.29316C9.33712 11.937 10.1496 14.0327 11.7869 15.5804C11.9962 15.7867 12.0701 16.0511 12.0085 16.3735L11.5838 17.3021C11.4484 17.6116 11.2483 17.8534 10.9837 18.0275C10.719 18.2016 10.1619 18.4499 9.3125 18.7723C9.27557 18.7852 8.49692 19.0496 6.97656 19.5655C5.4562 20.0813 4.64678 20.3651 4.5483 20.4167C3.5142 20.8681 2.83712 21.3388 2.51705 21.8289C2.17235 22.6414 2 24.6984 2 28H28C28 24.6984 27.8277 22.6414 27.483 21.8289C27.1629 21.3388 26.4858 20.8681 25.4517 20.4167C25.3532 20.3651 24.5438 20.0813 23.0234 19.5655C21.5031 19.0496 20.7244 18.7852 20.6875 18.7723C19.8381 18.4499 19.281 18.2016 19.0163 18.0275C18.7517 17.8534 18.5516 17.6116 18.4162 17.3021L17.9915 16.3735C17.9299 16.0511 18.0038 15.7867 18.2131 15.5804C19.8504 14.0327 20.6629 11.937 20.6506 9.29316C20.6506 7.16518 20.152 5.41766 19.1548 4.0506C18.1577 2.68353 16.7727 2 15 2Z" fill="white"/>
<defs>
<filter id="filter0_d" x="1" y="31" width="30" height="30" filterUnits="userSpaceOnUse" color-interpolation-filters="sRGB">
<feFlood flood-opacity="0" result="BackgroundImageFix"/>
<feColorMatrix in="SourceAlpha" type="matrix" values="0 0 0 0 0 0 0 0 0 0 0 0 0 0 0 0 0 0 127 0"/>
<feOffset dx="1" dy="1"/>
<feGaussianBlur stdDeviation="1"/>
<feColorMatrix type="matrix" values="0 0 0 0 0 0 0 0 0 0 0 0 0 0 0 0 0 0 0.15 0"/>
<feBlend mode="normal" in2="BackgroundImageFix" result="effect1_dropShadow"/>
<feBlend mode="normal" in="SourceGraphic" in2="effect1_dropShadow" result="shape"/>
</filter>
</defs>
</svg>
