<svg width="250" height="162" viewBox="0 0 250 162" fill="none" xmlns="http://www.w3.org/2000/svg">
<g opacity="0.4">
<ellipse cx="126.5" cy="151" rx="105.5" ry="11" fill="#3A3768"/>
<path d="M121.098 39.1632C101.099 39.1632 86.7408 52.0932 86.7408 82.2631C86.7408 116.456 101.099 125.507 121.098 125.507C141.096 125.507 156.31 115.594 156.31 82.2631C156.31 46.6338 141.096 39.1632 121.098 39.1632ZM121.229 114.157C107.378 114.157 100.141 105.968 100.141 82.2852C100.141 61.3888 107.674 50.3692 121.525 50.3692C135.377 50.3692 142.909 57.6075 142.909 82.2852C142.909 105.371 135.08 114.157 121.229 114.157Z" fill="#2F2E41"/>
<path d="M74.7659 101.658H66.4974V77.1205C66.4974 75.8172 65.9837 74.5673 65.0692 73.6458C64.1548 72.7242 62.9145 72.2065 61.6212 72.2065H59.6838C59.0434 72.2065 58.4093 72.3336 57.8177 72.5805C57.2261 72.8275 56.6886 73.1894 56.2358 73.6458C55.783 74.1021 55.4238 74.6438 55.1787 75.24C54.9337 75.8362 54.8075 76.4752 54.8075 77.1205V101.658H31.485C31.0052 101.658 30.5336 101.533 30.1158 101.295C29.6981 101.057 29.3484 100.715 29.1008 100.301C28.8531 99.8866 28.7159 99.415 28.7024 98.9317C28.6889 98.4483 28.7996 97.9697 29.0237 97.5422L53.708 50.4599C54.0158 49.8729 54.2023 49.2292 54.2563 48.5675C54.3104 47.9059 54.2309 47.2401 54.0225 46.6102C53.8142 45.9804 53.4814 45.3997 53.0442 44.9031C52.607 44.4065 52.0744 44.0043 51.4788 43.7208L50.0216 43.0273C48.8901 42.4889 47.5965 42.4094 46.4085 42.8053C45.2205 43.2011 44.229 44.0421 43.6391 45.1542L13.5333 101.91C13.0207 102.876 12.7524 103.955 12.7524 105.051C12.7524 105.926 12.9235 106.793 13.2558 107.601C13.588 108.41 14.0751 109.144 14.6891 109.763C15.3031 110.382 16.032 110.873 16.8342 111.207C17.6364 111.542 18.4962 111.715 19.3645 111.715H54.8075V127.231C54.8075 128.004 54.9587 128.77 55.2525 129.485C55.5462 130.199 55.9767 130.849 56.5195 131.396C57.0622 131.943 57.7066 132.377 58.4157 132.673C59.1249 132.969 59.8849 133.121 60.6525 133.121H60.6525C61.4201 133.121 62.1801 132.969 62.8892 132.673C63.5984 132.377 64.2427 131.943 64.7855 131.396C65.3282 130.849 65.7588 130.199 66.0525 129.485C66.3462 128.77 66.4974 128.004 66.4974 127.231V111.715H74.7659C76.0892 111.715 77.3583 111.185 78.2941 110.242C79.2298 109.299 79.7555 108.02 79.7555 106.686C79.7555 105.353 79.2298 104.074 78.2941 103.131C77.3583 102.188 76.0892 101.658 74.7659 101.658Z" fill="#00256C"/>
<path d="M227.875 101.658H219.606V77.1205C219.606 75.8172 219.093 74.5673 218.178 73.6458C217.264 72.7242 216.023 72.2065 214.73 72.2065H212.793C212.152 72.2065 211.518 72.3336 210.927 72.5805C210.335 72.8275 209.798 73.1894 209.345 73.6458C208.892 74.1021 208.533 74.6438 208.288 75.24C208.043 75.8362 207.917 76.4752 207.917 77.1205V101.658H184.594C184.114 101.658 183.643 101.533 183.225 101.295C182.807 101.057 182.457 100.715 182.21 100.301C181.962 99.8866 181.825 99.415 181.811 98.9317C181.798 98.4483 181.909 97.9697 182.133 97.5422L206.817 50.4599C207.125 49.873 207.311 49.2292 207.365 48.5675C207.419 47.9059 207.34 47.2401 207.132 46.6102C206.923 45.9804 206.59 45.3997 206.153 44.9031C205.716 44.4065 205.183 44.0043 204.588 43.7208L203.131 43.0273C201.999 42.4889 200.706 42.4094 199.518 42.8053C198.33 43.2011 197.338 44.0421 196.748 45.1542L166.642 101.91C166.13 102.876 165.862 103.955 165.862 105.051C165.862 106.819 166.558 108.513 167.798 109.763C169.038 111.013 170.72 111.715 172.474 111.715H207.917V127.231C207.917 128.793 208.532 130.291 209.629 131.396C210.725 132.5 212.211 133.121 213.761 133.121C215.312 133.121 216.798 132.5 217.894 131.396C218.991 130.291 219.606 128.793 219.606 127.231V111.715H227.875C229.198 111.715 230.467 111.185 231.403 110.242C232.339 109.299 232.864 108.02 232.864 106.686C232.864 105.353 232.339 104.074 231.403 103.131C230.467 102.188 229.198 101.658 227.875 101.658Z" fill="#00256C"/>
<path d="M109.63 7.30495C111.288 7.30495 112.632 5.95049 112.632 4.27967C112.632 2.60886 111.288 1.25439 109.63 1.25439C107.972 1.25439 106.628 2.60886 106.628 4.27967C106.628 5.95049 107.972 7.30495 109.63 7.30495Z" fill="#2F2E41"/>
<path d="M116.952 21.9886C121.602 21.9886 125.372 17.0663 125.372 10.9943C125.372 4.92232 121.602 0 116.952 0C112.301 0 108.531 4.92232 108.531 10.9943C108.531 17.0663 112.301 21.9886 116.952 21.9886Z" fill="#2F2E41"/>
<path opacity="0.1" d="M116.952 18.6682C112.733 18.6682 109.24 14.6183 108.627 9.33408C108.563 9.88514 108.531 10.4395 108.531 10.9943C108.531 17.0663 112.301 21.9886 116.952 21.9886C121.602 21.9886 125.372 17.0663 125.372 10.9943C125.372 10.4395 125.34 9.88514 125.276 9.33408C124.663 14.6183 121.17 18.6682 116.952 18.6682Z" fill="black"/>
<path d="M134.086 43.1916C133.905 43.9404 133.125 44.5402 132.262 44.9592C130.446 45.8401 128.207 46.103 126.035 46.1913C125.481 46.2252 124.925 46.2149 124.372 46.1603C123.302 46.056 122.298 45.5907 121.522 44.8398C121.466 44.8034 121.421 44.7535 121.39 44.6947C121.359 44.6359 121.343 44.5701 121.344 44.5035C121.345 44.4369 121.363 44.3717 121.396 44.3138C121.429 44.256 121.476 44.2075 121.532 44.1729C122.688 42.8928 124.618 42.1079 126.562 41.5428C128.036 41.1142 130.606 40.0043 132.214 40.1541C133.771 40.2992 134.314 42.2461 134.086 43.1916Z" fill="#3F3D56"/>
<path opacity="0.1" d="M134.086 43.1916C133.905 43.9404 133.125 44.5402 132.262 44.9592C130.446 45.8401 128.207 46.103 126.035 46.1913C125.481 46.2252 124.925 46.2149 124.372 46.1603C123.302 46.056 122.298 45.5907 121.522 44.8398C121.466 44.8034 121.421 44.7535 121.39 44.6947C121.359 44.6359 121.343 44.5701 121.344 44.5035C121.345 44.4369 121.363 44.3717 121.396 44.3138C121.429 44.256 121.476 44.2075 121.532 44.1729C122.688 42.8928 124.618 42.1079 126.562 41.5428C128.036 41.1142 130.606 40.0043 132.214 40.1541C133.771 40.2992 134.314 42.2461 134.086 43.1916Z" fill="black"/>
<path d="M111.003 37.5948C110.449 38.6893 110.349 39.9607 110.724 41.1298C111.106 42.2899 111.821 43.3098 112.779 44.0602C115.128 45.9577 118.36 46.2188 121.371 46.1924C124.009 46.1693 126.643 45.9873 129.26 45.6475C130.137 45.5692 130.999 45.3676 131.82 45.0485C132.803 44.6201 133.666 43.8344 134.016 42.8148C134.366 41.7951 134.117 40.5466 133.287 39.8661C132.557 39.2682 131.55 39.186 130.611 39.1291L125.239 38.8038C125.77 38.2625 126.476 37.9563 127.123 37.5628C127.98 37.0407 128.55 36.1641 129.173 35.3738C130.134 34.2168 131.179 33.1337 132.3 32.1338C132.475 33.1446 133.11 33.9746 133.857 34.672C134.603 35.3694 135.464 35.9309 136.24 36.5949C138.12 38.2032 139.474 40.386 141.451 41.8712C142.811 41.511 144.082 40.8714 145.185 39.9923L144.417 38.5897C144.353 38.4454 144.253 38.32 144.127 38.2256C143.909 38.0907 143.629 38.1602 143.377 38.1221C142.702 38.0201 142.407 37.2347 142.142 36.6008C141.415 34.8604 140.023 33.5102 138.834 32.0507C137.956 30.9733 137.177 29.8177 136.508 28.5982C136.108 27.8709 135.743 27.1136 135.201 26.487C134.658 25.8604 133.899 25.3678 133.074 25.366C132.345 25.3644 131.673 25.7373 131.046 26.1124C129.138 27.2549 127.301 28.5157 125.548 29.8876C124.63 30.6055 123.718 31.3641 122.642 31.8043C122.189 31.9897 121.711 32.1163 121.276 32.3418C120.514 32.7368 119.936 33.4051 119.314 33.9984C117.095 36.1143 114.056 37.4852 111.003 37.5948Z" fill="#3F3D56"/>
<path d="M122.237 22.5346C122.212 23.1814 122.075 23.8188 121.833 24.4184C121.71 24.7175 121.528 24.9878 121.297 25.2126C121.066 25.4375 120.792 25.6119 120.491 25.7252C120.064 25.8405 119.616 25.8551 119.183 25.768C118.804 25.7282 118.44 25.6031 118.116 25.402C117.613 25.053 117.362 24.4302 117.27 23.8207C117.179 23.212 117.22 22.59 117.161 21.9768C117.104 21.4815 117.01 20.9912 116.881 20.5099C116.842 20.3498 116.801 20.1904 116.762 20.031C116.723 19.8716 116.685 19.7123 116.65 19.5529C116.618 19.4031 116.588 19.2526 116.562 19.1013C116.541 18.9737 116.522 18.8453 116.508 18.7161C116.495 18.3333 116.432 17.9539 116.32 17.5879C116.215 17.3506 116.083 17.126 115.927 16.9187C115.861 16.8228 115.796 16.7268 115.737 16.6272C115.565 16.3683 115.486 16.0587 115.511 15.7484C115.518 15.7005 115.529 15.6533 115.545 15.6075C115.551 15.5898 115.557 15.5721 115.565 15.5551C115.631 15.5371 115.691 15.5031 115.741 15.4562C115.791 15.4092 115.829 15.3507 115.851 15.2858C115.876 15.1462 115.864 15.0023 115.817 14.8689C115.762 14.6823 115.687 14.5025 115.593 14.3324C115.532 14.2203 115.323 14.0181 115.322 13.8897C115.319 13.6314 115.82 13.4234 116.022 13.3215C116.642 13.0091 117.332 12.8681 118.023 12.9128C118.466 12.943 118.946 13.0803 119.191 13.4544C119.41 13.7916 119.381 14.2284 119.475 14.6202C119.485 14.6771 119.509 14.7307 119.544 14.7759C119.592 14.8198 119.652 14.8476 119.716 14.8556C119.825 14.8773 119.936 14.8818 120.046 14.8689H120.047C120.076 14.8665 120.104 14.8623 120.133 14.8563C120.304 14.8245 120.466 14.7541 120.606 14.6504C120.697 14.6261 120.788 14.6062 120.881 14.5907C120.884 14.5903 120.888 14.5896 120.892 14.5885C121.258 15.755 121.306 17.0057 121.606 18.1937C121.755 18.7847 121.968 19.3684 121.998 19.9764C122 20.003 122.001 20.0303 122.002 20.0576C122.006 20.2531 121.991 20.4501 121.999 20.6449C122.001 20.7326 122.011 20.82 122.028 20.9061C122.061 21.0447 122.102 21.1812 122.15 21.3149L122.152 21.3215C122.166 21.3643 122.179 21.4079 122.19 21.4514C122.198 21.4831 122.206 21.5141 122.212 21.5459L122.212 21.5481C122.267 21.8741 122.275 22.2063 122.237 22.5346Z" fill="#FBBEBE"/>
<path d="M117.098 14.905C119.484 14.905 121.418 12.9559 121.418 10.5516C121.418 8.14723 119.484 6.19812 117.098 6.19812C114.712 6.19812 112.778 8.14723 112.778 10.5516C112.778 12.9559 114.712 14.905 117.098 14.905Z" fill="#FBBEBE"/>
<path d="M144.524 34.2713C144.399 33.0835 143.98 31.9464 143.306 30.9641C143.418 31.6356 143.53 32.3068 143.643 32.9778C143.503 33.0186 143.354 33.0173 143.215 32.9742C143.076 32.9311 142.952 32.8479 142.859 32.735C142.677 32.5061 142.538 32.2459 142.449 31.9669C141.958 30.7391 141.316 29.5782 140.538 28.5114C137.788 28.2805 135.07 27.1316 132.651 25.7924C130.232 24.4539 127.968 22.849 125.581 21.4537C125.167 21.2016 124.736 20.9797 124.291 20.7896C123.544 20.4878 122.706 20.3314 121.998 19.9764C121.95 19.9528 121.903 19.9277 121.856 19.9019C121.696 19.8142 121.544 19.7117 121.403 19.5957C121.327 19.5333 121.255 19.4663 121.187 19.395C120.833 18.9808 120.553 18.5086 120.358 17.9989C119.978 17.1519 119.843 16.1299 119.464 15.2828C119.638 15.1187 119.834 14.9794 120.046 14.8689H120.047C120.077 14.8526 120.108 14.8372 120.139 14.8224C120.29 14.7512 120.446 14.6936 120.606 14.6505C120.697 14.6261 120.788 14.6062 120.88 14.5907C120.884 14.5903 120.888 14.5896 120.891 14.5885C121.319 14.5182 121.758 14.5532 122.169 14.6903C122.771 14.8954 123.278 15.305 123.784 15.6923C124.606 16.2759 125.395 16.9061 126.146 17.5798C126.563 17.9827 126.944 18.4254 127.393 18.7914C127.766 19.0815 128.159 19.3441 128.569 19.5773C130.998 21.0353 133.427 22.4931 135.856 23.9506C136.678 24.4443 137.501 24.9379 138.305 25.4603C139.526 26.2543 140.704 27.1146 141.88 27.9742C142.574 28.4804 143.267 28.9869 143.96 29.4935C144.187 29.6397 144.387 29.8256 144.549 30.0425C144.693 30.2888 144.782 30.5634 144.811 30.8475C144.984 31.9955 144.886 33.1688 144.524 34.2713Z" fill="#FBBEBE"/>
<path d="M123.308 25.8086C123.016 27.1257 121.695 27.9218 121.005 29.0788C120.147 30.5147 120.497 32.1838 120.819 33.8285C120.23 34.3399 119.641 34.8512 119.052 35.3625C118.727 35.6437 118.402 35.9263 118.052 36.1749C117.542 36.5195 117.008 36.8282 116.456 37.0988C115.935 37.3688 115.413 37.6391 114.892 37.9097C114.407 38.1843 113.894 38.4036 113.361 38.5634C112.334 38.8291 111.243 38.6431 110.226 38.3354C110.107 38.3038 109.991 38.2564 109.884 38.1945C109.82 38.1564 109.765 38.106 109.721 38.0462C109.621 37.8652 109.585 37.6553 109.618 37.4507C109.721 35.727 110.139 34.0395 110.556 32.3646C110.779 31.3597 111.078 30.3737 111.451 29.4153C111.818 28.5941 112.239 27.7988 112.711 27.0349C113.233 26.0738 113.852 25.1691 114.557 24.335C114.9 24.014 115.189 23.6387 115.412 23.2238C115.672 22.6261 115.571 21.9406 115.624 21.2898C115.664 20.8009 115.793 20.3235 116.004 19.8812V19.8805C116.117 19.6423 116.253 19.4159 116.41 19.2046C116.481 19.3714 116.552 19.5379 116.623 19.7041C116.67 19.8133 116.716 19.9223 116.762 20.031C116.822 20.1712 116.882 20.3109 116.941 20.4501C117.111 20.8501 117.282 21.2498 117.452 21.6492C117.636 22.1523 117.897 22.6228 118.228 23.043C118.379 23.2582 118.583 23.4303 118.819 23.5424C119.056 23.6546 119.317 23.7029 119.578 23.6827C119.839 23.6626 120.09 23.5746 120.307 23.4275C120.524 23.2803 120.699 23.0789 120.816 22.8431C121.062 22.4028 121.24 21.9273 121.345 21.433C121.489 20.8311 121.509 20.2057 121.403 19.5957C121.227 18.421 120.731 17.2212 120.371 16.1299C120.224 15.766 120.139 15.3799 120.12 14.9877C120.121 14.9436 120.125 14.8997 120.133 14.8563C120.135 14.8453 120.137 14.8335 120.14 14.8224C120.29 14.7512 120.446 14.6936 120.606 14.6505C120.697 14.6261 120.788 14.6062 120.881 14.5907C121.198 16.3203 121.515 18.0498 121.833 19.7794C121.84 19.82 121.848 19.8606 121.856 19.9019C121.901 20.1498 121.947 20.3978 121.999 20.6449C122.045 20.8693 122.094 21.0928 122.15 21.3149L122.152 21.3216C122.171 21.3968 122.191 21.4714 122.212 21.5459L122.212 21.5481C122.269 21.7518 122.332 21.9539 122.403 22.1532C122.833 23.3537 123.584 24.5623 123.308 25.8086Z" fill="#00256C"/>
<path d="M140.84 44.318C140.826 44.5718 140.875 44.825 140.981 45.0551C141.252 45.5531 141.901 45.6663 142.462 45.7129C145.741 45.9845 149.04 45.8832 152.297 45.4109C152.473 45.3987 152.645 45.3451 152.797 45.2543C153.26 44.9272 152.975 44.1299 152.469 43.8747C151.964 43.6194 151.364 43.6809 150.809 43.5704C150.258 43.4306 149.733 43.2012 149.255 42.8913C148.13 42.2399 147.021 41.5608 145.929 40.8539C145.279 40.4331 144.512 39.984 143.779 40.2335C141.796 40.9098 140.826 42.1615 140.84 44.318Z" fill="#3F3D56"/>
<path d="M116.667 19.4607V19.4614C116.662 19.4924 116.657 19.5226 116.65 19.5529C116.642 19.6031 116.632 19.654 116.623 19.7041C116.532 20.1727 116.421 20.639 116.293 21.1024C115.941 22.3826 115.47 23.6422 115.003 24.8833C113.75 28.2111 112.496 31.5391 111.242 34.8674C110.926 35.7056 110.61 36.5446 110.251 37.3659C110.131 37.6396 110.007 37.9156 109.884 38.1945C109.443 39.1928 109.02 40.2236 108.879 41.2862C108.748 41.9855 108.733 42.7018 108.835 43.4061C108.975 44.1026 109.395 44.7829 110.051 45.0405C110.372 45.1666 110.831 45.3356 110.743 45.6713C110.696 45.8558 110.488 45.9458 110.301 45.9768C110.055 46.0164 109.802 46.0009 109.563 45.9312C109.323 45.8616 109.101 45.7396 108.913 45.574C108.562 45.2604 108.293 44.7726 107.826 44.7202C107.503 44.6848 107.206 44.8796 106.91 45.0161C105.704 45.5717 104.298 45.1829 103.031 44.7881C103.13 44.2709 103.646 43.93 104.157 43.8267C104.669 43.7226 105.199 43.7964 105.721 43.7824C105.888 43.7914 106.054 43.7484 106.196 43.6592C106.323 43.5413 106.412 43.3876 106.452 43.2179C106.788 42.2138 107.038 41.1824 107.2 40.1351C107.368 39.0408 107.438 37.9296 107.678 36.8486C107.865 36.0052 108.154 35.1884 108.401 34.3605C108.88 32.6559 109.273 30.9281 109.578 29.1836C109.733 28.4588 109.844 27.7253 109.91 26.9869C109.952 26.3745 109.932 25.7591 109.991 25.1489C110.089 24.355 110.253 23.5708 110.482 22.8047C110.706 21.9687 110.93 21.1332 111.153 20.2981C111.485 19.0622 111.841 17.7783 112.681 16.8176C112.973 16.4794 113.331 16.2052 113.733 16.012C114.134 15.8188 114.57 15.7108 115.015 15.6946C115.182 15.6943 115.348 15.7124 115.511 15.7484C115.538 15.7551 115.565 15.7617 115.592 15.7691C115.769 15.8158 115.94 15.8868 116.098 15.9801C116.357 15.8141 116.489 15.8724 116.661 16.1284C116.812 16.3994 116.883 16.7081 116.866 17.0183C116.88 17.8371 116.814 18.6553 116.667 19.4607Z" fill="#FBBEBE"/>
<path d="M116.952 20.4391L116.941 20.4501L116.881 20.5099L116.293 21.1024L116.004 19.8812L115.015 15.6946C115.182 15.6943 115.348 15.7124 115.511 15.7484C115.518 15.7005 115.529 15.6533 115.545 15.6075L115.592 15.7691L115.927 16.9187L116.562 19.1013L116.667 19.4607V19.4614L116.952 20.4391Z" fill="#00256C"/>
<path d="M120.687 7.08244C120.687 7.47011 120.61 7.85388 120.463 8.21182C120.315 8.56975 120.099 8.89483 119.826 9.16848C119.727 9.26808 119.622 9.36028 119.51 9.44433C119.004 9.82818 118.389 10.0359 117.756 10.0362H114.243C113.467 10.035 112.723 9.72344 112.175 9.1699C111.626 8.61636 111.318 7.8661 111.318 7.08388C111.318 6.30166 111.626 5.55141 112.175 4.99786C112.723 4.44432 113.467 4.13274 114.243 4.13153H117.756C118.532 4.13357 119.276 4.44503 119.825 4.99791C120.375 5.55079 120.684 6.30018 120.687 7.08244Z" fill="#2F2E41"/>
<path d="M123.981 7.30495C125.639 7.30495 126.983 5.95049 126.983 4.27967C126.983 2.60886 125.639 1.25439 123.981 1.25439C122.323 1.25439 120.979 2.60886 120.979 4.27967C120.979 5.95049 122.323 7.30495 123.981 7.30495Z" fill="#2F2E41"/>
<path opacity="0.1" d="M123.907 1.25439C123.871 1.25439 123.834 1.25587 123.798 1.25719C124.574 1.28564 125.309 1.61654 125.849 2.18025C126.388 2.74397 126.69 3.49656 126.69 4.27968C126.69 5.06279 126.388 5.81538 125.849 6.37909C125.309 6.94281 124.574 7.2737 123.798 7.30215C123.834 7.30348 123.871 7.30495 123.907 7.30495C124.704 7.30495 125.467 6.98622 126.03 6.41887C126.593 5.85152 126.909 5.08203 126.909 4.27968C126.909 3.47732 126.593 2.70783 126.03 2.14048C125.467 1.57313 124.704 1.25439 123.907 1.25439Z" fill="black"/>
<path opacity="0.1" d="M109.63 1.25439C109.667 1.25439 109.703 1.25587 109.74 1.25719C108.963 1.28564 108.228 1.61654 107.688 2.18025C107.149 2.74397 106.847 3.49656 106.847 4.27968C106.847 5.06279 107.149 5.81538 107.688 6.37909C108.228 6.94281 108.963 7.2737 109.74 7.30215C109.703 7.30348 109.667 7.30495 109.63 7.30495C108.834 7.30425 108.071 6.9852 107.509 6.41793C106.946 5.85065 106.63 5.08157 106.63 4.27968C106.63 3.47778 106.946 2.70869 107.509 2.14142C108.071 1.57415 108.834 1.2551 109.63 1.25439Z" fill="black"/>
<path opacity="0.1" d="M119.51 9.44434C119.004 9.82818 118.389 10.0359 117.756 10.0362H114.243C113.611 10.0359 112.995 9.82818 112.49 9.44434H119.51Z" fill="black"/>
<path d="M142.193 31.3653C142.193 31.3653 142.95 33.5629 143.643 32.9777L143.091 30.1052L142.193 31.3653Z" fill="#FBBEBE"/>
<path d="M111.911 79.9903C114.096 79.9903 115.867 77.6806 115.867 74.8314C115.867 71.9822 114.096 69.6725 111.911 69.6725C109.726 69.6725 107.955 71.9822 107.955 74.8314C107.955 77.6806 109.726 79.9903 111.911 79.9903Z" fill="#2F2E41"/>
<path d="M133.435 80.1076C135.62 80.1076 137.391 77.7978 137.391 74.9487C137.391 72.0995 135.62 69.7897 133.435 69.7897C131.25 69.7897 129.479 72.0995 129.479 74.9487C129.479 77.7978 131.25 80.1076 133.435 80.1076Z" fill="#2F2E41"/>
<path d="M130.41 90.1909C130.41 92.5218 127.18 94.4119 123.197 94.4119C119.213 94.4119 115.983 92.5218 115.983 90.1909C115.983 88.1719 118.406 86.4835 121.642 86.0708C122.158 86.0023 122.677 85.9686 123.197 85.97C124.068 85.9672 124.936 86.0615 125.786 86.2514C128.49 86.8587 130.41 88.3947 130.41 90.1909Z" fill="#2F2E41"/>
<path d="M112.842 78.8178C115.027 78.8178 116.798 76.5081 116.798 73.6589C116.798 70.8097 115.027 68.5 112.842 68.5C110.657 68.5 108.886 70.8097 108.886 73.6589C108.886 76.5081 110.657 78.8178 112.842 78.8178Z" stroke="#3F3D56" stroke-miterlimit="10"/>
<path d="M134.366 78.9351C136.55 78.9351 138.322 76.6254 138.322 73.7762C138.322 70.927 136.55 68.6173 134.366 68.6173C132.181 68.6173 130.41 70.927 130.41 73.7762C130.41 76.6254 132.181 78.9351 134.366 78.9351Z" stroke="#3F3D56" stroke-miterlimit="10"/>
<path d="M124.127 93.2394C128.111 93.2394 131.341 91.3496 131.341 89.0184C131.341 86.6873 128.111 84.7975 124.127 84.7975C120.144 84.7975 116.914 86.6873 116.914 89.0184C116.914 91.3496 120.144 93.2394 124.127 93.2394Z" stroke="#3F3D56" stroke-miterlimit="10"/>
<path d="M125.873 86.6031C125.874 86.898 125.765 87.1825 125.565 87.3985C125.471 87.502 125.357 87.5848 125.23 87.6416C125.102 87.6984 124.965 87.7281 124.825 87.7287H122.499C122.212 87.7186 121.941 87.5946 121.745 87.3837C121.548 87.1727 121.443 86.8921 121.451 86.6031C121.45 86.3745 121.517 86.1507 121.642 85.9603C122.157 85.8873 122.677 85.8513 123.197 85.8527C124.069 85.8498 124.938 85.9506 125.786 86.1529C125.844 86.2959 125.873 86.4488 125.873 86.6031Z" fill="white"/>
<path d="M112.842 73.4244C113.485 73.4244 114.005 72.8995 114.005 72.252C114.005 71.6044 113.485 71.0795 112.842 71.0795C112.199 71.0795 111.679 71.6044 111.679 72.252C111.679 72.8995 112.199 73.4244 112.842 73.4244Z" fill="white"/>
<path d="M134.482 73.4244C135.125 73.4244 135.646 72.8995 135.646 72.252C135.646 71.6044 135.125 71.0795 134.482 71.0795C133.84 71.0795 133.319 71.6044 133.319 72.252C133.319 72.8995 133.84 73.4244 134.482 73.4244Z" fill="white"/>
</g>
</svg>
