<svg width="30" height="60" viewBox="0 0 30 60" fill="none" xmlns="http://www.w3.org/2000/svg">
<path d="M15 50L9 45L15 40" stroke="white" stroke-width="2" stroke-linecap="round" stroke-linejoin="round"/>
<path d="M10 45H21" stroke="white" stroke-width="2" stroke-linecap="round" stroke-linejoin="round"/>
<path d="M28 45C28 37.8229 22.1771 32 15 32C7.82292 32 2 37.8229 2 45C2 52.1771 7.82292 58 15 58C22.1771 58 28 52.1771 28 45Z" stroke="white" stroke-width="2" stroke-miterlimit="10"/>
<path d="M15 20L9 15L15 10" stroke="black" stroke-width="2" stroke-linecap="round" stroke-linejoin="round"/>
<path d="M10 15H21" stroke="black" stroke-width="2" stroke-linecap="round" stroke-linejoin="round"/>
<path d="M28 15C28 7.82292 22.1771 2 15 2C7.82292 2 2 7.82292 2 15C2 22.1771 7.82292 28 15 28C22.1771 28 28 22.1771 28 15Z" stroke="black" stroke-width="2" stroke-miterlimit="10"/>
</svg>
