<svg width="28" height="28" viewBox="0 0 28 28" fill="none" xmlns="http://www.w3.org/2000/svg">
<path opacity="0.8" d="M11.6002 2.416C11.7563 2.59393 11.852 2.81167 11.8748 3.04111C11.8977 3.27055 11.8466 3.50112 11.7282 3.70305C10.8031 5.29533 10.32 7.08014 10.3233 8.89327C10.3233 14.925 15.5682 19.8092 22.0323 19.8092C22.8756 19.8092 23.6964 19.7267 24.4852 19.5692C24.727 19.5201 24.9789 19.5389 25.2094 19.6232C25.4398 19.7075 25.6387 19.8536 25.7812 20.0432C25.9316 20.2404 26.0083 20.4787 25.9993 20.7209C25.9903 20.9632 25.8962 21.1959 25.7316 21.3828C24.4767 22.828 22.8936 23.9924 21.0977 24.7912C19.3018 25.59 17.3384 26.0029 15.3506 26C7.9745 26 2 20.4288 2 13.5645C2 8.39825 5.38246 3.96706 10.1985 2.08899C10.4384 1.99393 10.7048 1.97442 10.9575 2.03339C11.2103 2.09235 11.4358 2.22662 11.6002 2.416Z" fill="white"/>
</svg>
