<svg width="24" height="24" viewBox="0 0 24 24" fill="none" xmlns="http://www.w3.org/2000/svg">
<path opacity="0.8" d="M9.60016 0.416C9.75635 0.593926 9.85203 0.811675 9.87485 1.04111C9.89767 1.27055 9.84657 1.50112 9.72817 1.70305C8.80313 3.29533 8.32004 5.08014 8.32334 6.89327C8.32334 12.925 13.5682 17.8092 20.0323 17.8092C20.8756 17.8092 21.6964 17.7267 22.4852 17.5692C22.727 17.5201 22.9789 17.5389 23.2094 17.6232C23.4398 17.7075 23.6387 17.8536 23.7812 18.0432C23.9316 18.2404 24.0083 18.4787 23.9993 18.7209C23.9903 18.9632 23.8962 19.1959 23.7316 19.3828C22.4767 20.828 20.8936 21.9924 19.0977 22.7912C17.3018 23.59 15.3384 24.0029 13.3506 24C5.9745 24 0 18.4288 0 11.5645C0 6.39825 3.38246 1.96706 8.19854 0.0889866C8.43845 -0.00606957 8.70477 -0.0255794 8.95751 0.0333878C9.21025 0.092355 9.43576 0.226615 9.60016 0.416Z" fill="white"/>
</svg>
