<svg width="200" height="200" viewBox="0 0 200 200" fill="none" xmlns="http://www.w3.org/2000/svg">
<rect width="200" height="200" fill="#222326"/>
<path fill-rule="evenodd" clip-rule="evenodd" d="M65.3355 52.7612V127.3C60.3649 127.016 55.3939 127.852 50.7887 129.746C37.7599 135.019 30.2267 146.532 33.9527 155.437C37.7274 164.366 51.3164 167.291 64.3371 162.01C74.3461 157.947 80.2314 150.229 81.1162 142.819L81.0594 70.6281L138.386 59.5863V111.408C133.008 110.915 127.591 111.743 122.606 113.821C109.577 119.102 102.052 130.615 105.786 139.52C109.544 148.441 123.133 151.374 136.162 146.093C146.171 142.023 153.128 134.304 154.029 126.902L154.118 35L65.3355 52.7612Z" fill="#3E3E40"/>
</svg>
