<svg width="1011" height="725" viewBox="0 0 1011 725" fill="none" xmlns="http://www.w3.org/2000/svg">
<path opacity="0.2" d="M587.409 119.546C522.658 117.138 460.988 94.7195 402.1 70.1829C343.211 45.6464 284.873 18.4823 221.722 5.48477C181.073 -2.87724 134.59 -4.0661 101.835 19.3116C70.2693 41.85 60.0843 80.6429 54.6417 116.668C50.5197 143.783 48.0985 172.315 59.384 197.691C67.2178 215.314 81.1345 230.12 90.7592 246.994C124.245 305.718 100.574 378.139 64.2864 435.474C47.2781 462.368 27.5286 488.024 14.3922 516.656C1.25588 545.289 -4.84706 578.097 6.61848 607.309C18.004 636.282 45.1471 658.001 74.5513 673.247C134.27 704.307 204.614 713.208 273.257 718.204C425.151 729.353 577.865 724.527 730.168 719.692C786.526 717.904 843.143 716.086 898.59 706.705C929.385 701.509 961.17 693.267 983.521 673.376C1011.9 648.131 1018.94 605.371 999.919 573.712C968.023 520.602 879.861 507.405 857.54 450.41C845.274 419.039 857.87 384.093 875.709 355.001C913.957 292.58 978.088 237.823 981.46 166.471C983.781 117.518 952.956 68.4046 905.293 45.2168C855.329 20.91 786.055 23.9671 749.217 64.1986C711.279 105.789 644.577 121.684 587.409 119.546Z" fill="#BCC0C7"/>
<path d="M901.371 338.786C906.864 339.665 912.967 341.783 915.068 346.918C916.648 350.805 915.428 355.171 915.068 359.347C914.912 360.447 914.953 361.567 915.188 362.653C915.784 364.375 916.778 365.932 918.089 367.199C919.766 368.929 921.176 370.899 922.271 373.043C922.812 374.123 923.116 375.304 923.164 376.51C923.213 377.716 923.004 378.918 922.551 380.037C922.204 380.599 921.969 381.223 921.861 381.875C921.791 383.304 923.282 384.203 924.382 385.112C928.504 388.519 928.324 394.723 928.384 400.098C928.457 411.027 930.901 421.811 935.548 431.707C933.811 432.588 931.848 432.925 929.917 432.673C927.985 432.422 926.175 431.594 924.722 430.299C925.297 432.735 926.122 435.105 927.184 437.372C923.692 439.06 919.49 436.283 917.749 432.836C916.008 429.39 915.748 425.363 914.547 421.707C913.347 418.05 911.056 414.824 910.055 411.137C909.862 409.891 909.438 408.692 908.805 407.6C908.176 406.863 907.433 406.233 906.604 405.732C902.985 403.122 900.274 399.447 898.85 395.222C894.578 396.221 890.226 397.11 885.843 396.721C881.461 396.331 877.049 394.353 874.758 390.637C873.758 388.998 873.187 387.11 872.247 385.432C871.096 383.374 869.396 381.685 868.105 379.707C865.043 375.032 864.483 369.027 865.724 363.572C866.964 358.118 869.866 353.192 873.297 348.777C879.931 340.275 890.976 337.118 901.371 338.786Z" fill="#3F3D56"/>
<path d="M936.008 407.291C936.318 409.289 936.689 411.207 937.139 413.155C937.633 415.396 938.265 417.605 939.03 419.769C939.468 420.705 939.67 421.734 939.62 422.766C939.485 423.41 939.238 424.026 938.89 424.584C936.378 429.03 932.997 433.326 932.707 438.421C932.637 439.69 932.707 441.058 932.026 442.107C930.085 437.951 927.948 433.895 925.613 429.939C923.172 425.803 920.461 421.627 919.76 416.872C919.482 414.64 919.509 412.382 919.84 410.158C920.022 407.634 920.856 405.2 922.262 403.095C923.912 400.937 928.465 397.67 931.406 398.339C934.858 399.178 935.568 404.503 936.008 407.291Z" fill="#F86D70"/>
<path d="M889.545 623.294C889.816 627.48 889.996 631.996 887.705 635.503C886.884 636.771 885.774 637.83 884.833 639.019C884.302 639.614 883.954 640.35 883.833 641.137C883.693 642.666 885.133 643.984 886.654 644.264C888.195 644.427 889.753 644.204 891.186 643.615C892.577 643.27 893.885 642.656 895.038 641.807C897.039 640.118 897.559 637.311 897.96 634.733L898.89 628.739C899.172 627.302 899.287 625.837 899.23 624.373C899.038 622.762 898.645 621.181 898.06 619.668L896.519 615.172C896.416 614.737 896.178 614.345 895.838 614.053C895.479 613.866 895.07 613.793 894.668 613.843C893.197 613.913 889.485 614.453 888.775 616.001C888.125 617.4 889.445 621.716 889.545 623.294Z" fill="#EE8E9E"/>
<path d="M856.58 499.263C856.574 499.299 856.574 499.336 856.58 499.373C856.663 499.968 856.853 500.543 857.14 501.071C858.394 503.827 859.127 506.791 859.301 509.813C859.286 510.559 859.384 511.303 859.591 512.021C859.906 512.701 860.284 513.35 860.722 513.959C862.052 516.127 862.363 518.734 862.813 521.242C863.387 524.493 864.241 527.688 865.364 530.793C866.895 535.019 868.956 539.354 868.255 543.78C867.99 544.825 867.855 545.899 867.855 546.977C868.047 548.17 868.472 549.314 869.106 550.344C869.626 551.343 870.106 552.402 870.517 553.461C870.927 554.52 871.367 555.769 871.707 556.938C872.117 558.376 872.397 560.075 871.447 561.224C871.152 561.503 870.893 561.819 870.677 562.163C870.497 562.687 870.497 563.257 870.677 563.781C871.217 566.059 871.797 568.333 872.417 570.605C872.898 572.383 873.418 574.151 873.928 575.92C877.79 588.847 882.152 601.645 884.743 614.882C885.114 616.79 887.555 618.159 889.456 618.569C890.408 618.773 891.396 618.749 892.337 618.497C893.278 618.245 894.146 617.773 894.868 617.12C895.005 617.007 895.132 616.884 895.249 616.75C897.249 614.613 897.52 611.336 897.38 608.378C896.709 594.752 889.836 582.283 886.564 569.036C885.384 564.251 884.673 559.363 884.443 554.44C883.673 537.986 883.373 520.602 888.025 504.807C889.025 501.521 890.136 497.814 888.395 494.817C887.295 492.959 885.264 491.82 883.253 491.061C879.141 489.454 874.749 488.685 870.335 488.798C865.921 488.911 861.574 489.905 857.55 491.72C857.529 492.053 857.529 492.386 857.55 492.719C857.725 494.251 857.547 495.802 857.03 497.255C856.756 497.89 856.604 498.571 856.58 499.263V499.263Z" fill="#3F3D56"/>
<path opacity="0.05" d="M871.457 561.234C872.457 560.085 872.127 558.386 871.717 556.958C871.557 556.418 871.397 555.889 871.217 555.359L884.313 550.943C884.313 552.112 884.413 553.281 884.463 554.45C884.694 559.376 885.404 564.268 886.584 569.056C889.856 582.293 896.729 594.762 897.399 608.379C897.549 611.516 897.219 615.022 894.898 617.14C894.171 617.789 893.302 618.258 892.359 618.508C891.417 618.758 890.429 618.782 889.476 618.579C887.585 618.169 885.133 616.8 884.763 614.892C882.172 601.655 877.76 588.857 873.948 575.93C872.747 571.933 871.664 567.884 870.696 563.781C870.522 563.259 870.522 562.695 870.696 562.173C870.91 561.829 871.165 561.514 871.457 561.234V561.234Z" fill="black"/>
<path d="M907.654 613.174C908.655 614.952 910.265 616.531 910.505 618.569C910.503 619.808 910.426 621.045 910.275 622.275C910.326 623.294 910.511 624.302 910.826 625.272C912.093 629.868 913.56 634.404 915.228 638.879C915.501 639.455 915.621 640.092 915.578 640.728C915.421 641.237 915.14 641.701 914.762 642.077C914.383 642.453 913.918 642.731 913.407 642.886C910.295 644.214 906.774 644.124 903.402 643.985C902.418 644.034 901.44 643.806 900.581 643.325C899.37 642.496 899.07 640.857 898.99 639.399C898.76 635.153 899.48 630.887 898.99 626.661C898.83 625.123 898.5 623.604 898.26 622.085C897.809 619.969 897.878 617.776 898.46 615.692C899.038 614.241 899.845 612.892 900.851 611.695C901.742 610.39 902.872 609.264 904.182 608.379C904.583 608.139 905.713 607.379 906.113 607.869C906.323 608.099 906.233 608.718 906.263 609.008C906.314 609.452 906.391 609.892 906.493 610.327C906.743 611.326 907.134 612.285 907.654 613.174V613.174Z" fill="#EE8E9E"/>
<path d="M919.51 475.436C920.23 477.723 920.871 480.031 921.411 482.359C921.657 483.161 921.722 484.007 921.601 484.837C921.312 485.585 921.065 486.349 920.861 487.124C920.741 488.353 921.591 489.432 922.071 490.581C923.282 493.498 921.991 496.785 920.721 499.672L916.929 508.234L913.827 515.228C912.907 517.316 911.986 519.404 911.096 521.512C907.051 531.106 903.708 541.022 901.172 551.119C901.014 551.749 898.781 556 898.781 556C898.781 556 897.99 559.271 897.99 560.394C897.549 565.539 901.411 570.505 903.402 575.27C907.974 586.26 907.144 598.568 908.725 610.337L906.944 609.338C905.233 610.117 905.293 612.535 904.383 614.163C903.002 616.621 899.63 616.97 896.819 616.78C895.943 616.777 895.078 616.579 894.288 616.201C893.901 616 893.585 615.685 893.383 615.3C893.181 614.914 893.102 614.475 893.157 614.043C895.809 602.055 887.154 589.816 881.211 579.077C880.316 577.332 876.062 572.61 874.758 571.144C872.127 567.987 871.757 563.531 871.967 559.425C872.387 549.764 874.939 540.314 879.441 531.752C878.97 528.755 880.131 525.508 880.681 522.561C881.21 519.299 881.962 516.078 882.932 512.92C883.523 511.151 884.243 509.423 884.683 507.615C884.861 507.127 884.931 506.607 884.89 506.09C884.848 505.573 884.696 505.071 884.443 504.618C883.998 504.098 883.41 503.72 882.752 503.529C880.106 502.629 877.368 502.025 874.588 501.73L856.199 499.093C855.609 495.317 855.009 491.101 855.419 487.324C855.861 483.805 857.33 480.492 859.643 477.799C861.955 475.107 865.009 473.152 868.425 472.179C868.809 472.021 869.224 471.952 869.638 471.978C870.053 472.004 870.456 472.124 870.816 472.329C887.044 469.154 903.819 470.224 919.51 475.436Z" fill="#3F3D56"/>
<path d="M902.802 376.14C902.532 377.933 902.811 379.764 903.602 381.395C904.146 382.291 904.855 383.074 905.693 383.703C907.469 385.136 909.539 386.159 911.756 386.7C913.057 387.03 914.518 387.25 915.378 388.289C916.669 389.847 915.808 392.195 914.708 393.894C912.807 396.891 910.156 399.538 906.764 400.457C904.053 401.197 901.151 400.747 898.38 401.227C896.379 401.576 894.478 402.405 892.497 402.875C889.669 403.529 886.722 403.466 883.926 402.689C881.129 401.912 878.572 400.448 876.489 398.429C879.431 396.171 882.492 393.764 884.023 390.377C885.098 387.956 885.3 385.237 884.593 382.684C883.883 380.177 882.292 377.689 882.792 375.171C883.293 372.654 885.794 370.856 888.305 369.986C890.563 369.29 892.886 368.821 895.238 368.588C896.529 368.408 904.763 366.59 905.243 367.489C905.533 367.998 903.822 370.995 903.612 371.655C903.13 373.104 902.857 374.614 902.802 376.14V376.14Z" fill="#A1616A"/>
<path opacity="0.05" d="M902.802 376.14C902.532 377.933 902.811 379.764 903.602 381.395C904.146 382.291 904.855 383.074 905.693 383.703C907.469 385.136 909.539 386.159 911.756 386.7C913.057 387.03 914.518 387.25 915.378 388.289C916.669 389.847 915.808 392.195 914.708 393.894C912.807 396.891 910.156 399.538 906.764 400.457C904.053 401.197 901.151 400.747 898.38 401.227C896.379 401.576 894.478 402.405 892.497 402.875C889.669 403.529 886.722 403.466 883.926 402.689C881.129 401.912 878.572 400.448 876.489 398.429C879.431 396.171 882.492 393.764 884.023 390.377C885.098 387.956 885.3 385.237 884.593 382.684C883.883 380.177 882.292 377.689 882.792 375.171C883.293 372.654 885.794 370.856 888.305 369.986C890.563 369.29 892.886 368.821 895.238 368.588C896.529 368.408 904.763 366.59 905.243 367.489C905.533 367.998 903.822 370.995 903.612 371.655C903.13 373.104 902.857 374.614 902.802 376.14V376.14Z" fill="black"/>
<path d="M892.447 382.135C901.669 382.135 909.145 374.67 909.145 365.461C909.145 356.252 901.669 348.787 892.447 348.787C883.225 348.787 875.749 356.252 875.749 365.461C875.749 374.67 883.225 382.135 892.447 382.135Z" fill="#A1616A"/>
<path d="M901.261 393.024L889.946 394.923C887.16 395.488 884.325 395.773 881.482 395.772C879.931 395.622 878.37 395.622 876.82 395.772C875.749 395.952 874.729 396.361 873.648 396.491C872.327 396.661 870.987 396.411 869.646 396.581C867.185 396.891 865.164 398.579 863.293 400.217C861.102 402.116 858.751 404.344 858.591 407.211C858.548 407.549 858.593 407.893 858.721 408.21C858.936 408.558 859.223 408.858 859.561 409.089C861.642 410.787 862.813 413.335 864.293 415.583C865.82 417.897 867.72 419.943 869.916 421.637C870.416 421.317 871.357 422.157 871.137 422.696C870.917 423.235 870.386 423.625 870.206 424.185C869.806 425.463 871.387 426.402 872.037 427.581C872.688 428.76 872.367 430.239 872.437 431.577C872.507 432.916 873.108 434.505 873.308 436.003C873.758 439.47 873 442 872.5 443.5C872 444.5 870.5 450 870.5 450C870 452.5 866.345 477.717 868.966 478.143C871.395 478.71 873.853 479.143 876.329 479.442C878.622 479.632 880.923 479.702 883.223 479.652L898.37 479.592C902.622 479.592 906.884 479.592 911.136 479.272C915.138 479.012 919.14 478.513 922.992 479.552C923.472 478.742 922.702 477.803 922.231 476.984C921.689 475.875 921.392 474.662 921.361 473.428L920.411 463.347C920.219 461.963 920.192 460.561 920.331 459.171C920.541 457.683 921.101 456.274 921.391 454.805C921.941 451.978 921.391 449.061 921.571 446.184C921.762 443.645 922.204 441.132 922.892 438.681L925.893 426.343C926.248 424.251 926.743 422.185 927.374 420.158C929.675 414.231 932.093 408.356 934.627 402.535C934.723 402.282 934.761 402.011 934.739 401.741C934.716 401.472 934.634 401.211 934.497 400.977L931.996 396.491C931.325 395.22 930.559 394.001 929.705 392.845C927.588 390.174 924.593 388.338 921.251 387.66C917.905 387.013 914.439 387.528 911.426 389.118C910.256 389.738 909.175 390.507 907.985 391.116C905.974 392.115 903.522 393.174 901.261 393.024Z" fill="#F86D70"/>
<path d="M875.949 355.96C877.489 353.562 879.484 351.489 881.822 349.856C884.933 347.528 888.525 345.6 892.417 345.38C894.042 345.293 895.667 345.559 897.179 346.159C897.259 341.444 898.43 338.317 901.371 338.786C906.864 339.665 912.967 341.783 915.068 346.918C916.649 350.805 915.428 355.17 915.068 359.346C914.912 360.447 914.953 361.567 915.188 362.653C915.784 364.375 916.778 365.932 918.089 367.199C919.766 368.929 921.176 370.899 922.271 373.043C922.812 374.123 923.116 375.304 923.164 376.51C923.213 377.716 923.004 378.918 922.551 380.037C922.204 380.599 921.969 381.223 921.861 381.875C921.791 383.304 923.282 384.203 924.382 385.112C928.504 388.519 928.324 394.723 928.384 400.098C928.457 411.027 930.901 421.811 935.548 431.707C933.811 432.588 931.848 432.925 929.917 432.673C927.986 432.422 926.175 431.594 924.722 430.299C925.297 432.735 926.122 435.105 927.184 437.372C923.692 439.06 919.49 436.283 917.749 432.836C916.008 429.39 915.748 425.363 914.547 421.707C913.347 418.05 911.056 414.823 910.055 411.137C909.862 409.891 909.438 408.692 908.805 407.6C908.177 406.863 907.433 406.233 906.604 405.732C903.012 403.155 908.304 383.633 906.904 379.447C904.813 379.897 900.971 369.826 898.78 359.586C897.255 360.114 895.627 360.278 894.028 360.066C893.47 359.941 892.897 359.901 892.327 359.946C891.801 360.056 891.3 360.259 890.846 360.545C889.232 361.541 887.543 362.409 885.794 363.143C882.172 364.492 878.18 364.312 874.328 364.142C873.809 361.308 874.388 358.383 875.949 355.96V355.96Z" fill="#3F3D56"/>
<path d="M931.606 436.902C931.507 437.785 931.602 438.679 931.886 439.521C932.169 440.364 932.634 441.134 933.247 441.778C933.941 442.448 934.722 443.022 935.568 443.486C936.397 444.032 937.343 444.374 938.329 444.485C939.66 444.442 940.924 443.891 941.861 442.947C944.772 440.399 946.223 436.623 947.564 433.006C949.502 428.268 950.947 423.344 951.876 418.31C952.696 412.885 952.346 407.261 953.877 401.996C952.496 399.238 951.615 396.201 950.045 393.544C949.049 391.959 948.167 390.307 947.403 388.599C945.941 384.962 945.775 380.934 946.933 377.189C946.66 377.009 946.336 376.92 946.008 376.937C945.681 376.953 945.367 377.073 945.112 377.279C944.614 377.709 944.235 378.259 944.012 378.878C943.109 380.991 942.735 383.292 942.921 385.581C943.033 386.134 942.966 386.708 942.731 387.22C942.518 387.481 942.245 387.685 941.934 387.816C941.624 387.946 941.286 387.999 940.95 387.969C939.55 387.906 938.163 387.658 936.828 387.23C932.685 386.173 928.393 385.819 924.132 386.181C923.272 386.201 922.426 386.405 921.651 386.78C921.267 386.972 920.945 387.268 920.72 387.633C920.496 387.999 920.378 388.42 920.38 388.848L930.525 390.337C931.292 390.379 932.033 390.632 932.666 391.066C932.966 391.296 933.163 391.633 933.217 392.006C933.272 392.38 933.178 392.759 932.956 393.064C932.74 393.242 932.505 393.396 932.256 393.524C932.002 393.725 931.798 393.982 931.66 394.275C931.522 394.568 931.454 394.889 931.462 395.212C931.47 395.536 931.553 395.853 931.704 396.139C931.856 396.425 932.072 396.672 932.336 396.861C932.596 396.973 932.83 397.136 933.027 397.34C933.447 397.9 932.896 398.629 932.716 399.338C932.64 399.833 932.716 400.34 932.934 400.791C933.152 401.242 933.501 401.617 933.937 401.866C934.821 402.339 935.778 402.66 936.768 402.815C938.766 403.28 940.711 403.95 942.571 404.813C943.177 405.028 943.704 405.422 944.082 405.942C944.26 406.4 944.335 406.89 944.304 407.38C944.273 407.87 944.136 408.348 943.902 408.779L941.261 415.892C940.84 417.011 940.43 418.12 939.91 419.199C939.24 420.588 938.409 421.897 937.719 423.285C937.098 424.587 936.547 425.921 936.068 427.282C934.717 430.888 932.066 433.056 931.606 436.902Z" fill="#A1616A"/>
<path d="M494.685 161.905V496.995C483.491 493.398 471.797 491.597 460.038 491.66C410.144 491.66 369.624 526.916 369.624 576.739C369.624 626.561 410.144 661.428 460.038 661.428C509.932 661.428 550.702 624.743 550.702 571.514V338.816H813.829V496.995C802.636 493.397 790.941 491.596 779.182 491.66C729.288 491.66 688.769 526.916 688.769 576.739C688.769 626.561 729.288 661.428 779.182 661.428C829.076 661.428 869.846 624.743 869.846 571.514V161.905H494.685ZM813.839 286.786H550.712V217.852H813.839V286.786Z" fill="#336198"/>
<path d="M228.556 124.941V349.826C212.307 340.465 193.418 336.722 174.821 339.177C156.224 341.632 138.958 350.147 125.703 363.402C112.448 376.657 103.945 393.91 101.513 412.484C99.0814 431.058 102.857 449.914 112.254 466.126C121.651 482.339 136.145 495 153.485 502.146C170.825 509.293 190.042 510.524 208.155 505.649C226.268 500.775 242.263 490.067 253.658 475.187C265.053 460.307 271.211 442.087 271.177 423.355V210.159H356.618V124.941H228.556Z" fill="#336198"/>
<path d="M102.535 143.443L102.825 145.621L112.28 146.96C112.28 146.96 113.05 146.38 114.281 145.591C116.522 144.122 120.283 141.934 123.485 141.315C128.437 140.316 144.185 133.273 139.113 132.813C134.04 132.353 134.56 133.402 134.56 133.402C134.56 133.402 128.968 127.918 123.195 132.933C118.813 136.739 109.188 140.835 104.796 142.584C103.395 143.133 102.535 143.443 102.535 143.443Z" fill="#EFB7B9"/>
<path d="M140.303 118.407C141.749 117.801 143.276 117.411 144.836 117.248C145.615 117.168 146.403 117.255 147.147 117.503C147.891 117.751 148.573 118.154 149.148 118.687C149.758 119.316 150.148 120.125 150.748 120.765C153.63 123.842 159.222 121.544 162.694 123.932C164.825 125.41 165.486 128.197 166.246 130.685C167.006 133.173 168.387 135.9 170.928 136.43C172.159 136.547 173.401 136.5 174.62 136.29C175.232 136.193 175.858 136.254 176.439 136.468C177.021 136.681 177.538 137.039 177.942 137.509C179.122 139.297 177.491 142.284 179.202 143.563C180.733 144.692 183.504 143.113 184.575 144.682C184.78 145.102 184.855 145.574 184.789 146.037C184.723 146.5 184.519 146.933 184.205 147.279C183.569 147.959 182.987 148.687 182.464 149.457C182.186 149.984 182.056 150.577 182.089 151.172C182.121 151.766 182.315 152.341 182.648 152.835C182.982 153.329 183.443 153.724 183.983 153.977C184.523 154.23 185.122 154.332 185.715 154.273C186.796 154.163 187.946 153.553 188.887 154.083C189.181 154.278 189.426 154.54 189.6 154.847C189.773 155.154 189.872 155.498 189.887 155.851C189.955 157.047 189.558 158.222 188.779 159.132C188 160.043 186.899 160.617 185.705 160.736C183.864 160.856 182.174 159.857 180.533 159.018C178.892 158.179 176.961 157.469 175.26 158.169C174.478 158.549 173.762 159.051 173.139 159.657C171.191 161.291 168.987 162.594 166.616 163.514C164.535 164.333 162.114 164.822 160.113 163.803C157.862 162.655 156.701 159.857 154.32 159.008C151.939 158.159 149.218 159.747 146.937 161.096C144.655 162.445 141.604 163.574 139.543 161.915C137.322 160.127 138.002 156.54 136.652 154.033C136.104 153.094 135.364 152.28 134.481 151.645C132.96 150.476 131.229 149.597 129.698 148.448C128.092 147.367 126.934 145.741 126.437 143.872C125.986 141.605 127.067 139.337 128.298 137.379C129.528 135.421 130.959 133.502 131.359 131.235C131.659 129.536 131.359 127.768 131.749 126.089C132.025 125.082 132.546 124.159 133.265 123.401C133.984 122.642 134.879 122.073 135.871 121.744C136.992 121.364 137.192 121.464 137.762 120.475C138.015 119.971 138.373 119.526 138.811 119.169C139.249 118.813 139.758 118.553 140.303 118.407Z" fill="#3F3D56"/>
<g opacity="0.1">
<path opacity="0.1" d="M178.212 138.198C178.449 139.178 178.51 140.193 178.392 141.195C178.145 140.216 178.084 139.199 178.212 138.198V138.198Z" fill="black"/>
<path opacity="0.1" d="M182.494 149.637C182.316 149.98 182.201 150.352 182.154 150.736C181.972 150.288 181.889 149.807 181.909 149.324C181.93 148.842 182.054 148.369 182.274 147.939C182.796 147.172 183.379 146.447 184.015 145.771C184.232 145.465 184.4 145.128 184.515 144.772L184.595 144.862C184.8 145.28 184.875 145.749 184.811 146.21C184.747 146.671 184.546 147.103 184.235 147.449C183.598 148.132 183.016 148.863 182.494 149.637V149.637Z" fill="black"/>
<path opacity="0.1" d="M129.498 146.96C131.029 148.118 132.75 148.958 134.27 150.166C135.157 150.798 135.897 151.613 136.441 152.554C137.792 155.062 137.112 158.648 139.333 160.437C141.394 162.095 144.455 160.976 146.736 159.617C149.018 158.259 151.619 156.62 154.11 157.529C156.601 158.439 157.652 161.176 159.913 162.325C161.914 163.324 164.325 162.844 166.416 162.035C168.783 161.113 170.983 159.81 172.929 158.179C173.556 157.575 174.271 157.07 175.05 156.68C176.761 155.991 178.692 156.68 180.333 157.539C181.973 158.399 183.664 159.378 185.495 159.258C186.55 159.141 187.534 158.672 188.287 157.927C189.041 157.182 189.52 156.203 189.647 155.152C189.765 155.432 189.839 155.728 189.867 156.031C189.946 157.227 189.558 158.408 188.784 159.324C188.009 160.241 186.91 160.822 185.715 160.946C183.884 161.066 182.184 160.067 180.553 159.238C178.922 158.409 176.981 157.689 175.27 158.379C174.494 158.768 173.779 159.27 173.149 159.867C171.203 161.502 169.003 162.808 166.636 163.734C164.555 164.543 162.124 165.032 160.133 164.023C157.872 162.874 156.721 160.077 154.33 159.228C151.939 158.379 149.228 159.957 146.957 161.316C144.685 162.675 141.614 163.793 139.553 162.125C137.332 160.337 138.012 156.76 136.662 154.243C136.114 153.306 135.374 152.496 134.49 151.865C132.98 150.696 131.249 149.817 129.718 148.658C128.109 147.579 126.946 145.953 126.447 144.082C126.369 143.688 126.335 143.286 126.347 142.883C126.941 144.54 128.044 145.966 129.498 146.96Z" fill="black"/>
</g>
<path d="M208.036 250.551C208.036 250.551 212.798 253.008 217.231 255.855C220.412 257.854 223.424 260.121 224.404 261.79C226.765 265.786 238.241 270.122 238.241 270.122L249.626 278.774C252.308 279.663 254.919 282.92 255.989 284.378C256.309 284.818 257.5 286 260 286.5C262.5 287 264 288 266 286C268 284 267 281.5 267 281.5C267 281.5 264.669 277.402 258 274.5C252.898 272.252 244.424 264.567 244.424 264.567C244.424 264.567 232.298 249.442 228.666 248.942C228.277 248.883 227.895 248.786 227.526 248.652C223.834 247.364 218.521 242.608 218.521 242.608L208.036 250.551Z" fill="#EFB7B9"/>
<path d="M161.003 294.279C162.214 301.542 167.726 315.429 169.497 318.326C171.698 321.912 172.849 329.095 172.849 329.095L173.499 334.091C173.621 334.775 173.865 335.431 174.22 336.029C174.414 336.374 174.628 336.707 174.86 337.028C174.86 337.028 176.5 339.5 179 340C181.5 340.5 183.006 339.5 183.5 338.5C183.994 337.5 183.994 334.221 183.994 334.221C183.994 334.221 184 332.5 182.664 329.715C181.863 327.307 180.663 324.28 179.522 323.161C177.291 320.973 176.961 313.251 176.961 313.251C176.961 313.251 175.1 298.405 174.53 296.537C173.999 294.753 173.664 292.917 173.529 291.062C173.439 290.063 173.379 288.924 173.369 287.635C173.18 283.94 172.699 280.265 171.928 276.646L161.273 278.574L160.993 290.472C160.687 291.723 160.691 293.03 161.003 294.279Z" fill="#EFB7B9"/>
<path d="M135.911 157.999L138.913 170.987L139.523 173.664L145.036 174.363L150.718 175.083L156.901 172.845C156.901 172.845 158.622 166.97 157.201 162.565C156.754 160.996 155.733 159.652 154.34 158.798C153.908 158.54 153.508 158.231 153.149 157.879C152.738 157.462 152.4 156.979 152.149 156.45C151.848 155.799 151.668 155.098 151.619 154.382C151.309 150.876 153.53 147.039 153.53 147.039C153.53 147.039 140.423 142.574 141.444 145.461C142.114 147.329 140.263 150.586 138.883 152.644C138.132 153.753 137.522 154.522 137.522 154.522L135.911 157.999Z" fill="#EFB7B9"/>
<path d="M147.687 152.574C153.975 152.574 159.072 147.484 159.072 141.205C159.072 134.926 153.975 129.836 147.687 129.836C141.399 129.836 136.301 134.926 136.301 141.205C136.301 147.484 141.399 152.574 147.687 152.574Z" fill="#EFB7B9"/>
<path d="M136.731 201.218C137.272 203.725 139.733 207.672 139.733 207.672L155.63 211.568L166.986 199.699V199.619C166.636 198.51 162.304 184.514 165.435 181.067C168.717 177.48 167.436 167.36 167.436 167.36C167.436 167.36 161.763 160.846 160.613 159.268C159.462 157.689 152.099 156.45 152.099 156.45C152.469 156.95 152.809 157.45 153.099 157.879C153.895 159.059 154.505 160.352 154.91 161.715C155.385 163.074 155.332 164.561 154.76 165.881C154.586 166.22 154.455 166.579 154.37 166.95C153.129 172.375 147.466 171.616 145.215 171.076C144.635 170.937 144.275 170.817 144.275 170.817L138.862 170.987L135.461 171.096C135.461 171.096 137.011 197.851 136.641 199.979C136.595 200.394 136.626 200.814 136.731 201.218Z" fill="#F86D70"/>
<path d="M141.184 201.697L154.28 201.218V187.551C152.723 186.114 150.942 184.939 149.007 184.074C146.596 183.235 143.725 180.597 144.655 173.354C144.994 171.435 144.853 169.462 144.246 167.609C143.638 165.757 142.583 164.083 141.174 162.734L140.973 162.565L138.842 152.654C138.174 152.711 137.526 152.913 136.943 153.246C136.361 153.579 135.858 154.035 135.471 154.582C135.24 154.99 134.976 155.377 134.68 155.741C134.424 156.181 134.009 156.507 133.52 156.652C133.031 156.797 132.505 156.75 132.049 156.52C130.668 155.911 124.726 153.403 123.395 155.861C122.064 158.319 121.814 172.955 121.814 172.955C123.78 174.565 125.138 176.795 125.666 179.279C126.577 183.465 128.097 183.565 128.097 183.565L129.738 195.553C129.738 195.553 131.229 198.161 130.118 199.599" fill="#444053"/>
<path d="M91.4496 157.539C91.4496 157.539 102.165 165.662 108.808 166.97C108.808 166.97 118.153 169.728 121.814 172.965L125.816 157.559L123.365 155.871C123.365 155.871 120.434 157.679 117.912 157.08C115.391 156.48 112.6 156.081 112.6 156.081C110.393 155.268 108.12 154.647 105.807 154.223C104.006 154.073 104.736 151.735 106.537 150.496C106.771 150.329 107.022 150.188 107.287 150.077C107.618 150.536 108.106 150.859 108.659 150.984C109.212 151.11 109.792 151.028 110.289 150.756C110.968 150.318 111.564 149.763 112.05 149.117V149.117C112.795 148.173 113.464 147.17 114.051 146.12C114.051 146.12 108.458 144.921 105.676 144.062C104.766 143.783 104.166 143.543 104.146 143.383C104.066 142.744 109.148 140.725 109.148 140.725C109.148 140.725 104.806 138.627 103.045 140.156C103.045 140.156 104.186 141.005 103.265 141.844C102.345 142.684 91.2595 151.205 91.2595 151.205C91.2595 151.205 85.7868 153.893 91.4496 157.539Z" fill="#444053"/>
<path d="M142.014 246.005C144.155 249.172 150.018 262.639 150.018 262.639C151.34 265.03 152.831 267.324 154.48 269.502C156.811 272.43 158.422 279.013 160.193 284.278C161.964 289.543 159.673 288.554 159.923 291.272C160.173 293.989 170.188 290.472 170.188 290.472C170.188 290.472 190.648 285.977 196.901 273.489C203.154 261.001 228.126 249.691 233.178 242.668C238.231 235.645 231.748 238.542 231.998 234.736C232.248 230.929 229.366 227.742 229.366 227.742C229.366 227.742 219.942 225.085 218.411 223.237C216.88 221.388 209.357 216.763 209.357 216.763C209.357 216.763 202.263 213.696 201.353 212.627C200.442 211.558 192.038 208.241 189.467 207.632C186.896 207.022 184.375 203.336 184.375 203.336C184.375 203.336 182.784 203.545 180.433 201.268C178.082 198.99 168.217 197.032 168.217 197.032C151.379 209.42 139.743 207.691 139.743 207.691L139.473 210.029C130.519 221.678 139.873 242.838 142.014 246.005Z" fill="#444053"/>
<path d="M140.113 134.481C141.014 135.071 141.754 136.03 142.834 136.17C143.605 136.19 144.366 136 145.036 135.62C146.826 134.841 148.857 134.242 150.708 134.851C153.35 135.73 154.8 138.767 157.432 139.656C158.243 139.932 159.115 139.98 159.953 139.796C160.455 139.687 160.935 139.495 161.373 139.227C162.403 138.584 163.142 137.566 163.434 136.39C163.611 135.367 163.514 134.316 163.154 133.343C162.794 132.369 162.183 131.508 161.383 130.845C159.763 129.545 157.839 128.675 155.791 128.317C150.508 127.138 145.026 127.538 139.623 127.938C139.179 127.931 138.743 128.049 138.362 128.277C137.552 128.877 136.141 131.954 136.431 132.993C136.832 134.382 139.963 133.323 140.113 134.481Z" fill="#3F3D56"/>
<path d="M209.717 142.843L211.438 149.787L213.669 148.438L225.795 141.135C225.795 141.135 234.979 140.795 235.689 133.422C236.4 126.05 225.484 133.353 224.904 133.912C224.324 134.471 223.003 135.461 223.003 135.461L211.718 141.754L209.717 142.843Z" fill="#EFB7B9"/>
<path d="M150.688 188.13L153.159 202.606L169.697 199.17C169.697 199.17 169.197 193.705 168.047 191.487C166.896 189.269 167.126 180.607 167.126 180.607C174.13 173.075 170.448 166.95 170.448 166.95C170.448 166.95 191.028 163.614 191.378 162.954C191.728 162.295 198.591 158.638 198.591 158.638C198.591 158.638 206.045 156.73 207.055 155.641C207.427 155.235 207.836 154.864 208.276 154.532C208.403 154.436 208.537 154.349 208.676 154.273L209.227 159.018H209.477C210.65 158.881 211.768 158.441 212.718 157.739C214.419 156.44 212.268 142.204 210.617 141.705C210.305 141.624 209.978 141.624 209.667 141.705C208.372 142.114 207.167 142.765 206.115 143.623L205.825 143.853L205.725 143.942C205.725 143.942 196.41 147.589 194.549 149.267C192.689 150.946 178.202 153.074 178.202 153.074C178.202 153.074 171.708 154.612 170.868 153.683C170.028 152.754 160.113 151.235 159.282 152.684C158.452 154.133 156.151 153.873 156.151 153.873C154.52 151.995 153.39 152.724 152.699 153.803C152.302 154.451 152.005 155.155 151.819 155.891C151.819 158.768 153.089 160.656 156.511 162.015C157.031 162.215 157.592 162.415 158.202 162.595C162.924 163.993 163.935 166.811 163.935 166.811C165.589 168.978 166.357 171.692 166.086 174.403C165.635 178.859 150.688 188.13 150.688 188.13Z" fill="#444053"/>
<g opacity="0.1">
<path opacity="0.1" d="M800.843 332.822H537.716V565.539C537.716 618.749 496.946 655.454 447.052 655.454C435.169 655.498 423.373 653.431 412.215 649.349C426.861 657.409 443.336 661.575 460.058 661.448C509.952 661.448 550.722 624.763 550.722 571.534V338.816H800.843V332.822Z" fill="black"/>
<path opacity="0.1" d="M537.695 280.782H550.702V217.832H800.843V211.838H537.695V280.782Z" fill="black"/>
<path opacity="0.1" d="M856.86 161.905V565.519C856.86 618.729 816.09 655.434 766.196 655.434C754.313 655.478 742.517 653.411 731.359 649.329C746.005 657.389 762.48 661.555 779.202 661.428C829.096 661.428 869.866 624.743 869.866 571.514V161.905H856.86Z" fill="black"/>
</g>
<path d="M559.116 69.8233C565.569 83.1405 576.124 98.2861 588.06 92.5016C599.996 86.7171 608.91 62.1806 602.457 48.8433C596.004 35.5061 581.057 29.4419 569.091 35.2263C557.125 41.0108 552.653 56.526 559.116 69.8233Z" fill="#336198"/>
<path d="M545.629 91.8022C551.032 95.2689 557.265 98.6257 563.188 100.404C567.74 101.783 572.102 102.222 575.754 101.063C577.335 100.56 578.789 99.7221 580.016 98.6057C580.847 97.8563 581.571 96.9956 582.167 96.0482C586.399 89.4445 586.319 77.8356 582.967 67.7852C580.626 60.7919 576.744 54.5978 571.632 51.3209C559.166 43.3286 543.238 45.9261 536.054 57.1054C528.871 68.2847 533.163 83.8099 545.629 91.8022Z" fill="#00256C"/>
<path opacity="0.1" d="M545.629 91.8022C551.032 95.2689 557.265 98.6257 563.188 100.404C567.74 101.783 572.102 102.222 575.754 101.063C577.335 100.56 578.789 99.7221 580.016 98.6057C580.847 97.8563 581.571 96.9956 582.167 96.0482C586.399 89.4445 586.319 77.8356 582.967 67.7852C580.626 60.7919 576.744 54.5978 571.632 51.3209C559.166 43.3286 543.238 45.9261 536.054 57.1054C528.871 68.2847 533.163 83.8099 545.629 91.8022Z" fill="#336198"/>
<g opacity="0.1">
<path opacity="0.1" d="M597.684 78.6748C598.218 78.8839 598.795 78.9627 599.365 78.9046C600.226 78.9467 601.066 79.1787 601.826 79.5839C601.446 74.4688 594.443 72.9902 594.443 72.9902C596.164 74.4416 597.313 76.4562 597.684 78.6748V78.6748Z" fill="black"/>
<path opacity="0.1" d="M562.748 97.297C562.878 98.296 563.018 99.385 563.188 100.444C567.74 101.823 572.102 102.262 575.754 101.103C576.564 101.363 577.365 101.743 577.515 102.262C577.578 102.416 577.578 102.588 577.515 102.742C577.449 102.881 577.358 103.007 577.245 103.111C577.128 103.229 577.018 103.352 576.914 103.481C575.794 104.85 576.844 105.199 576.844 105.199C578.435 107.417 583.708 105.04 583.708 105.04C583.708 105.04 585.499 103.501 583.708 102.332C583.551 102.228 583.387 102.135 583.217 102.052C582.625 101.772 582.086 101.39 581.627 100.924C581.467 100.764 581.307 100.594 581.156 100.414C580.718 99.8683 580.342 99.2752 580.036 98.6457C580.868 97.8962 581.591 97.0356 582.187 96.0882C586.419 89.4845 586.339 77.8756 582.987 67.8252C569.981 69.6634 560.957 82.8108 562.748 97.297Z" fill="black"/>
<path opacity="0.1" d="M574.893 126.339C576.286 127.244 577.86 127.834 579.506 128.068C579.641 127.757 579.798 127.457 579.976 127.168L574.073 124.771C574.38 125.276 574.654 125.799 574.893 126.339V126.339Z" fill="black"/>
<path opacity="0.1" d="M576.894 134.951C576.894 134.951 579.236 135.351 579.005 133.243C578.99 133.053 578.956 132.866 578.905 132.683C578.746 132.05 578.699 131.394 578.765 130.745C578.779 130.513 578.809 130.283 578.855 130.056C578.99 129.367 579.205 128.696 579.496 128.058C579.631 127.747 579.788 127.447 579.966 127.158L574.073 124.771C574.375 125.292 574.642 125.833 574.873 126.389C575.184 127.178 575.404 128.048 575.104 128.497C575.012 128.632 574.872 128.728 574.713 128.767C574.561 128.794 574.405 128.794 574.253 128.767C574.087 128.758 573.92 128.758 573.753 128.767C571.982 128.767 572.382 129.766 572.382 129.766C571.702 132.433 576.894 134.951 576.894 134.951Z" fill="black"/>
<path opacity="0.1" d="M574.713 128.767L578.716 130.765C578.716 130.525 578.746 130.295 578.806 130.076C577.755 129.666 576.104 128.937 575.063 128.477C574.984 128.612 574.86 128.714 574.713 128.767V128.767Z" fill="black"/>
<path opacity="0.1" d="M576.894 134.951C576.894 134.951 579.225 135.341 579.005 133.233C578.082 133.147 577.185 132.883 576.364 132.453C575.047 131.597 574.111 130.265 573.753 128.737C571.982 128.737 572.382 129.736 572.382 129.736C571.692 132.433 576.894 134.951 576.894 134.951Z" fill="black"/>
<path opacity="0.1" d="M576.894 134.951C576.894 134.951 579.225 135.341 579.005 133.233C578.082 133.147 577.185 132.883 576.364 132.453C575.047 131.597 574.111 130.265 573.753 128.737C571.982 128.737 572.382 129.736 572.382 129.736C571.692 132.433 576.894 134.951 576.894 134.951Z" fill="black"/>
<path opacity="0.1" d="M597.684 78.6748C598.218 78.8839 598.795 78.9627 599.365 78.9046C600.226 78.9467 601.066 79.1787 601.826 79.5839C601.446 74.4688 594.443 72.9902 594.443 72.9902C596.164 74.4416 597.313 76.4562 597.684 78.6748V78.6748Z" fill="black"/>
</g>
<path d="M564.188 98.1162C565.999 112.802 571.071 130.525 584.268 128.897C597.464 127.268 613.802 106.918 611.991 92.2219C610.18 77.5259 597.984 66.966 584.798 68.5944C571.612 70.2229 562.367 83.4403 564.188 98.1162Z" fill="#2A3E56"/>
<path d="M578.685 130.865C579.298 130.916 579.892 131.098 580.427 131.4C580.962 131.701 581.426 132.115 581.786 132.612C582.146 133.109 582.395 133.678 582.514 134.281C582.633 134.883 582.621 135.503 582.477 136.1C581.597 139.047 577.975 139.976 575.614 141.944C573.253 143.912 572.122 147.059 571.832 150.127C571.582 153.031 571.969 155.955 572.966 158.695C573.963 161.435 575.546 163.925 577.605 165.991C579.726 168.079 582.287 169.678 584.378 171.796C586.779 174.446 588.753 177.452 590.231 180.707C591.566 183.017 592.446 185.56 592.822 188.2C593.172 192.406 591.051 196.432 588.52 199.809C585.989 203.186 582.957 206.243 580.996 209.979C579.668 212.544 578.875 215.351 578.663 218.23C578.452 221.11 578.827 224.002 579.766 226.733C579.88 227.171 580.128 227.562 580.476 227.852C580.566 227.919 580.67 227.966 580.78 227.989C580.89 228.013 581.003 228.013 581.113 227.989C581.223 227.966 581.326 227.919 581.417 227.852C581.507 227.786 581.582 227.7 581.637 227.602" stroke="#444053" stroke-miterlimit="10"/>
<path d="M493.374 524.888L503.379 521.761C506.18 519.663 505.38 517.136 504.109 515.248C503.662 514.642 503.089 514.139 502.43 513.776C501.77 513.412 501.039 513.195 500.287 513.14C499.621 513.029 498.987 512.776 498.427 512.4C497.814 512.032 497.299 511.521 496.926 510.912C496.241 509.747 495.894 508.415 495.925 507.065C495.925 507.065 485.22 503.489 482.139 506.536C481.591 507.09 481.126 507.719 480.758 508.404C479.695 510.556 479.131 512.918 479.107 515.317C479.107 515.317 478.427 518.724 477.386 522.62C476.346 526.517 493.374 524.888 493.374 524.888Z" fill="#2D293D"/>
<path d="M445.321 518.185L455.326 515.058C458.127 512.96 457.327 510.432 456.056 508.554C455.61 507.945 455.036 507.44 454.374 507.076C453.712 506.712 452.978 506.497 452.224 506.446C451.839 506.385 451.464 506.267 451.114 506.096C450.856 505.984 450.608 505.85 450.373 505.697C447.662 504.078 447.832 500.412 447.832 500.412C447.832 500.412 437.137 496.835 434.055 499.882C433.642 500.297 433.276 500.756 432.965 501.251C431.711 503.523 431.044 506.07 431.024 508.664C431.024 508.664 430.334 512.081 429.293 515.967C428.253 519.853 445.321 518.185 445.321 518.185Z" fill="#2D293D"/>
<path d="M431.574 488.054C432.284 489.402 432.876 490.809 433.345 492.26L432.925 503.129C435.506 507.775 449.933 506.816 451.934 504.408C453.935 502 456.276 495.616 454.115 494.417C451.954 493.219 450.373 487.654 450.373 487.654C450.373 487.654 452.694 488.293 456.586 484.037C460.478 479.781 459.748 469.961 459.147 467.593C458.547 465.225 459.548 457.413 459.548 457.413C459.548 457.413 459.618 451.898 460.788 450.16C461.959 448.421 464.7 438.311 464.7 438.311C464.7 438.311 464.83 434.874 466.831 433.156C468.832 431.438 470.333 424.474 470.333 424.474C471.536 422.766 472.105 420.692 471.944 418.61C471.663 415.153 474.565 411.547 474.565 411.547L479.817 396.861L484.66 385.871L486.851 392.515C486.851 392.515 486.951 407.68 486.281 410.827C485.61 413.974 484.46 422.336 484.46 422.336C484.46 422.336 487.001 427.941 485.58 432.577C484.159 437.212 484.19 447.263 484.19 447.263C484.19 447.263 482.189 468.003 483.189 469.691C484.19 471.379 483.929 475.506 483.929 475.506L480.848 488.5V507.315L497.436 509.883C499.029 507.752 500.372 505.446 501.438 503.009C503.839 498.014 502.258 494.5 502.258 494.5C502.258 494.5 498.516 482.079 499.917 481.58C501.318 481.08 501.828 471.589 501.828 471.589C501.828 471.589 505.01 460.41 504.439 457.353C503.869 454.296 507.041 447.113 507.041 447.113L508.341 438.481C511.481 433.679 512.781 427.908 512.003 422.226L512.523 408.879C512.523 408.879 517.376 383.154 518.436 370.096C519.106 361.744 519.437 350.305 519.607 343.172C519.697 339.176 519.727 336.518 519.727 336.518L460.428 328.036C460.226 331.004 459.75 333.947 459.007 336.828C458.277 340.075 457.156 344.261 455.466 349.486C450.603 364.472 452.794 375.851 452.794 375.851L452.604 394.993C452.604 394.993 446.871 407.59 447.802 412.036C448.364 414.663 448.632 417.343 448.602 420.029C448.602 420.029 435.806 447.512 436.737 455.674C437.667 463.837 432.074 476.445 432.074 476.445C432.074 476.445 430.293 485.526 431.574 488.054Z" fill="#3F3D56"/>
<path d="M457.062 206.419L457.903 211.484L457.763 213.722L457.653 215.37L463.375 216.18L464.066 215.011C465.346 212.903 467.978 208.617 468.808 208.017C469.908 207.158 472.34 193.262 470.029 194.031C468.617 194.514 467.437 195.504 466.717 196.808C466.717 196.808 455.361 197.607 457.062 206.419Z" fill="#FFCDD3"/>
<path d="M579.859 210.801L587.792 215.447L588.583 213.948C589.413 212.37 590.654 209.952 591.004 209.123C591.534 207.804 595.006 206.246 595.006 206.246C603.79 198.483 594.005 191.15 594.005 191.15C589.073 180.211 582.56 194.357 582.56 194.357C582.56 194.357 581.449 201.9 582.01 202.439C582.57 202.979 582.5 205.037 582.5 205.037C581.664 206.494 580.951 208.017 580.369 209.593C580.009 210.322 579.859 210.801 579.859 210.801Z" fill="#FFCDD3"/>
<path d="M478.497 237.663C478.497 237.663 517.986 243.657 510.662 240.96C505.57 239.081 503.659 235.735 503.349 232.078C503.261 228.945 503.887 225.833 505.18 222.977C506.212 220.522 507.493 218.179 509.001 215.984C509.001 215.984 479.327 198.161 484.81 213.536C485.656 215.863 486.142 218.305 486.25 220.779C486.338 223.231 485.979 225.678 485.19 228.002C483.89 231.775 481.574 235.118 478.497 237.663V237.663Z" fill="#FFCDD3"/>
<path d="M497.296 224.425C506.358 224.425 513.704 217.09 513.704 208.041C513.704 198.992 506.358 191.657 497.296 191.657C488.234 191.657 480.888 198.992 480.888 208.041C480.888 217.09 488.234 224.425 497.296 224.425Z" fill="#FFCDD3"/>
<path d="M443.83 332.652C443.83 332.652 494.074 343.262 499.567 341.823C505.059 340.385 532.853 343.242 532.853 343.242C545.069 352.113 540.316 339.525 540.316 339.525C540.316 339.525 541.667 333.102 540.316 327.817C539.454 323.942 538.916 320.002 538.706 316.038C538.706 316.038 539.296 307.796 537.855 305.808C536.415 303.82 535.154 289.993 535.154 289.993C535.154 289.993 534.153 280.582 534.354 278.524C534.554 276.466 534.244 270.661 534.244 270.661L532.823 260.961C543.208 259.962 575.373 241.919 575.373 241.919C577.144 235.515 589.44 220.819 589.44 220.819C589.654 219.553 590.024 218.318 590.541 217.142C591.461 214.975 579.225 210.149 579.225 210.149C579.225 210.149 569.551 221.079 567.51 224.026C565.469 226.973 558.625 232.368 558.625 232.368C557.617 232.234 556.59 232.33 555.624 232.648H555.464C553.21 233.437 551.083 234.551 549.151 235.954C546.049 235.763 542.993 236.78 540.627 238.792C540.627 238.792 535.004 237.793 534.003 238.672C533.003 239.551 528.221 238.452 528.221 238.452C528.221 238.452 523.789 228.082 520.507 230.919C517.225 233.757 503.769 233.107 503.769 233.107C502.078 230.66 497.766 228.781 495.085 227.802C492.789 226.933 490.28 226.794 487.901 227.403C486.871 227.655 485.893 228.085 485.01 228.671L476.546 236.334C476.546 236.334 474.315 233.217 474.615 232.538C474.915 231.858 471.913 231.189 471.913 231.189C471.913 231.189 467.911 229.8 466.461 229.331C465.01 228.861 463.509 230.44 463.379 230.58C464.064 228.658 464.377 226.624 464.3 224.585C463.99 221.958 466.141 219.7 466.141 219.7C461.779 207.711 450.503 217.162 450.503 217.162C450.503 217.162 449.012 223.586 450.023 226.104C451.033 228.621 448.622 233.767 448.842 235.155C449.062 236.544 448.152 238.852 448.052 241.469C447.952 244.087 449.142 249.092 449.883 251.32C450.623 253.548 457.046 258.763 457.046 258.763C457.046 258.763 457.156 266.625 459.878 271.281C462.599 275.936 460.208 291.411 460.208 291.411C460.208 291.411 456.986 303.4 453.384 307.136C449.783 310.873 443.83 332.652 443.83 332.652Z" fill="#3F3D56"/>
<path d="M501.158 223.067C500.999 223.934 500.512 224.707 499.797 225.225C499.308 225.446 498.772 225.545 498.236 225.514C493.234 225.634 488.011 225.654 483.459 223.516C482.61 223.177 481.858 222.635 481.268 221.938C480.622 220.812 480.223 219.563 480.098 218.271C479.537 215.794 478.237 213.566 477.336 211.198C475.822 207.214 475.428 202.892 476.196 198.7C476.373 197.403 476.849 196.165 477.586 195.084C478.987 193.245 481.428 192.576 483.239 191.137C485.05 189.699 486.241 187.441 488.362 186.392C490.252 185.393 492.504 185.643 494.565 186.082C498.631 186.93 502.497 188.552 505.95 190.858C507.111 191.627 508.381 192.516 509.762 192.316C510.943 191.984 511.972 191.253 512.673 190.248C513.588 192.525 513.931 194.991 513.674 197.431C513.614 197.788 513.614 198.153 513.674 198.51C513.832 198.942 514.077 199.336 514.394 199.669C515.575 201.148 516.255 203.446 514.984 204.834C514.434 205.454 513.604 205.763 513.063 206.383C512.063 207.492 512.333 209.16 512.303 210.639C512.337 211.153 512.188 211.662 511.883 212.077C511.609 212.306 511.283 212.462 510.933 212.532C510.584 212.602 510.222 212.583 509.882 212.477C509.19 212.243 508.46 212.145 507.731 212.187C506.953 212.417 506.273 212.898 505.8 213.556C503.289 216.383 502.268 219.57 501.158 223.067Z" fill="#3F3D56"/>
<g opacity="0.1">
<path opacity="0.1" d="M480.758 220.679C481.35 221.379 482.106 221.921 482.959 222.258C487.511 224.356 492.724 224.336 497.736 224.256C498.271 224.277 498.805 224.178 499.297 223.966C500.014 223.446 500.501 222.669 500.657 221.798C501.768 218.311 502.788 215.124 505.21 212.277C505.681 211.617 506.361 211.135 507.141 210.908C507.87 210.866 508.6 210.964 509.292 211.198C509.633 211.305 509.995 211.323 510.345 211.251C510.695 211.179 511.021 211.02 511.293 210.789C511.598 210.373 511.747 209.864 511.713 209.35C511.713 207.881 511.503 206.213 512.463 205.104C513.003 204.475 513.834 204.165 514.394 203.555C514.757 203.102 514.989 202.558 515.067 201.983C515.144 201.407 515.064 200.822 514.834 200.289C515.655 201.707 515.975 203.505 514.904 204.674C514.344 205.284 513.514 205.603 512.973 206.223C511.973 207.332 512.253 209 512.223 210.479C512.257 210.993 512.108 211.502 511.803 211.917C511.529 212.146 511.203 212.302 510.853 212.372C510.504 212.442 510.142 212.423 509.802 212.317C509.11 212.085 508.38 211.986 507.651 212.027C506.871 212.254 506.191 212.736 505.72 213.396C503.299 216.243 502.268 219.39 501.168 222.927C501.009 223.794 500.522 224.567 499.807 225.085C499.318 225.306 498.782 225.405 498.246 225.375C493.244 225.494 488.021 225.514 483.469 223.377C482.616 223.04 481.86 222.498 481.268 221.798C480.973 221.389 480.75 220.933 480.608 220.449L480.758 220.679Z" fill="black"/>
<path opacity="0.1" d="M513.593 198.051C513.38 197.803 513.22 197.514 513.123 197.202C513.059 196.848 513.059 196.486 513.123 196.133C513.344 194.118 513.16 192.081 512.583 190.138L512.673 190.038C513.566 192.321 513.892 194.786 513.623 197.221C513.592 197.497 513.581 197.774 513.593 198.051Z" fill="black"/>
</g>
</svg>
