<svg width="70" height="20" viewBox="0 0 70 20" fill="none" xmlns="http://www.w3.org/2000/svg">
<rect x="1" y="1" width="68" height="18" rx="4" stroke="white" stroke-opacity="0.7" stroke-width="2"/>
<path d="M18.6675 10.6162H16.2075V12.6895H19.1187V14H14.6284V6.17969H19.1079V7.49561H16.2075V9.34326H18.6675V10.6162ZM22.481 8.86523L23.5337 6.17969H25.3438L23.5068 10.0576L25.3867 14H23.5552L22.481 11.2661L21.4121 14H19.5806L21.4604 10.0576L19.6182 6.17969H21.4282L22.481 8.86523ZM27.7661 11.25V14H26.187V6.17969H28.8511C29.6245 6.17969 30.2404 6.4196 30.6987 6.89941C31.1606 7.37923 31.3916 8.00228 31.3916 8.76855C31.3916 9.53483 31.1642 10.14 30.7095 10.584C30.2547 11.028 29.6245 11.25 28.8188 11.25H27.7661ZM27.7661 9.93408H28.8511C29.1519 9.93408 29.3846 9.83561 29.5493 9.63867C29.714 9.44173 29.7964 9.15527 29.7964 8.7793C29.7964 8.389 29.7122 8.07926 29.5439 7.8501C29.3757 7.61735 29.1501 7.49919 28.8672 7.49561H27.7661V9.93408ZM34.0288 12.6895H36.8003V14H32.4497V6.17969H34.0288V12.6895ZM39.3623 14H37.7832V6.17969H39.3623V14ZM45.9902 11.395C45.9508 12.2866 45.7002 12.9616 45.2383 13.4199C44.7764 13.8783 44.1247 14.1074 43.2832 14.1074C42.3988 14.1074 41.7202 13.8174 41.2476 13.2373C40.7785 12.6536 40.5439 11.8229 40.5439 10.7451V9.4292C40.5439 8.35498 40.7874 7.52783 41.2744 6.94775C41.7614 6.3641 42.4382 6.07227 43.3047 6.07227C44.1569 6.07227 44.8032 6.31038 45.2437 6.78662C45.6877 7.26286 45.9401 7.94678 46.001 8.83838H44.4165C44.4022 8.28695 44.3162 7.90739 44.1587 7.69971C44.0047 7.48844 43.7201 7.38281 43.3047 7.38281C42.8822 7.38281 42.5832 7.53141 42.4077 7.82861C42.2323 8.12223 42.1392 8.60742 42.1284 9.28418V10.7612C42.1284 11.5382 42.2144 12.0718 42.3862 12.3618C42.5617 12.6519 42.8607 12.7969 43.2832 12.7969C43.6986 12.7969 43.985 12.6966 44.1426 12.4961C44.3001 12.292 44.3896 11.925 44.4111 11.395H45.9902ZM48.6113 14H47.0322V6.17969H48.6113V14ZM54.8418 7.49561H52.9082V14H51.3237V7.49561H49.4224V6.17969H54.8418V7.49561Z" fill="white" fill-opacity="0.7"/>
</svg>
