<svg width="77" height="23" viewBox="0 0 77 23" fill="none" xmlns="http://www.w3.org/2000/svg">
<rect x="1" y="1" width="75" height="21" rx="3" stroke="white" stroke-opacity="0.7" stroke-width="2"/>
<path d="M17.9404 12.6934H14.8096V15.332H18.5146V17H12.7998V7.04688H18.501V8.72168H14.8096V11.0732H17.9404V12.6934ZM22.7939 10.4648L24.1338 7.04688H26.4375L24.0996 11.9824L26.4922 17H24.1611L22.7939 13.5205L21.4336 17H19.1025L21.4951 11.9824L19.1504 7.04688H21.4541L22.7939 10.4648ZM29.5205 13.5V17H27.5107V7.04688H30.9014C31.8857 7.04688 32.6696 7.35221 33.2529 7.96289C33.8408 8.57357 34.1348 9.36654 34.1348 10.3418C34.1348 11.3171 33.8454 12.0872 33.2666 12.6523C32.6878 13.2174 31.8857 13.5 30.8604 13.5H29.5205ZM29.5205 11.8252H30.9014C31.2842 11.8252 31.5804 11.6999 31.79 11.4492C31.9997 11.1986 32.1045 10.834 32.1045 10.3555C32.1045 9.85872 31.9974 9.46452 31.7832 9.17285C31.569 8.87663 31.2819 8.72624 30.9219 8.72168H29.5205V11.8252ZM37.4912 15.332H41.0186V17H35.4814V7.04688H37.4912V15.332ZM44.2793 17H42.2695V7.04688H44.2793V17ZM52.7148 13.6846C52.6647 14.8193 52.3457 15.6784 51.7578 16.2617C51.1699 16.8451 50.3405 17.1367 49.2695 17.1367C48.1439 17.1367 47.2803 16.7676 46.6787 16.0293C46.0817 15.2865 45.7832 14.2292 45.7832 12.8574V11.1826C45.7832 9.81543 46.0931 8.7627 46.7129 8.02441C47.3327 7.28158 48.194 6.91016 49.2969 6.91016C50.3815 6.91016 51.2041 7.21322 51.7646 7.81934C52.3298 8.42546 52.651 9.2959 52.7285 10.4307H50.7119C50.6937 9.72884 50.5843 9.24577 50.3838 8.98145C50.1878 8.71257 49.8255 8.57812 49.2969 8.57812C48.7591 8.57812 48.3786 8.76725 48.1553 9.14551C47.932 9.51921 47.8135 10.1367 47.7998 10.998V12.8779C47.7998 13.8669 47.9092 14.5459 48.1279 14.915C48.3512 15.2842 48.7318 15.4688 49.2695 15.4688C49.7982 15.4688 50.1628 15.3411 50.3633 15.0859C50.5638 14.8262 50.6777 14.359 50.7051 13.6846H52.7148ZM56.0508 17H54.041V7.04688H56.0508V17ZM63.9805 8.72168H61.5195V17H59.5029V8.72168H57.083V7.04688H63.9805V8.72168Z" fill="white" fill-opacity="0.7"/>
</svg>
