<svg width="44" height="88" viewBox="0 0 44 88" fill="none" xmlns="http://www.w3.org/2000/svg">
<g clip-path="url(#clip0)">
<path d="M11.4532 49.9042C11.5329 50.0669 11.6977 50.1699 11.8783 50.1699C12.0588 50.1699 12.2237 50.0669 12.3032 49.9042C12.6034 49.2913 13.392 48.315 14.507 47.6644C15.6046 47.024 16.9871 46.7147 18.5306 47.3451C20.0585 47.969 20.8164 49.2013 20.9705 50.6178C21.1268 52.0546 20.6568 53.681 19.694 54.9917C18.6964 56.3498 16.6758 58.4157 14.8787 60.1633C13.9853 61.0321 13.1554 61.8143 12.5487 62.3793C12.2746 62.6347 12.0462 62.8456 11.8783 63C11.7103 62.8456 11.4819 62.6347 11.2078 62.3793C10.6012 61.8143 9.7712 61.0321 8.8778 60.1633C7.0807 58.4157 5.0601 56.3498 4.06253 54.9917C2.1596 52.4011 2.83507 48.6005 5.909 47.3451C7.456 46.7132 8.6565 47.0297 9.5632 47.6469C10.4956 48.2815 11.1324 49.2491 11.4532 49.9042Z" fill="#D94271" stroke="#D94271" stroke-linecap="round" stroke-linejoin="round"/>
<path d="M31.4532 49.9042C31.5329 50.0669 31.6977 50.1699 31.8782 50.1699C32.0588 50.1699 32.2237 50.0669 32.3032 49.9042C32.6034 49.2913 33.392 48.315 34.507 47.6644C35.6046 47.024 36.9871 46.7147 38.5306 47.3451C40.0585 47.969 40.8164 49.2013 40.9705 50.6178C41.1268 52.0546 40.6568 53.681 39.694 54.9917C38.6964 56.3498 36.6758 58.4157 34.8787 60.1633C33.9853 61.0321 33.1554 61.8143 32.5487 62.3793C32.2746 62.6347 32.0462 62.8456 31.8782 63C31.7103 62.8456 31.4819 62.6347 31.2078 62.3793C30.6012 61.8143 29.7712 61.0321 28.8778 60.1633C27.0807 58.4157 25.0601 56.3498 24.0625 54.9917C22.1596 52.4011 22.8351 48.6005 25.909 47.3451C27.456 46.7132 28.6565 47.0297 29.5632 47.6469C30.4956 48.2815 31.1324 49.2491 31.4532 49.9042Z" fill="#D94271" stroke="#D94271" stroke-linecap="round" stroke-linejoin="round"/>
<g filter="url(#filter0_d)">
<path d="M32.4532 71.9042C32.5329 72.0669 32.6977 72.1699 32.8782 72.1699C33.0588 72.1699 33.2237 72.0669 33.3032 71.9042C33.6034 71.2913 34.392 70.315 35.507 69.6644C36.6046 69.024 37.9871 68.7147 39.5306 69.3451C41.0585 69.969 41.8164 71.2013 41.9705 72.6178C42.1268 74.0546 41.6568 75.681 40.694 76.9917C39.6964 78.3498 37.6758 80.4157 35.8787 82.1633C34.9853 83.0321 34.1554 83.8143 33.5487 84.3793C33.2746 84.6347 33.0462 84.8456 32.8782 85C32.7103 84.8456 32.4819 84.6347 32.2078 84.3793C31.6012 83.8143 30.7712 83.0321 29.8778 82.1633C28.0807 80.4157 26.0601 78.3498 25.0625 76.9917C23.1596 74.4011 23.8351 70.6005 26.909 69.3451C28.456 68.7132 29.6565 69.0297 30.5632 69.6469C31.4956 70.2815 32.1324 71.2491 32.4532 71.9042Z" fill="#D94271"/>
<path d="M32.4532 71.9042C32.5329 72.0669 32.6977 72.1699 32.8782 72.1699C33.0588 72.1699 33.2237 72.0669 33.3032 71.9042C33.6034 71.2913 34.392 70.315 35.507 69.6644C36.6046 69.024 37.9871 68.7147 39.5306 69.3451C41.0585 69.969 41.8164 71.2013 41.9705 72.6178C42.1268 74.0546 41.6568 75.681 40.694 76.9917C39.6964 78.3498 37.6758 80.4157 35.8787 82.1633C34.9853 83.0321 34.1554 83.8143 33.5487 84.3793C33.2746 84.6347 33.0462 84.8456 32.8782 85C32.7103 84.8456 32.4819 84.6347 32.2078 84.3793C31.6012 83.8143 30.7712 83.0321 29.8778 82.1633C28.0807 80.4157 26.0601 78.3498 25.0625 76.9917C23.1596 74.4011 23.8351 70.6005 26.909 69.3451C28.456 68.7132 29.6565 69.0297 30.5632 69.6469C31.4956 70.2815 32.1324 71.2491 32.4532 71.9042Z" stroke="#D94271" stroke-linecap="round" stroke-linejoin="round"/>
</g>
<g filter="url(#filter1_d)">
<path d="M10.4532 71.9042C10.5329 72.0669 10.6977 72.1699 10.8783 72.1699C11.0588 72.1699 11.2237 72.0669 11.3032 71.9042C11.6034 71.2913 12.392 70.315 13.507 69.6644C14.6046 69.024 15.9871 68.7147 17.5306 69.3451C19.0585 69.969 19.8164 71.2013 19.9705 72.6178C20.1268 74.0546 19.6568 75.681 18.694 76.9917C17.6964 78.3498 15.6758 80.4157 13.8787 82.1633C12.9853 83.0321 12.1554 83.8143 11.5487 84.3793C11.2746 84.6347 11.0462 84.8456 10.8783 85C10.7103 84.8456 10.4819 84.6347 10.2078 84.3793C9.6012 83.8143 8.7712 83.0321 7.8778 82.1633C6.0807 80.4157 4.06009 78.3498 3.06253 76.9917C1.1596 74.4011 1.83507 70.6005 4.90904 69.3451C6.456 68.7132 7.6565 69.0297 8.5632 69.6469C9.4956 70.2815 10.1324 71.2491 10.4532 71.9042Z" fill="#D94271"/>
<path d="M10.4532 71.9042C10.5329 72.0669 10.6977 72.1699 10.8783 72.1699C11.0588 72.1699 11.2237 72.0669 11.3032 71.9042C11.6034 71.2913 12.392 70.315 13.507 69.6644C14.6046 69.024 15.9871 68.7147 17.5306 69.3451C19.0585 69.969 19.8164 71.2013 19.9705 72.6178C20.1268 74.0546 19.6568 75.681 18.694 76.9917C17.6964 78.3498 15.6758 80.4157 13.8787 82.1633C12.9853 83.0321 12.1554 83.8143 11.5487 84.3793C11.2746 84.6347 11.0462 84.8456 10.8783 85C10.7103 84.8456 10.4819 84.6347 10.2078 84.3793C9.6012 83.8143 8.7712 83.0321 7.8778 82.1633C6.0807 80.4157 4.06009 78.3498 3.06253 76.9917C1.1596 74.4011 1.83507 70.6005 4.90904 69.3451C6.456 68.7132 7.6565 69.0297 8.5632 69.6469C9.4956 70.2815 10.1324 71.2491 10.4532 71.9042Z" stroke="#D94271" stroke-linecap="round" stroke-linejoin="round"/>
</g>
<path d="M31.4532 5.90418C31.5329 6.06685 31.6977 6.16989 31.8782 6.16989C32.0588 6.16989 32.2237 6.06685 32.3032 5.90418C32.6034 5.29131 33.392 4.315 34.507 3.66443C35.6046 3.02401 36.9871 2.71466 38.5306 3.34504C40.0585 3.96908 40.8164 5.20134 40.9705 6.61783C41.1268 8.05455 40.6568 9.68102 39.694 10.9917C38.6964 12.3498 36.6758 14.4157 34.8787 16.1633C33.9853 17.0321 33.1554 17.8143 32.5487 18.3793C32.2746 18.6347 32.0462 18.8456 31.8782 19C31.7103 18.8456 31.4819 18.6347 31.2078 18.3793C30.6012 17.8143 29.7712 17.0321 28.8778 16.1633C27.0807 14.4157 25.0601 12.3498 24.0625 10.9917C22.1596 8.40109 22.8351 4.60051 25.909 3.34504C27.456 2.71323 28.6565 3.02965 29.5632 3.64689C30.4956 4.28151 31.1324 5.24903 31.4532 5.90418Z" stroke="white" stroke-opacity="0.4" stroke-linecap="round" stroke-linejoin="round"/>
<path d="M11.4532 5.90418C11.5329 6.06685 11.6977 6.16989 11.8783 6.16989C12.0588 6.16989 12.2237 6.06685 12.3032 5.90418C12.6034 5.29131 13.392 4.315 14.507 3.66443C15.6046 3.02401 16.9871 2.71466 18.5306 3.34504C20.0585 3.96908 20.8164 5.20134 20.9705 6.61783C21.1268 8.05455 20.6568 9.68102 19.694 10.9917C18.6964 12.3498 16.6758 14.4157 14.8787 16.1633C13.9853 17.0321 13.1554 17.8143 12.5487 18.3793C12.2746 18.6347 12.0462 18.8456 11.8783 19C11.7103 18.8456 11.4819 18.6347 11.2078 18.3793C10.6012 17.8143 9.7712 17.0321 8.8778 16.1633C7.0807 14.4157 5.0601 12.3498 4.06253 10.9917C2.1596 8.40109 2.83507 4.60051 5.909 3.34504C7.456 2.71323 8.6565 3.02965 9.5632 3.64689C10.4956 4.28151 11.1324 5.24903 11.4532 5.90418Z" stroke="black" stroke-opacity="0.4" stroke-linecap="round" stroke-linejoin="round"/>
<path d="M11.4532 27.9042C11.5329 28.0668 11.6977 28.1699 11.8783 28.1699C12.0588 28.1699 12.2237 28.0668 12.3032 27.9042C12.6034 27.2913 13.392 26.315 14.507 25.6644C15.6046 25.024 16.9871 24.7147 18.5306 25.345C20.0585 25.9691 20.8164 27.2013 20.9705 28.6178C21.1268 30.0546 20.6568 31.681 19.694 32.9917C18.6964 34.3498 16.6758 36.4157 14.8787 38.1633C13.9853 39.0321 13.1554 39.8143 12.5487 40.3793C12.2746 40.6347 12.0462 40.8456 11.8783 41C11.7103 40.8456 11.4819 40.6347 11.2078 40.3793C10.6012 39.8143 9.7712 39.0321 8.8778 38.1633C7.0807 36.4157 5.0601 34.3498 4.06253 32.9917C2.1596 30.4011 2.83507 26.6005 5.909 25.345C7.456 24.7132 8.6565 25.0297 9.5632 25.6469C10.4956 26.2815 11.1324 27.249 11.4532 27.9042Z" stroke="#D94271" stroke-linecap="round" stroke-linejoin="round"/>
<path d="M31.4532 27.9042C31.5329 28.0668 31.6977 28.1699 31.8782 28.1699C32.0588 28.1699 32.2237 28.0668 32.3032 27.9042C32.6034 27.2913 33.392 26.315 34.507 25.6644C35.6046 25.024 36.9871 24.7147 38.5306 25.345C40.0585 25.9691 40.8164 27.2013 40.9705 28.6178C41.1268 30.0546 40.6568 31.681 39.694 32.9917C38.6964 34.3498 36.6758 36.4157 34.8787 38.1633C33.9853 39.0321 33.1554 39.8143 32.5487 40.3793C32.2746 40.6347 32.0462 40.8456 31.8782 41C31.7103 40.8456 31.4819 40.6347 31.2078 40.3793C30.6012 39.8143 29.7712 39.0321 28.8778 38.1633C27.0807 36.4157 25.0601 34.3498 24.0625 32.9917C22.1596 30.4011 22.8351 26.6005 25.909 25.345C27.456 24.7132 28.6565 25.0297 29.5632 25.6469C30.4956 26.2815 31.1324 27.249 31.4532 27.9042Z" stroke="#D94271" stroke-linecap="round" stroke-linejoin="round"/>
</g>
<defs>
<filter id="filter0_d" x="17.5023" y="62.4999" width="30.9977" height="29.0001" filterUnits="userSpaceOnUse" color-interpolation-filters="sRGB">
<feFlood flood-opacity="0" result="BackgroundImageFix"/>
<feColorMatrix in="SourceAlpha" type="matrix" values="0 0 0 0 0 0 0 0 0 0 0 0 0 0 0 0 0 0 127 0"/>
<feOffset/>
<feGaussianBlur stdDeviation="3"/>
<feColorMatrix type="matrix" values="0 0 0 0 0 0 0 0 0 0 0 0 0 0 0 0 0 0 0.6 0"/>
<feBlend mode="normal" in2="BackgroundImageFix" result="effect1_dropShadow"/>
<feBlend mode="normal" in="SourceGraphic" in2="effect1_dropShadow" result="shape"/>
</filter>
<filter id="filter1_d" x="-4.49765" y="62.4999" width="30.9977" height="29.0001" filterUnits="userSpaceOnUse" color-interpolation-filters="sRGB">
<feFlood flood-opacity="0" result="BackgroundImageFix"/>
<feColorMatrix in="SourceAlpha" type="matrix" values="0 0 0 0 0 0 0 0 0 0 0 0 0 0 0 0 0 0 127 0"/>
<feOffset/>
<feGaussianBlur stdDeviation="3"/>
<feColorMatrix type="matrix" values="0 0 0 0 0 0 0 0 0 0 0 0 0 0 0 0 0 0 0.6 0"/>
<feBlend mode="normal" in2="BackgroundImageFix" result="effect1_dropShadow"/>
<feBlend mode="normal" in="SourceGraphic" in2="effect1_dropShadow" result="shape"/>
</filter>
<clipPath id="clip0">
<rect width="44" height="88" fill="white"/>
</clipPath>
</defs>
</svg>
