<svg width="20" height="40" viewBox="0 0 20 40" fill="none" xmlns="http://www.w3.org/2000/svg">
<path d="M9.42154 4.55372C9.50564 4.72476 9.67965 4.83311 9.87024 4.83311C10.0608 4.83311 10.2349 4.72476 10.3189 4.55372C10.6358 3.90931 11.4683 2.88276 12.6454 2.19871C13.8041 1.52533 15.2636 1.20006 16.893 1.86288C18.506 2.51904 19.3061 3.81471 19.4688 5.3041C19.6338 6.81476 19.1376 8.52493 18.1212 9.9031C17.0681 11.3311 14.935 13.5033 13.0378 15.3408C12.0946 16.2543 11.2185 17.0768 10.578 17.6709C10.2887 17.9394 10.0475 18.1612 9.87024 18.3235C9.69297 18.1612 9.45183 17.9394 9.16244 17.6709C8.52203 17.0768 7.64589 16.2543 6.70267 15.3408C4.8055 13.5033 2.67239 11.3311 1.61928 9.9031C-0.389618 7.17913 0.323471 3.18296 3.56862 1.86288C5.20176 1.19855 6.46906 1.53126 7.42632 2.18026C8.41055 2.84754 9.08286 3.86486 9.42154 4.55372Z" stroke="black" stroke-opacity="0.4" stroke-linecap="round" stroke-linejoin="round"/>
<path d="M9.42154 24.5537C9.50564 24.7248 9.67965 24.8331 9.87024 24.8331C10.0608 24.8331 10.2349 24.7248 10.3189 24.5537C10.6358 23.9093 11.4683 22.8828 12.6454 22.1987C13.8041 21.5253 15.2636 21.2001 16.893 21.8629C18.506 22.519 19.3061 23.8147 19.4688 25.3041C19.6338 26.8148 19.1376 28.5249 18.1212 29.9031C17.0681 31.3311 14.935 33.5033 13.0378 35.3408C12.0946 36.2543 11.2185 37.0768 10.578 37.6709C10.2887 37.9394 10.0475 38.1612 9.87024 38.3235C9.69297 38.1612 9.45183 37.9394 9.16244 37.6709C8.52203 37.0768 7.64589 36.2543 6.70267 35.3408C4.8055 33.5033 2.67239 31.3311 1.61928 29.9031C-0.389618 27.1791 0.323471 23.183 3.56862 21.8629C5.20176 21.1985 6.46906 21.5313 7.42632 22.1803C8.41055 22.8475 9.08286 23.8649 9.42154 24.5537Z" fill="#336198" stroke="#336198" stroke-linecap="round" stroke-linejoin="round"/>
</svg>
