<svg width="28" height="28" viewBox="0 0 28 28" fill="none" xmlns="http://www.w3.org/2000/svg">
<path fill-rule="evenodd" clip-rule="evenodd" d="M15.4 1.4C15.4 1.0287 15.2525 0.672601 14.9899 0.41005C14.7274 0.1475 14.3713 0 14 0C13.6287 0 13.2726 0.1475 13.0101 0.41005C12.7475 0.672601 12.6 1.0287 12.6 1.4V2.8C12.6 3.1713 12.7475 3.5274 13.0101 3.78995C13.2726 4.0525 13.6287 4.2 14 4.2C14.3713 4.2 14.7274 4.0525 14.9899 3.78995C15.2525 3.5274 15.4 3.1713 15.4 2.8V1.4ZM5.1898 3.2102C4.92576 2.95518 4.57211 2.81407 4.20504 2.81726C3.83796 2.82045 3.48683 2.96768 3.22725 3.22725C2.96768 3.48683 2.82045 3.83796 2.81726 4.20504C2.81407 4.57211 2.95518 4.92576 3.2102 5.1898L4.6102 6.5898C4.87424 6.84482 5.22789 6.98593 5.59496 6.98274C5.96204 6.97955 6.31317 6.83232 6.57275 6.57275C6.83232 6.31317 6.97955 5.96204 6.98274 5.59496C6.98593 5.22789 6.84482 4.87424 6.5898 4.6102L5.1898 3.2102ZM24.7898 3.2102C24.5273 2.94774 24.1712 2.8003 23.8 2.8003C23.4288 2.8003 23.0727 2.94774 22.8102 3.2102L21.4102 4.6102C21.1552 4.87424 21.0141 5.22789 21.0173 5.59496C21.0204 5.96204 21.1677 6.31317 21.4273 6.57275C21.6868 6.83232 22.038 6.97955 22.405 6.98274C22.7721 6.98593 23.1258 6.84482 23.3898 6.5898L24.7898 5.1898C25.0523 4.92726 25.1997 4.57123 25.1997 4.2C25.1997 3.82877 25.0523 3.47274 24.7898 3.2102ZM14 7C12.1435 7 10.363 7.7375 9.05025 9.05025C7.7375 10.363 7 12.1435 7 14C7 15.8565 7.7375 17.637 9.05025 18.9497C10.363 20.2625 12.1435 21 14 21C15.8565 21 17.637 20.2625 18.9497 18.9497C20.2625 17.637 21 15.8565 21 14C21 12.1435 20.2625 10.363 18.9497 9.05025C17.637 7.7375 15.8565 7 14 7ZM1.4 12.6C1.0287 12.6 0.672601 12.7475 0.41005 13.0101C0.1475 13.2726 0 13.6287 0 14C0 14.3713 0.1475 14.7274 0.41005 14.9899C0.672601 15.2525 1.0287 15.4 1.4 15.4H2.8C3.1713 15.4 3.5274 15.2525 3.78995 14.9899C4.0525 14.7274 4.2 14.3713 4.2 14C4.2 13.6287 4.0525 13.2726 3.78995 13.0101C3.5274 12.7475 3.1713 12.6 2.8 12.6H1.4ZM25.2 12.6C24.8287 12.6 24.4726 12.7475 24.21 13.0101C23.9475 13.2726 23.8 13.6287 23.8 14C23.8 14.3713 23.9475 14.7274 24.21 14.9899C24.4726 15.2525 24.8287 15.4 25.2 15.4H26.6C26.9713 15.4 27.3274 15.2525 27.59 14.9899C27.8525 14.7274 28 14.3713 28 14C28 13.6287 27.8525 13.2726 27.59 13.0101C27.3274 12.7475 26.9713 12.6 26.6 12.6H25.2ZM6.5898 23.3898C6.72351 23.2607 6.83017 23.1062 6.90354 22.9354C6.97691 22.7646 7.01553 22.5809 7.01715 22.395C7.01877 22.2091 6.98334 22.0247 6.91295 21.8527C6.84256 21.6806 6.7386 21.5243 6.60715 21.3928C6.4757 21.2614 6.31939 21.1574 6.14734 21.087C5.97528 21.0167 5.79093 20.9812 5.60504 20.9828C5.41915 20.9845 5.23544 21.0231 5.06463 21.0965C4.89383 21.1698 4.73935 21.2765 4.6102 21.4102L3.2102 22.8102C3.07649 22.9393 2.96983 23.0938 2.89646 23.2646C2.82309 23.4354 2.78446 23.6191 2.78285 23.805C2.78123 23.9909 2.81666 24.1753 2.88705 24.3473C2.95744 24.5194 3.0614 24.6757 3.19285 24.8072C3.3243 24.9386 3.48061 25.0426 3.65266 25.113C3.82472 25.1833 4.00907 25.2188 4.19496 25.2172C4.38085 25.2155 4.56456 25.1769 4.73537 25.1035C4.90617 25.0302 5.06065 24.9235 5.1898 24.7898L6.5898 23.3898ZM23.3898 21.4102C23.1258 21.1552 22.7721 21.0141 22.405 21.0173C22.038 21.0204 21.6868 21.1677 21.4273 21.4273C21.1677 21.6868 21.0204 22.038 21.0173 22.405C21.0141 22.7721 21.1552 23.1258 21.4102 23.3898L22.8102 24.7898C23.0742 25.0448 23.4279 25.1859 23.795 25.1827C24.162 25.1796 24.5132 25.0323 24.7727 24.7727C25.0323 24.5132 25.1796 24.162 25.1827 23.795C25.1859 23.4279 25.0448 23.0742 24.7898 22.8102L23.3898 21.4102ZM15.4 25.2C15.4 24.8287 15.2525 24.4726 14.9899 24.21C14.7274 23.9475 14.3713 23.8 14 23.8C13.6287 23.8 13.2726 23.9475 13.0101 24.21C12.7475 24.4726 12.6 24.8287 12.6 25.2V26.6C12.6 26.9713 12.7475 27.3274 13.0101 27.59C13.2726 27.8525 13.6287 28 14 28C14.3713 28 14.7274 27.8525 14.9899 27.59C15.2525 27.3274 15.4 26.9713 15.4 26.6V25.2Z" fill="white"/>
</svg>
