<svg width="280" height="430" viewBox="0 0 280 430" fill="none" xmlns="http://www.w3.org/2000/svg">
<path d="M278.678 39.8819L278.719 39.8749L272.699 4.45975L239.411 15.1015L244.392 46.7777C242.677 45.6863 240.632 45.2442 238.622 45.5303C236.613 45.8165 234.77 46.8122 233.423 48.3397C232.076 49.8672 231.313 51.8268 231.269 53.8685C231.226 55.9103 231.905 57.901 233.186 59.4851C234.467 61.0691 236.266 62.1434 238.261 62.5158C240.256 62.8882 242.318 62.5345 244.078 61.518C245.839 60.5015 247.182 58.8883 247.869 56.9667C248.556 55.0452 248.542 52.9403 247.829 51.0284L247.859 51.0235L242.514 17.0295L270.509 8.07988L275.268 36.0756C273.511 35.0302 271.441 34.6526 269.432 35.0112C267.422 35.3698 265.607 36.4409 264.315 38.0304C263.023 39.6199 262.34 41.6225 262.389 43.6754C262.438 45.7283 263.216 47.6955 264.583 49.2206C265.949 50.7457 267.814 51.7276 269.838 51.9886C271.862 52.2495 273.912 51.7721 275.616 50.6429C277.32 49.5137 278.566 47.8074 279.128 45.8332C279.69 43.8591 279.53 41.7478 278.678 39.8819Z" fill="#336198"/>
<path d="M47.4109 177.019L47.4519 177.012L41.432 141.597L8.14416 152.239L13.1247 183.915C11.4094 182.824 9.36441 182.381 7.35502 182.668C5.34564 182.954 3.50282 183.95 2.15581 185.477C0.80881 187.005 0.0453972 188.964 0.00196097 191.006C-0.0414753 193.048 0.637903 195.038 1.91871 196.622C3.19952 198.207 4.99831 199.281 6.99369 199.653C8.98907 200.026 11.051 199.672 12.8111 198.655C14.5713 197.639 15.9149 196.026 16.6019 194.104C17.289 192.183 17.2747 190.078 16.5616 188.166L16.5922 188.161L11.2471 154.167L39.2416 145.217L44.0004 173.213C42.244 172.168 40.1736 171.79 38.1643 172.149C36.1551 172.507 34.34 173.578 33.048 175.168C31.756 176.757 31.0727 178.76 31.1218 180.813C31.1709 182.866 31.9492 184.833 33.3157 186.358C34.6822 187.883 36.5464 188.865 38.5705 189.126C40.5945 189.387 42.6444 188.909 44.3488 187.78C46.0532 186.651 47.2992 184.945 47.8609 182.971C48.4227 180.996 48.263 178.885 47.4109 177.019Z" fill="#336198"/>
<path d="M266.996 143.121L267.028 143.127L274.118 106.506L271.306 105.964L265.159 137.712C263.877 136.027 262.044 134.864 259.988 134.432C257.931 134 255.785 134.326 253.933 135.352C252.081 136.378 250.644 138.037 249.878 140.033C249.112 142.029 249.067 144.232 249.751 146.248C250.436 148.263 251.805 149.961 253.615 151.037C255.424 152.113 257.556 152.498 259.629 152.122C261.701 151.746 263.581 150.635 264.93 148.986C266.28 147.337 267.012 145.258 266.996 143.121Z" fill="#336198"/>
<path d="M56.3953 54.6196C56.3987 53.1413 55.9134 51.7038 55.0157 50.5336C54.1181 49.3633 52.8592 48.5268 51.4372 48.1557C50.0151 47.7845 48.5108 47.8999 47.1611 48.4837C45.8115 49.0675 44.6931 50.0864 43.9821 51.3801C43.2711 52.6737 43.008 54.1686 43.2341 55.6293C43.4602 57.09 44.1627 58.4335 45.231 59.4483C46.2993 60.4631 47.6726 61.0915 49.1348 61.2345C50.597 61.3775 52.0649 61.027 53.3074 60.2383L49.5895 83.8839L51.7074 84.2211L55.9961 56.946L55.9724 56.9422C56.2506 56.1998 56.3938 55.4131 56.3953 54.6196Z" fill="#336198"/>
<path d="M95.1304 211.35C95.1304 211.35 83.6272 250.287 80.49 273.438C80.49 273.438 17.7455 358.676 29.2487 395.508C41.4414 432.116 41.4414 429.977 41.4414 429.977C41.4414 429.977 92.9775 429.977 110.51 429.977L96.5 402.5C96.5 402.5 95.3239 402.5 96.5 394.5C96.5 394.5 113.954 329.211 131.731 322.897L193.393 310.182C193.393 310.182 189.247 220.821 174.607 205.036C174.607 205.036 101.405 206.089 95.1304 211.35Z" fill="#2F2E41"/>
<path d="M129.951 313.738L148.015 373.823C148.015 373.823 142.137 393.95 140.046 411.793C137.955 429.637 135.795 429.977 135.795 429.977C135.795 429.977 177.768 429.977 189.457 429.977C197.82 421.741 193.393 310.182 193.393 310.182L168.633 295.208L129.951 313.738Z" fill="#2F2E41"/>
<path d="M104.111 31.2697C114.967 5.49299 142.602 0.624817 142.602 0.624817C142.602 0.624817 169.211 -6.51852 191.433 27.5013C212.146 59.2106 238.856 88.9193 204.982 101.576L196.034 82.6661L194.961 104.428C190.035 105.461 185.057 106.221 180.049 106.706C142.476 110.547 107.058 116.933 106.402 103.269C105.53 85.105 93.665 56.072 104.111 31.2697Z" fill="#2F2E41"/>
<path d="M148.463 81.9142C165.212 81.9142 178.79 68.2511 178.79 51.3967C178.79 34.5424 165.212 20.8793 148.463 20.8793C131.714 20.8793 118.137 34.5424 118.137 51.3967C118.137 68.2511 131.714 81.9142 148.463 81.9142Z" fill="#FFB8B8"/>
<path d="M139.574 70.8648C139.574 70.8648 139.051 101.908 135.914 109.275C132.777 116.641 191.861 103.487 191.861 103.487C191.861 103.487 170.947 88.7543 167.809 68.7601L139.574 70.8648Z" fill="#FFB8B8"/>
<path d="M144.28 96.6468L138.569 92.4199L98.2677 94.5421L89.9018 187.147C89.9018 187.147 65.8497 215.56 95.1305 215.56C124.411 215.56 151.601 201.879 172.515 211.35C193.43 220.821 211.208 111.379 211.208 111.379L179.943 92.4199C179.943 92.4199 166.241 109.275 144.28 96.6468Z" fill="#575A89"/>
<path d="M109.771 171.362L168.332 183.99V197.67L109.771 199.775C109.771 199.775 103.496 175.571 109.771 171.362Z" fill="#FFB8B8"/>
<path d="M109.771 99.8037L98.2677 94.5421C98.2677 94.5421 84.673 97.6991 83.6273 109.275C82.5815 120.85 62.7125 195.565 78.3986 198.722C94.0847 201.879 115 201.879 115 201.879C115 201.879 101.405 182.938 118.137 172.414L105.588 166.1C105.588 166.1 93.0389 137.688 101.405 122.955C109.771 108.222 109.771 99.8037 109.771 99.8037Z" fill="#575A89"/>
<path d="M110.249 21.9051L137.944 7.30634L176.191 13.2784L184.104 48.448L164.406 47.6855L158.903 34.765V47.4724L149.815 47.1206L144.539 26.5498L141.242 48.448L108.93 47.7843L110.249 21.9051Z" fill="#2F2E41"/>
<path d="M178.964 58.2427C182.044 58.2427 184.541 53.8454 184.541 48.4211C184.541 42.9967 182.044 38.5994 178.964 38.5994C175.884 38.5994 173.387 42.9967 173.387 48.4211C173.387 53.8454 175.884 58.2427 178.964 58.2427Z" fill="#FFB8B8"/>
<path d="M179.5 55.374C181.602 55.374 183.306 53.6592 183.306 51.5438C183.306 49.4284 181.602 47.7136 179.5 47.7136C177.398 47.7136 175.694 49.4284 175.694 51.5438C175.694 53.6592 177.398 55.374 179.5 55.374Z" fill="white"/>
<path d="M181.134 52.835C181.476 52.835 181.753 51.9987 181.753 50.9671C181.753 49.9355 181.476 49.0992 181.134 49.0992C180.793 49.0992 180.516 49.9355 180.516 50.9671C180.516 51.9987 180.793 52.835 181.134 52.835Z" fill="#2F2E41"/>
<path d="M181.036 62.6615C180.778 62.6615 180.53 62.5582 180.347 62.3745C180.165 62.1907 180.062 61.9414 180.062 61.6816L179.088 53.8422H182.01V61.6816C182.01 61.8102 181.985 61.9377 181.936 62.0566C181.887 62.1755 181.815 62.2835 181.725 62.3745C181.634 62.4655 181.527 62.5377 181.409 62.5869C181.29 62.6361 181.164 62.6615 181.036 62.6615Z" fill="white"/>
<path d="M223.832 199.29L229.238 193.255C229.648 192.796 229.965 192.261 230.171 191.679C230.376 191.097 230.465 190.48 230.433 189.863C230.401 189.246 230.249 188.642 229.985 188.085C229.721 187.527 229.351 187.027 228.895 186.614L216.188 175.09C215.732 174.677 215.2 174.358 214.622 174.151C214.043 173.945 213.43 173.855 212.817 173.887C212.205 173.919 211.604 174.072 211.05 174.338C210.496 174.604 210 174.976 209.589 175.435L179.935 208.545C179.524 209.004 179.207 209.539 179.002 210.121C178.797 210.703 178.708 211.32 178.74 211.937C178.772 212.554 178.924 213.158 179.188 213.716C179.452 214.273 179.822 214.773 180.278 215.186L192.984 226.71C193.44 227.123 193.973 227.443 194.551 227.649C195.129 227.855 195.742 227.945 196.355 227.913C196.968 227.881 197.569 227.728 198.123 227.462C198.677 227.197 199.173 226.824 199.584 226.365L219.985 203.586L223.832 199.29Z" fill="#3F3D56"/>
<path d="M214.083 193.548C215.746 193.548 217.094 192.192 217.094 190.518C217.094 188.845 215.746 187.488 214.083 187.488C212.42 187.488 211.072 188.845 211.072 190.518C211.072 192.192 212.42 193.548 214.083 193.548Z" fill="#DADADA"/>
<path d="M193.201 188.692C193.201 188.692 228.849 197.374 220.636 209.753C212.422 222.132 179.996 199.506 179.996 199.506L193.201 188.692Z" fill="#FFB8B8"/>
<path d="M201.796 111.379H211.208C211.208 111.379 221.665 122.955 219.574 133.478C217.482 144.002 211.208 193.461 211.208 193.461C211.208 193.461 179.835 222.926 164.149 207.141C148.463 191.356 159.966 176.624 159.966 176.624C159.966 176.624 180.881 193.461 192.384 171.362L201.796 111.379Z" fill="#575A89"/>
<path d="M192.443 183.126L199.646 111.516C199.646 111.516 214.754 66.3087 200.006 65.2007C185.258 64.0928 184.222 108.039 184.222 108.039L158.536 186.398C158.536 186.398 172.632 200.292 192.443 183.126Z" fill="#FFB8B8"/>
<path d="M256.889 257.851L256.922 257.863L266.909 229.914L238.653 223.945L229.429 248.778C228.636 247.29 227.343 246.135 225.782 245.518C224.22 244.901 222.491 244.863 220.904 245.411C219.317 245.959 217.976 247.057 217.119 248.508C216.262 249.959 215.946 251.67 216.227 253.334C216.508 254.998 217.368 256.508 218.654 257.593C219.939 258.678 221.566 259.267 223.243 259.256C224.921 259.245 226.54 258.634 227.811 257.533C229.083 256.431 229.924 254.911 230.183 253.243L230.207 253.252L240.106 226.602L263.869 231.622L255.974 253.716C255.133 252.245 253.796 251.125 252.205 250.561C250.614 249.997 248.875 250.024 247.302 250.639C245.73 251.254 244.429 252.415 243.634 253.913C242.839 255.41 242.604 257.144 242.971 258.801C243.337 260.458 244.282 261.928 245.633 262.944C246.984 263.96 248.652 264.456 250.335 264.341C252.018 264.226 253.604 263.508 254.807 262.318C256.009 261.127 256.748 259.543 256.889 257.851Z" fill="#336198"/>
</svg>
