<svg width="270" height="170" viewBox="0 0 270 170" fill="none" xmlns="http://www.w3.org/2000/svg">
<g opacity="0.05">
<path d="M208.965 121.119L173.601 85.6665C172.449 84.5122 171.018 83.6788 169.447 83.2486C167.876 82.8184 166.22 82.8063 164.643 83.2135C163.066 83.6207 161.623 84.433 160.454 85.5704C159.286 86.7078 158.434 88.1309 157.982 89.6992V89.6993C157.518 91.3122 157.493 93.0205 157.91 94.6464C158.328 96.2722 159.173 97.7559 160.357 98.9431L182.935 121.577L151.424 146.757L151.44 146.781C151.283 146.773 151.127 146.757 150.968 146.757C149.073 146.757 147.22 147.319 145.644 148.373C144.067 149.427 142.838 150.926 142.11 152.68C141.383 154.435 141.19 156.366 141.556 158.229C141.923 160.093 142.831 161.807 144.168 163.153C145.505 164.5 147.21 165.419 149.067 165.795C150.925 166.171 152.852 165.987 154.605 165.266C156.358 164.545 157.859 163.319 158.918 161.744C159.977 160.169 160.547 158.314 160.556 156.414L208.965 121.119Z" fill="#A0616A"/>
<path d="M170.711 133.593C170.711 133.593 143.125 130.741 133.93 137.586L121.833 170H196.627C196.627 170 203.727 154.822 170.711 133.593Z" fill="#2F2E41"/>
<path d="M163.972 62.5864C152.021 62.5864 142.333 52.8744 142.333 40.894C142.333 28.9136 152.021 19.2016 163.972 19.2016C175.922 19.2016 185.61 28.9136 185.61 40.894C185.61 52.8744 175.922 62.5864 163.972 62.5864Z" fill="#A0616A"/>
<path d="M185.218 81.7474C185.218 81.7474 165.125 57.9411 148.684 77.1693C138.106 89.5412 132.511 105.424 132.994 121.711L133.614 142.637L171.518 136.685L185.218 81.7474Z" fill="#CCCCCC"/>
<path d="M156.501 75.6349C157.93 75.6538 159.337 75.9843 160.625 76.6036C161.912 77.223 163.05 78.1162 163.959 79.2211C164.867 80.326 165.525 81.6161 165.885 83.0016C166.246 84.3872 166.301 85.8348 166.047 87.2439L159.23 170H136.508L146.618 84.2502C146.918 81.8698 148.074 79.681 149.87 78.0946C151.665 76.5082 153.977 75.6332 156.37 75.634C156.414 75.634 156.458 75.634 156.501 75.6349Z" fill="#A0616A"/>
<path d="M160.464 44.6468L151.167 33.6671C148.771 30.8375 146.265 27.7554 145.927 24.0595C145.555 20.008 148.013 16.0699 151.374 13.7889C154.734 11.5079 158.861 10.6496 162.907 10.3346C170.412 9.75042 178.309 10.9937 184.478 15.3171C190.647 19.6405 194.684 27.4459 193.179 34.8396C191.995 40.6614 187.63 46.2383 189.327 51.9314C191.183 58.1606 198.795 60.0718 205.009 61.9294C215.441 65.0474 225.401 71.1856 230.868 80.622C236.335 90.0584 236.311 103.07 229.024 111.176C224.305 116.425 217.188 119.08 210.151 119.479C203.114 119.878 196.109 118.217 189.435 115.944C183.289 113.851 177.209 111.159 172.37 106.821C167.531 102.484 164.045 96.2764 164.196 89.7707C164.339 83.5707 167.652 77.9229 169.013 71.8732C170.087 66.8073 169.805 61.5469 168.197 56.6254C166.588 51.7038 163.711 47.2961 159.855 43.8491" fill="#2F2E41"/>
<path d="M175.237 8.79452L169.381 7.64249C168.897 7.54727 168.399 7.54856 167.915 7.64629C167.431 7.74401 166.972 7.93628 166.562 8.21206C166.153 8.48785 165.802 8.84176 165.529 9.25362C165.256 9.66548 165.067 10.1272 164.972 10.6124L156.874 37.8534L170.101 40.4555L178.199 13.2145C178.391 12.2346 178.187 11.2183 177.631 10.3894C177.076 9.56052 176.214 8.98682 175.237 8.79452Z" fill="#336198"/>
<path d="M162.351 53.3101C156.469 53.3101 151.7 48.5295 151.7 42.6323C151.7 36.7351 156.469 31.9545 162.351 31.9545C168.234 31.9545 173.002 36.7351 173.002 42.6323C173.002 48.5295 168.234 53.3101 162.351 53.3101Z" fill="white"/>
<path d="M162.351 48.5644C159.083 48.5644 156.434 45.9085 156.434 42.6323C156.434 39.3561 159.083 36.7002 162.351 36.7002C165.619 36.7002 168.268 39.3561 168.268 42.6323C168.268 45.9085 165.619 48.5644 162.351 48.5644Z" fill="#336198"/>
<path d="M127.676 85.2154L127.693 85.2126L125.195 70L111.38 74.571L113.447 88.1778C112.735 87.7087 111.886 87.519 111.052 87.6417C110.219 87.7648 109.454 88.1925 108.895 88.8486C108.336 89.5047 108.019 90.3464 108.001 91.2235C107.983 92.1006 108.265 92.9556 108.796 93.636C109.328 94.3164 110.074 94.7777 110.903 94.9381C111.731 95.098 112.586 94.9459 113.317 94.5094C114.047 94.0725 114.605 93.3796 114.89 92.5545C115.175 91.7289 115.169 90.8247 114.873 90.0037L114.886 90.0014L112.668 75.3994L124.286 71.5552L126.261 83.5807C125.532 83.1313 124.673 82.9691 123.839 83.1235C123.005 83.2774 122.252 83.7373 121.716 84.4201C121.179 85.1028 120.896 85.9633 120.916 86.845C120.936 87.7267 121.259 88.572 121.827 89.2267C122.394 89.8819 123.167 90.3037 124.007 90.4158C124.847 90.5279 125.698 90.323 126.406 89.8378C127.113 89.3526 127.63 88.6198 127.863 87.7721C128.096 86.924 128.03 86.0171 127.676 85.2154Z" fill="#336198"/>
<path d="M120.773 50.8005L120.788 50.8096L128.754 37.4115L114.967 31.7707L107.71 43.6433C107.459 42.8089 106.919 42.0992 106.187 41.6404C105.454 41.182 104.577 41.0045 103.712 41.1399C102.846 41.2752 102.05 41.7145 101.464 42.3794C100.877 43.0443 100.54 43.8912 100.512 44.7691C100.485 45.647 100.768 46.4985 101.311 47.1718C101.854 47.8447 102.623 48.2953 103.479 48.4432C104.335 48.5908 105.223 48.4262 105.985 47.9787C106.746 47.5307 107.331 46.829 107.635 45.999L107.646 46.0056L115.434 33.2646L127.029 38.0084L120.732 48.5996C120.454 47.769 119.888 47.0736 119.135 46.6394C118.382 46.2047 117.493 46.0597 116.629 46.2308C115.764 46.4018 114.981 46.8777 114.422 47.5716C113.863 48.2656 113.564 49.1323 113.581 50.014C113.597 50.896 113.927 51.7349 114.511 52.3789C115.095 53.0229 115.894 53.4294 116.764 53.5244C117.634 53.6194 118.516 53.397 119.251 52.8976C119.987 52.3978 120.527 51.6539 120.773 50.8005Z" fill="#336198"/>
<path d="M230.067 48.78L230.083 48.7858L235 34.9542L221.089 32L216.549 44.2896C216.158 43.5533 215.522 42.9816 214.753 42.6762C213.984 42.3713 213.133 42.3522 212.352 42.6233C211.571 42.8948 210.91 43.4379 210.488 44.1562C210.067 44.8745 209.911 45.7209 210.049 46.5446C210.187 47.3682 210.611 48.1151 211.244 48.6519C211.877 49.1892 212.677 49.4808 213.503 49.4755C214.329 49.4697 215.126 49.1674 215.752 48.6228C216.378 48.0775 216.792 47.3248 216.92 46.4996L216.931 46.5038L221.805 33.3149L233.503 35.7996L229.617 46.7336C229.202 46.0052 228.544 45.4515 227.761 45.172C226.978 44.8925 226.122 44.9063 225.347 45.2107C224.573 45.515 223.933 46.0899 223.542 46.831C223.15 47.572 223.034 48.4301 223.215 49.25C223.395 50.07 223.86 50.7973 224.526 51.3002C225.19 51.8035 226.012 52.0486 226.84 51.992C227.669 51.9348 228.45 51.5796 229.042 50.9905C229.634 50.4013 229.997 49.6169 230.067 48.78Z" fill="#336198"/>
</g>
</svg>
