<svg width="260" height="160" viewBox="0 0 260 160" fill="none" xmlns="http://www.w3.org/2000/svg">
<g opacity="0.1">
<path d="M201.226 113.994L167.171 80.6273C166.062 79.5409 164.684 78.7565 163.171 78.3516C161.658 77.9467 160.064 77.9353 158.545 78.3186C157.027 78.7018 155.637 79.4663 154.511 80.5368C153.387 81.6073 152.566 82.9467 152.131 84.4228V84.4229C151.684 85.9409 151.66 87.5487 152.062 89.079C152.464 90.6091 153.278 92.0055 154.418 93.1229L176.16 114.425L145.816 138.124L145.831 138.147C145.68 138.139 145.53 138.124 145.377 138.124C143.552 138.124 141.767 138.653 140.25 139.645C138.731 140.637 137.548 142.048 136.847 143.699C136.147 145.351 135.961 147.168 136.313 148.921C136.667 150.676 137.541 152.289 138.828 153.556C140.116 154.824 141.758 155.688 143.546 156.042C145.335 156.396 147.191 156.223 148.879 155.544C150.567 154.866 152.012 153.712 153.032 152.23C154.052 150.747 154.601 149.001 154.61 147.213L201.226 113.994Z" fill="#A0616A"/>
<path d="M164.388 125.735C164.388 125.735 137.824 123.05 128.97 129.493L117.321 160H189.345C189.345 160 196.182 145.715 164.388 125.735Z" fill="#2F2E41"/>
<path d="M157.899 58.9048C146.391 58.9048 137.061 49.7641 137.061 38.4884C137.061 27.2127 146.391 18.072 157.899 18.072C169.406 18.072 178.736 27.2127 178.736 38.4884C178.736 49.7641 169.406 58.9048 157.899 58.9048Z" fill="#A0616A"/>
<path d="M178.358 76.9386C178.358 76.9386 159.009 54.5327 143.177 72.6298C132.991 84.274 127.603 99.2225 128.068 114.551L128.665 134.246L165.165 128.645L178.358 76.9386Z" fill="#CCCCCC"/>
<path d="M150.705 71.1857C152.081 71.2035 153.436 71.5145 154.676 72.0974C155.915 72.6803 157.011 73.521 157.886 74.5609C158.761 75.6008 159.394 76.815 159.741 78.119C160.089 79.4231 160.142 80.7856 159.897 82.1118L153.333 160H131.452L141.188 79.2942C141.477 77.0538 142.59 74.9938 144.319 73.5007C146.048 72.0076 148.274 71.1841 150.579 71.1848C150.621 71.1848 150.663 71.1848 150.705 71.1857Z" fill="#A0616A"/>
<path d="M154.521 42.0204L145.568 31.6866C143.261 29.0235 140.848 26.1227 140.522 22.6442C140.164 18.831 142.531 15.1245 145.768 12.9777C149.003 10.8309 152.977 10.0231 156.873 9.72661C164.1 9.17679 171.705 10.3469 177.645 14.416C183.586 18.4851 187.473 25.8314 186.024 32.7901C184.884 38.2695 180.681 43.5183 182.315 48.8765C184.102 54.7393 191.432 56.5381 197.416 58.2864C207.462 61.221 217.053 66.9981 222.317 75.8795C227.582 84.7608 227.559 97.007 220.542 104.636C215.997 109.576 209.144 112.075 202.368 112.451C195.591 112.826 188.846 111.263 182.419 109.124C176.501 107.154 170.646 104.62 165.986 100.537C161.326 96.4555 157.969 90.613 158.115 84.49C158.252 78.6547 161.443 73.3391 162.753 67.6453C163.787 62.8774 163.516 57.9264 161.968 53.2944C160.418 48.6623 157.648 44.5139 153.934 41.2697" fill="#2F2E41"/>
<path d="M168.747 8.27717L163.108 7.19291C162.642 7.10329 162.162 7.10451 161.696 7.19649C161.23 7.28846 160.788 7.46942 160.393 7.72898C159.999 7.98854 159.661 8.32164 159.398 8.70927C159.135 9.0969 158.953 9.53146 158.862 9.98812L151.064 35.6267L163.801 38.0757L171.599 12.4372C171.784 11.5149 171.587 10.5584 171.052 9.77824C170.518 8.99811 169.688 8.45816 168.747 8.27717Z" fill="#336198"/>
<path d="M156.338 50.1742C150.674 50.1742 146.081 45.6748 146.081 40.1245C146.081 34.5742 150.674 30.0748 156.338 30.0748C162.003 30.0748 166.595 34.5742 166.595 40.1245C166.595 45.6748 162.003 50.1742 156.338 50.1742Z" fill="white"/>
<path d="M156.338 45.7077C153.191 45.7077 150.64 43.208 150.64 40.1245C150.64 37.0411 153.191 34.5414 156.338 34.5414C159.485 34.5414 162.036 37.0411 162.036 40.1245C162.036 43.208 159.485 45.7077 156.338 45.7077Z" fill="#336198"/>
<path d="M122.947 80.2027L122.964 80.2001L120.558 65.8823L107.255 70.1844L109.245 82.9909C108.56 82.5493 107.742 82.3708 106.939 82.4863C106.137 82.6021 105.4 83.0047 104.862 83.6222C104.324 84.2397 104.018 85.0319 104.001 85.8574C103.984 86.6829 104.255 87.4876 104.767 88.128C105.279 88.7684 105.997 89.2025 106.796 89.3535C107.593 89.504 108.416 89.3608 109.12 88.95C109.823 88.5388 110.36 87.8867 110.635 87.1101C110.909 86.3331 110.904 85.4821 110.619 84.7093L110.631 84.7072L108.495 70.9641L119.683 67.346L121.585 78.6642C120.883 78.2412 120.056 78.0885 119.252 78.2339C118.449 78.3787 117.724 78.8116 117.208 79.4542C116.691 80.0967 116.418 80.9066 116.438 81.7365C116.457 82.5663 116.768 83.3619 117.315 83.978C117.861 84.5947 118.605 84.9917 119.414 85.0972C120.223 85.2027 121.043 85.0099 121.724 84.5532C122.405 84.0965 122.903 83.4069 123.127 82.609C123.352 81.8108 123.288 80.9572 122.947 80.2027Z" fill="#336198"/>
<path d="M116.3 47.8123L116.314 47.8208L123.985 35.2108L110.709 29.9019L103.721 41.0761C103.479 40.2907 102.959 39.6228 102.254 39.191C101.548 38.7595 100.704 38.5925 99.8708 38.7199C99.0369 38.8473 98.2704 39.2607 97.7061 39.8865C97.1408 40.5123 96.8163 41.3094 96.7894 42.1356C96.7634 42.9619 97.0359 43.7633 97.5588 44.397C98.0817 45.0303 98.8222 45.4544 99.6465 45.5936C100.471 45.7325 101.326 45.5776 102.06 45.1564C102.792 44.7348 103.356 44.0744 103.649 43.2932L103.659 43.2994L111.159 31.3079L122.324 35.7726L116.26 45.7408C115.993 44.9591 115.448 44.3046 114.723 43.8959C113.998 43.4868 113.141 43.3503 112.309 43.5114C111.476 43.6723 110.722 44.1202 110.184 44.7733C109.646 45.4265 109.358 46.2422 109.374 47.072C109.39 47.9021 109.708 48.6917 110.27 49.2978C110.832 49.9039 111.602 50.2865 112.439 50.3759C113.277 50.4653 114.127 50.256 114.834 49.786C115.543 49.3156 116.063 48.6155 116.3 47.8123Z" fill="#336198"/>
<path d="M221.546 45.9106L221.561 45.9161L226.296 32.8981L212.901 30.1177L208.529 41.6844C208.152 40.9914 207.54 40.4533 206.799 40.1659C206.059 39.8789 205.239 39.8609 204.487 40.1161C203.735 40.3716 203.099 40.8828 202.692 41.5588C202.287 42.2349 202.137 43.0315 202.269 43.8067C202.402 44.5819 202.811 45.2848 203.42 45.7901C204.03 46.2957 204.8 46.5702 205.596 46.5652C206.391 46.5597 207.158 46.2752 207.761 45.7627C208.364 45.2494 208.763 44.541 208.886 43.7644L208.897 43.7683L213.59 31.3552L224.855 33.6938L221.113 43.9846C220.713 43.299 220.079 42.7779 219.325 42.5149C218.571 42.2518 217.747 42.2648 217.001 42.5513C216.256 42.8377 215.639 43.3788 215.263 44.0763C214.885 44.7737 214.774 45.5813 214.948 46.353C215.121 47.1247 215.569 47.8093 216.21 48.2826C216.85 48.7563 217.641 48.9869 218.439 48.9337C219.237 48.8798 219.989 48.5455 220.559 47.9911C221.129 47.4365 221.479 46.6983 221.546 45.9106Z" fill="#336198"/>
</g>
</svg>
