<svg width="30" height="60" viewBox="0 0 30 60" fill="none" xmlns="http://www.w3.org/2000/svg">
<path d="M12.6002 3.416C12.7563 3.59393 12.852 3.81167 12.8748 4.04111C12.8977 4.27055 12.8466 4.50112 12.7282 4.70305C11.8031 6.29533 11.32 8.08014 11.3233 9.89327C11.3233 15.925 16.5682 20.8092 23.0323 20.8092C23.8756 20.8092 24.6964 20.7267 25.4852 20.5692C25.727 20.5201 25.9789 20.5389 26.2094 20.6232C26.4398 20.7075 26.6387 20.8536 26.7812 21.0432C26.9316 21.2404 27.0083 21.4787 26.9993 21.7209C26.9903 21.9632 26.8962 22.1959 26.7316 22.3828C25.4767 23.828 23.8936 24.9924 22.0977 25.7912C20.3018 26.59 18.3384 27.0029 16.3506 27C8.9745 27 3 21.4288 3 14.5645C3 9.39825 6.38246 4.96706 11.1985 3.08899C11.4384 2.99393 11.7048 2.97442 11.9575 3.03339C12.2103 3.09235 12.4358 3.22662 12.6002 3.416Z" fill="white"/>
<path d="M15 31C14.02 31 13.25 31.77 13.25 32.75C13.25 33.73 14.02 34.5 15 34.5C15.98 34.5 16.75 33.73 16.75 32.75C16.75 31.77 15.98 31 15 31ZM6.25 34.5C5.27 34.5 4.5 35.27 4.5 36.25C4.5 37.23 5.27 38 6.25 38C7.23 38 8 37.23 8 36.25C8 35.27 7.23 34.5 6.25 34.5ZM23.75 34.5C22.77 34.5 22 35.27 22 36.25C22 37.23 22.77 38 23.75 38C24.73 38 25.5 37.23 25.5 36.25C25.5 35.27 24.73 34.5 23.75 34.5ZM15 38C11.15 38 8 41.15 8 45C8 48.85 11.15 52 15 52C18.85 52 22 48.85 22 45C22 41.15 18.85 38 15 38ZM2.75 43.25C1.77 43.25 1 44.02 1 45C1 45.98 1.77 46.75 2.75 46.75C3.73 46.75 4.5 45.98 4.5 45C4.5 44.02 3.73 43.25 2.75 43.25ZM27.25 43.25C26.27 43.25 25.5 44.02 25.5 45C25.5 45.98 26.27 46.75 27.25 46.75C28.23 46.75 29 45.98 29 45C29 44.02 28.23 43.25 27.25 43.25ZM6.25 52C5.27 52 4.5 52.77 4.5 53.75C4.5 54.73 5.27 55.5 6.25 55.5C7.23 55.5 8 54.73 8 53.75C8 52.77 7.23 52 6.25 52ZM23.75 52C22.77 52 22 52.77 22 53.75C22 54.73 22.77 55.5 23.75 55.5C24.73 55.5 25.5 54.73 25.5 53.75C25.5 52.77 24.73 52 23.75 52ZM15 55.5C14.02 55.5 13.25 56.27 13.25 57.25C13.25 58.23 14.02 59 15 59C15.98 59 16.75 58.23 16.75 57.25C16.75 56.27 15.98 55.5 15 55.5Z" fill="white"/>
</svg>
