<svg width="28" height="56" viewBox="0 0 28 56" fill="none" xmlns="http://www.w3.org/2000/svg">
<path fill-rule="evenodd" clip-rule="evenodd" d="M15.4 29.4C15.4 29.0287 15.2525 28.6726 14.9899 28.4101C14.7274 28.1475 14.3713 28 14 28C13.6287 28 13.2726 28.1475 13.0101 28.4101C12.7475 28.6726 12.6 29.0287 12.6 29.4V30.8C12.6 31.1713 12.7475 31.5274 13.0101 31.7899C13.2726 32.0525 13.6287 32.2 14 32.2C14.3713 32.2 14.7274 32.0525 14.9899 31.7899C15.2525 31.5274 15.4 31.1713 15.4 30.8V29.4ZM5.1898 31.2102C4.92576 30.9552 4.57211 30.8141 4.20504 30.8173C3.83796 30.8204 3.48683 30.9677 3.22725 31.2273C2.96768 31.4868 2.82045 31.838 2.81726 32.205C2.81407 32.5721 2.95518 32.9258 3.2102 33.1898L4.6102 34.5898C4.87424 34.8448 5.22789 34.9859 5.59496 34.9827C5.96204 34.9796 6.31317 34.8323 6.57275 34.5727C6.83232 34.3132 6.97955 33.962 6.98274 33.595C6.98593 33.2279 6.84482 32.8742 6.5898 32.6102L5.1898 31.2102ZM24.7898 31.2102C24.5273 30.9477 24.1712 30.8003 23.8 30.8003C23.4288 30.8003 23.0727 30.9477 22.8102 31.2102L21.4102 32.6102C21.1552 32.8742 21.0141 33.2279 21.0173 33.595C21.0204 33.962 21.1677 34.3132 21.4273 34.5727C21.6868 34.8323 22.038 34.9796 22.405 34.9827C22.7721 34.9859 23.1258 34.8448 23.3898 34.5898L24.7898 33.1898C25.0523 32.9273 25.1997 32.5712 25.1997 32.2C25.1997 31.8288 25.0523 31.4727 24.7898 31.2102ZM14 35C12.1435 35 10.363 35.7375 9.05025 37.0503C7.7375 38.363 7 40.1435 7 42C7 43.8565 7.7375 45.637 9.05025 46.9497C10.363 48.2625 12.1435 49 14 49C15.8565 49 17.637 48.2625 18.9497 46.9497C20.2625 45.637 21 43.8565 21 42C21 40.1435 20.2625 38.363 18.9497 37.0503C17.637 35.7375 15.8565 35 14 35ZM1.4 40.6C1.0287 40.6 0.672601 40.7475 0.41005 41.0101C0.1475 41.2726 0 41.6287 0 42C0 42.3713 0.1475 42.7274 0.41005 42.9899C0.672601 43.2525 1.0287 43.4 1.4 43.4H2.8C3.1713 43.4 3.5274 43.2525 3.78995 42.9899C4.0525 42.7274 4.2 42.3713 4.2 42C4.2 41.6287 4.0525 41.2726 3.78995 41.0101C3.5274 40.7475 3.1713 40.6 2.8 40.6H1.4ZM25.2 40.6C24.8287 40.6 24.4726 40.7475 24.21 41.0101C23.9475 41.2726 23.8 41.6287 23.8 42C23.8 42.3713 23.9475 42.7274 24.21 42.9899C24.4726 43.2525 24.8287 43.4 25.2 43.4H26.6C26.9713 43.4 27.3274 43.2525 27.59 42.9899C27.8525 42.7274 28 42.3713 28 42C28 41.6287 27.8525 41.2726 27.59 41.0101C27.3274 40.7475 26.9713 40.6 26.6 40.6H25.2ZM6.5898 51.3898C6.72351 51.2607 6.83017 51.1062 6.90354 50.9354C6.97691 50.7646 7.01554 50.5809 7.01715 50.395C7.01877 50.2091 6.98334 50.0247 6.91295 49.8527C6.84256 49.6806 6.7386 49.5243 6.60715 49.3928C6.4757 49.2614 6.31939 49.1574 6.14734 49.087C5.97528 49.0167 5.79093 48.9812 5.60504 48.9828C5.41915 48.9845 5.23544 49.0231 5.06463 49.0965C4.89383 49.1698 4.73935 49.2765 4.6102 49.4102L3.2102 50.8102C3.07649 50.9393 2.96983 51.0938 2.89646 51.2646C2.82309 51.4354 2.78446 51.6191 2.78285 51.805C2.78123 51.9909 2.81666 52.1753 2.88705 52.3473C2.95744 52.5194 3.0614 52.6757 3.19285 52.8072C3.3243 52.9386 3.48061 53.0426 3.65266 53.113C3.82472 53.1833 4.00907 53.2188 4.19496 53.2172C4.38085 53.2155 4.56456 53.1769 4.73537 53.1035C4.90617 53.0302 5.06065 52.9235 5.1898 52.7898L6.5898 51.3898ZM23.3898 49.4102C23.1258 49.1552 22.7721 49.0141 22.405 49.0173C22.038 49.0204 21.6868 49.1677 21.4273 49.4273C21.1677 49.6868 21.0204 50.038 21.0173 50.405C21.0141 50.7721 21.1552 51.1258 21.4102 51.3898L22.8102 52.7898C23.0742 53.0448 23.4279 53.1859 23.795 53.1827C24.162 53.1796 24.5132 53.0323 24.7727 52.7727C25.0323 52.5132 25.1796 52.162 25.1827 51.795C25.1859 51.4279 25.0448 51.0742 24.7898 50.8102L23.3898 49.4102ZM15.4 53.2C15.4 52.8287 15.2525 52.4726 14.9899 52.21C14.7274 51.9475 14.3713 51.8 14 51.8C13.6287 51.8 13.2726 51.9475 13.0101 52.21C12.7475 52.4726 12.6 52.8287 12.6 53.2V54.6C12.6 54.9713 12.7475 55.3274 13.0101 55.59C13.2726 55.8525 13.6287 56 14 56C14.3713 56 14.7274 55.8525 14.9899 55.59C15.2525 55.3274 15.4 54.9713 15.4 54.6V53.2Z" fill="white"/>
<path d="M11.6002 2.416C11.7563 2.59393 11.852 2.81167 11.8748 3.04111C11.8977 3.27055 11.8466 3.50112 11.7282 3.70305C10.8031 5.29533 10.32 7.08014 10.3233 8.89327C10.3233 14.925 15.5682 19.8092 22.0323 19.8092C22.8756 19.8092 23.6964 19.7267 24.4852 19.5692C24.727 19.5201 24.9789 19.5389 25.2094 19.6232C25.4398 19.7075 25.6387 19.8536 25.7812 20.0432C25.9316 20.2404 26.0083 20.4787 25.9993 20.7209C25.9903 20.9632 25.8962 21.1959 25.7316 21.3828C24.4767 22.828 22.8936 23.9924 21.0977 24.7912C19.3018 25.59 17.3384 26.0029 15.3506 26C7.9745 26 2 20.4288 2 13.5645C2 8.39825 5.38246 3.96706 10.1985 2.08899C10.4384 1.99393 10.7048 1.97442 10.9575 2.03339C11.2103 2.09235 11.4358 2.22662 11.6002 2.416Z" fill="white"/>
</svg>
