<svg width="20" height="22" viewBox="0 0 20 22" fill="none" xmlns="http://www.w3.org/2000/svg">
<path d="M17.0566 9.08723L15.6799 15.5034C15.2315 15.1151 14.6645 14.8764 14.0668 14.8244C13.4692 14.7725 12.8744 14.9101 12.3746 15.2159C11.8747 15.5218 11.4979 15.9788 11.3025 16.516C11.1071 17.0533 11.104 17.6408 11.2937 18.1875C11.4834 18.7341 11.8554 19.2093 12.3518 19.5394C12.8483 19.8695 13.4416 20.036 14.0396 20.0131C14.6376 19.9902 15.207 19.7792 15.6594 19.4128C16.1118 19.0464 16.422 18.5451 16.5418 17.9866L19.2838 5.2075C19.3189 5.04471 19.3124 4.87543 19.2647 4.71396C19.217 4.55248 19.1296 4.40354 19.0098 4.27973C18.8901 4.15592 18.7414 4.06086 18.5765 4.00259C18.4116 3.94432 18.2353 3.92454 18.0624 3.94493L8.90715 5.01381C8.68514 5.03999 8.47843 5.13124 8.31525 5.27507C8.15208 5.4189 8.04043 5.60831 7.99555 5.81738L6.07499 14.768C5.62659 14.3798 5.05965 14.1411 4.46208 14.0891C3.86451 14.0371 3.26971 14.1746 2.76991 14.4804C2.2701 14.7862 1.89322 15.2431 1.69771 15.7802C1.5022 16.3174 1.49898 16.9049 1.68855 17.4515C1.87811 17.9982 2.24988 18.4734 2.7462 18.8036C3.24252 19.1338 3.83565 19.3005 4.43363 19.2778C5.0316 19.2551 5.60101 19.0444 6.05355 18.6782C6.50609 18.312 6.81648 17.8109 6.93658 17.2525L8.47362 10.0892L17.0564 9.0885L17.0566 9.08723Z" fill="white"/>
</svg>
