<svg width="13" height="16" viewBox="0 0 13 16" fill="none">
<path d="M11.8182 4.7109V10.544C11.3676 10.2901 10.8437 10.1884 10.3278 10.2547C9.81197 10.321 9.33293 10.5515 8.96501 10.9105C8.59709 11.2696 8.36086 11.737 8.29295 12.2404C8.22504 12.7438 8.32924 13.255 8.58941 13.6947C8.84958 14.1344 9.25116 14.4781 9.73187 14.6724C10.2126 14.8667 10.7456 14.9007 11.2482 14.7693C11.7507 14.6379 12.1949 14.3483 12.5116 13.9455C12.8283 13.5427 13 13.0491 13 12.5414V0.923674C13.0002 0.775641 12.9638 0.629739 12.8941 0.49829C12.8243 0.366841 12.7232 0.253705 12.5991 0.168434C12.4751 0.0831638 12.3319 0.0282634 12.1816 0.00836934C12.0313 -0.0115247 11.8783 0.00417169 11.7355 0.0541329L4.17182 2.69043C3.98846 2.75458 3.82988 2.87243 3.71777 3.02787C3.60565 3.18331 3.54547 3.36874 3.54546 3.55882V11.6961C3.09489 11.4422 2.57108 11.3405 2.05526 11.4068C1.53944 11.473 1.06042 11.7035 0.692494 12.0624C0.324565 12.4214 0.08828 12.8887 0.0202795 13.3921C-0.047721 13.8954 0.0563625 14.4066 0.31639 14.8463C0.576418 15.286 0.97786 15.6297 1.45847 15.8242C1.93907 16.0186 2.47199 16.0528 2.97458 15.9216C3.47717 15.7904 3.92135 15.501 4.23824 15.0984C4.55513 14.6957 4.72703 14.2023 4.72727 13.6946V7.18229L11.8182 4.71206V4.7109Z" fill="white"/>
</svg>
