<svg width="100" height="100" viewBox="0 0 100 100" fill="none" xmlns="http://www.w3.org/2000/svg">
<mask id="path-1-inside-1" fill="white">
<path d="M50 3.71354C50 1.66261 51.665 -0.0143476 53.7102 0.137835C61.1063 0.688149 68.3038 2.87852 74.7729 6.56842C82.3197 10.873 88.6145 17.0697 93.0371 24.5479C97.4597 32.0261 99.8574 40.5276 99.9938 49.2146C100.111 56.6612 98.5628 64.0237 95.482 70.77C94.63 72.6356 92.3584 73.2867 90.5611 72.2987V72.2987C88.7639 71.3106 88.1242 69.058 88.9519 67.1815C91.4248 61.5753 92.6644 55.487 92.5677 49.3313C92.4515 41.9347 90.4099 34.696 86.6443 28.3286C82.8786 21.9613 77.5188 16.685 71.0931 13.0198C65.7454 9.96954 59.813 8.12274 53.7089 7.58894C51.6658 7.41027 50 5.76448 50 3.71354V3.71354Z"/>
</mask>
<path d="M50 3.71354C50 1.66261 51.665 -0.0143476 53.7102 0.137835C61.1063 0.688149 68.3038 2.87852 74.7729 6.56842C82.3197 10.873 88.6145 17.0697 93.0371 24.5479C97.4597 32.0261 99.8574 40.5276 99.9938 49.2146C100.111 56.6612 98.5628 64.0237 95.482 70.77C94.63 72.6356 92.3584 73.2867 90.5611 72.2987V72.2987C88.7639 71.3106 88.1242 69.058 88.9519 67.1815C91.4248 61.5753 92.6644 55.487 92.5677 49.3313C92.4515 41.9347 90.4099 34.696 86.6443 28.3286C82.8786 21.9613 77.5188 16.685 71.0931 13.0198C65.7454 9.96954 59.813 8.12274 53.7089 7.58894C51.6658 7.41027 50 5.76448 50 3.71354V3.71354Z" stroke="#00256C" stroke-width="14" mask="url(#path-1-inside-1)"/>
</svg>
