<svg width="147" height="12" viewBox="0 0 147 12" fill="none" xmlns="http://www.w3.org/2000/svg">
<path d="M5.6734 0.480315L4.4371 3.90503L4.43525 3.91015L4.4352 3.91013C4.37372 4.06948 4.2653 4.20642 4.1243 4.30281C3.98342 4.39911 3.81665 4.45041 3.64601 4.44994M5.6734 0.480315L3.64638 4.19994M5.6734 0.480315C5.67511 0.476408 5.67674 0.472443 5.67826 0.468422C5.78833 0.178104 6.20929 0.176781 6.32131 0.466934M5.6734 0.480315L9.16629 7.92471M3.64601 4.44994C3.64586 4.44994 3.6457 4.44994 3.64554 4.44994L3.64638 4.19994M3.64601 4.44994H3.64638V4.19994M3.64601 4.44994H0.594313C0.26163 4.44994 0.132311 4.85518 0.381391 5.04805C0.386253 5.05182 0.390974 5.05576 0.395544 5.05987L2.56091 7.00816M3.64638 4.19994H0.594313C0.0315375 4.19994 -0.215651 4.90193 0.228329 5.24572L2.40023 7.19989M2.56091 7.00816C2.55815 7.00599 2.55539 7.00383 2.5526 7.00169L2.40023 7.19989M2.56091 7.00816L2.56745 7.01404L2.40023 7.19989M2.56091 7.00816C2.69582 7.11462 2.79447 7.26037 2.84312 7.42538C2.89135 7.58894 2.88805 7.76327 2.83386 7.92471M2.40023 7.19989C2.49752 7.27468 2.56862 7.37837 2.60333 7.49608C2.63804 7.61379 2.63457 7.73947 2.59342 7.85508M2.59342 7.85508L2.83674 7.91249L2.83386 7.92471M2.59342 7.85508L1.80026 11.2168L5.65509 10.0162M2.59342 7.85508L2.82895 7.9389C2.83063 7.93418 2.83227 7.92945 2.83386 7.92471M2.83386 7.92471L2.04358 11.2742C2.04143 11.2833 2.03877 11.2923 2.03562 11.3011C1.92928 11.598 2.27743 11.8835 2.56111 11.6838L2.57092 11.6769L2.57107 11.6771L5.51661 9.80804M5.51661 9.80804C5.51484 9.80926 5.51309 9.81048 5.51134 9.81171L5.65509 10.0162M5.51661 9.80804L5.52114 9.80516L5.65509 10.0162M5.51661 9.80804C5.65864 9.70981 5.82728 9.65714 6.00007 9.65714C6.17287 9.65714 6.34151 9.70981 6.48354 9.80804M5.65509 10.0162C5.75612 9.94524 5.87659 9.90714 6.00007 9.90714C6.12355 9.90714 6.24403 9.94524 6.34506 10.0162M6.48354 9.80804L6.479 9.80516L6.34506 10.0162M6.48354 9.80804L9.42907 11.6771L9.43907 11.6835L9.43891 11.6837C9.72337 11.8837 10.0709 11.5985 9.9645 11.301C9.96136 11.2923 9.95871 11.2833 9.95657 11.2742L9.16629 7.92471M6.48354 9.80804C6.4853 9.80926 6.48706 9.81048 6.48881 9.81171L6.34506 10.0162M6.34506 10.0162L9.16629 7.92471M9.16629 7.92471C9.16788 7.92945 9.16951 7.93418 9.17119 7.9389L9.40672 7.85508L9.1634 7.91249L9.16629 7.92471ZM9.16629 7.92471C9.1121 7.76327 9.10879 7.58894 9.15702 7.42538C9.20568 7.26037 9.30433 7.11462 9.43924 7.00816M9.43924 7.00816L9.4327 7.01404L9.59991 7.19989L9.44754 7.00169C9.44476 7.00383 9.44199 7.00599 9.43924 7.00816ZM9.43924 7.00816L11.6046 5.05987C11.6091 5.0558 11.6138 5.05189 11.6186 5.04815C11.8678 4.85496 11.7385 4.44994 11.4052 4.44994H8.35317C8.00355 4.44994 7.68843 4.23531 7.56402 3.90927L7.56241 3.90504L7.56245 3.90503L6.32131 0.466934M6.32131 0.466934C6.32154 0.46751 6.32176 0.468086 6.32198 0.468664L6.55565 0.379794L6.3205 0.464681L6.32131 0.466934Z" fill="#E7AA35" stroke="#E7AA35" stroke-width="0.5" stroke-linecap="round" stroke-linejoin="round"/>
<path d="M20.6734 0.480315L19.4371 3.90503L19.4353 3.91015L19.4352 3.91013C19.3737 4.06948 19.2653 4.20642 19.1243 4.30281C18.9834 4.39911 18.8167 4.45041 18.646 4.44994M20.6734 0.480315L18.6464 4.19994M20.6734 0.480315C20.6751 0.476408 20.6767 0.472443 20.6783 0.468422C20.7883 0.178104 21.2093 0.176781 21.3213 0.466934M20.6734 0.480315L24.1663 7.92471M18.646 4.44994C18.6459 4.44994 18.6457 4.44994 18.6455 4.44994L18.6464 4.19994M18.646 4.44994H18.6464V4.19994M18.646 4.44994H15.5943C15.2616 4.44994 15.1323 4.85518 15.3814 5.04805C15.3863 5.05182 15.391 5.05576 15.3955 5.05987L17.5609 7.00816M18.6464 4.19994H15.5943C15.0315 4.19994 14.7843 4.90193 15.2283 5.24572L17.4002 7.19989M17.5609 7.00816C17.5582 7.00599 17.5554 7.00383 17.5526 7.00169L17.4002 7.19989M17.5609 7.00816L17.5674 7.01404L17.4002 7.19989M17.5609 7.00816C17.6958 7.11462 17.7945 7.26037 17.8431 7.42538C17.8914 7.58894 17.888 7.76327 17.8339 7.92471M17.4002 7.19989C17.4975 7.27468 17.5686 7.37837 17.6033 7.49608C17.638 7.61379 17.6346 7.73947 17.5934 7.85508M17.5934 7.85508L17.8367 7.91249L17.8339 7.92471M17.5934 7.85508L16.8003 11.2168L20.6551 10.0162M17.5934 7.85508L17.829 7.9389C17.8306 7.93418 17.8323 7.92945 17.8339 7.92471M17.8339 7.92471L17.0436 11.2742C17.0414 11.2833 17.0388 11.2923 17.0356 11.3011C16.9293 11.598 17.2774 11.8835 17.5611 11.6838L17.5709 11.6769L17.5711 11.6771L20.5166 9.80804M20.5166 9.80804C20.5148 9.80926 20.5131 9.81048 20.5113 9.81171L20.6551 10.0162M20.5166 9.80804L20.5211 9.80516L20.6551 10.0162M20.5166 9.80804C20.6586 9.70981 20.8273 9.65714 21.0001 9.65714C21.1729 9.65714 21.3415 9.70981 21.4835 9.80804M20.6551 10.0162C20.7561 9.94524 20.8766 9.90714 21.0001 9.90714C21.1236 9.90714 21.244 9.94524 21.3451 10.0162M21.4835 9.80804L21.479 9.80516L21.3451 10.0162M21.4835 9.80804L24.4291 11.6771L24.4391 11.6835L24.4389 11.6837C24.7234 11.8837 25.0709 11.5985 24.9645 11.301C24.9614 11.2923 24.9587 11.2833 24.9566 11.2742L24.1663 7.92471M21.4835 9.80804C21.4853 9.80926 21.4871 9.81048 21.4888 9.81171L21.3451 10.0162M21.3451 10.0162L24.1663 7.92471M24.1663 7.92471C24.1679 7.92945 24.1695 7.93418 24.1712 7.9389L24.4067 7.85508L24.1634 7.91249L24.1663 7.92471ZM24.1663 7.92471C24.1121 7.76327 24.1088 7.58894 24.157 7.42538C24.2057 7.26037 24.3043 7.11462 24.4392 7.00816M24.4392 7.00816L24.4327 7.01404L24.5999 7.19989L24.4475 7.00169C24.4448 7.00383 24.442 7.00599 24.4392 7.00816ZM24.4392 7.00816L26.6046 5.05987C26.6091 5.0558 26.6138 5.05189 26.6186 5.04815C26.8678 4.85496 26.7385 4.44994 26.4052 4.44994H23.3532C23.0036 4.44994 22.6884 4.23531 22.564 3.90927L22.5624 3.90504L22.5624 3.90503L21.3213 0.466934M21.3213 0.466934C21.3215 0.46751 21.3218 0.468086 21.322 0.468664L21.5556 0.379794L21.3205 0.464681L21.3213 0.466934Z" fill="#E7AA35" stroke="#E7AA35" stroke-width="0.5" stroke-linecap="round" stroke-linejoin="round"/>
<path d="M35.6734 0.480315L34.4371 3.90503L34.4353 3.91015L34.4352 3.91013C34.3737 4.06948 34.2653 4.20642 34.1243 4.30281C33.9834 4.39911 33.8167 4.45041 33.646 4.44994M35.6734 0.480315L33.6464 4.19994M35.6734 0.480315C35.6751 0.476408 35.6767 0.472443 35.6783 0.468422C35.7883 0.178104 36.2093 0.176781 36.3213 0.466934M35.6734 0.480315L39.1663 7.92471M33.646 4.44994C33.6459 4.44994 33.6457 4.44994 33.6455 4.44994L33.6464 4.19994M33.646 4.44994H33.6464V4.19994M33.646 4.44994H30.5943C30.2616 4.44994 30.1323 4.85518 30.3814 5.04805C30.3863 5.05182 30.391 5.05576 30.3955 5.05987L32.5609 7.00816M33.6464 4.19994H30.5943C30.0315 4.19994 29.7843 4.90193 30.2283 5.24572L32.4002 7.19989M32.5609 7.00816C32.5582 7.00599 32.5554 7.00383 32.5526 7.00169L32.4002 7.19989M32.5609 7.00816L32.5674 7.01404L32.4002 7.19989M32.5609 7.00816C32.6958 7.11462 32.7945 7.26037 32.8431 7.42538C32.8914 7.58894 32.888 7.76327 32.8339 7.92471M32.4002 7.19989C32.4975 7.27468 32.5686 7.37837 32.6033 7.49608C32.638 7.61379 32.6346 7.73947 32.5934 7.85508M32.5934 7.85508L32.8367 7.91249L32.8339 7.92471M32.5934 7.85508L31.8003 11.2168L35.6551 10.0162M32.5934 7.85508L32.829 7.9389C32.8306 7.93418 32.8323 7.92945 32.8339 7.92471M32.8339 7.92471L32.0436 11.2742C32.0414 11.2833 32.0388 11.2923 32.0356 11.3011C31.9293 11.598 32.2774 11.8835 32.5611 11.6838L32.5709 11.6769L32.5711 11.6771L35.5166 9.80804M35.5166 9.80804C35.5148 9.80926 35.5131 9.81048 35.5113 9.81171L35.6551 10.0162M35.5166 9.80804L35.5211 9.80516L35.6551 10.0162M35.5166 9.80804C35.6586 9.70981 35.8273 9.65714 36.0001 9.65714C36.1729 9.65714 36.3415 9.70981 36.4835 9.80804M35.6551 10.0162C35.7561 9.94524 35.8766 9.90714 36.0001 9.90714C36.1236 9.90714 36.244 9.94524 36.3451 10.0162M36.4835 9.80804L36.479 9.80516L36.3451 10.0162M36.4835 9.80804L39.4291 11.6771L39.4391 11.6835L39.4389 11.6837C39.7234 11.8837 40.0709 11.5985 39.9645 11.301C39.9614 11.2923 39.9587 11.2833 39.9566 11.2742L39.1663 7.92471M36.4835 9.80804C36.4853 9.80926 36.4871 9.81048 36.4888 9.81171L36.3451 10.0162M36.3451 10.0162L39.1663 7.92471M39.1663 7.92471C39.1679 7.92945 39.1695 7.93418 39.1712 7.9389L39.4067 7.85508L39.1634 7.91249L39.1663 7.92471ZM39.1663 7.92471C39.1121 7.76327 39.1088 7.58894 39.157 7.42538C39.2057 7.26037 39.3043 7.11462 39.4392 7.00816M39.4392 7.00816L39.4327 7.01404L39.5999 7.19989L39.4475 7.00169C39.4448 7.00383 39.442 7.00599 39.4392 7.00816ZM39.4392 7.00816L41.6046 5.05987C41.6091 5.0558 41.6138 5.05189 41.6186 5.04815C41.8678 4.85496 41.7385 4.44994 41.4052 4.44994H38.3532C38.0036 4.44994 37.6884 4.23531 37.564 3.90927L37.5624 3.90504L37.5624 3.90503L36.3213 0.466934M36.3213 0.466934C36.3215 0.46751 36.3218 0.468086 36.322 0.468664L36.5556 0.379794L36.3205 0.464681L36.3213 0.466934Z" fill="#E7AA35" stroke="#E7AA35" stroke-width="0.5" stroke-linecap="round" stroke-linejoin="round"/>
<path d="M50.6734 0.480315L49.4371 3.90503L49.4353 3.91015L49.4352 3.91013C49.3737 4.06948 49.2653 4.20642 49.1243 4.30281C48.9834 4.39911 48.8167 4.45041 48.646 4.44994M50.6734 0.480315L48.6464 4.19994M50.6734 0.480315C50.6751 0.476408 50.6767 0.472443 50.6783 0.468422C50.7883 0.178104 51.2093 0.176781 51.3213 0.466934M50.6734 0.480315L54.1663 7.92471M48.646 4.44994C48.6459 4.44994 48.6457 4.44994 48.6455 4.44994L48.6464 4.19994M48.646 4.44994H48.6464V4.19994M48.646 4.44994H45.5943C45.2616 4.44994 45.1323 4.85518 45.3814 5.04805C45.3863 5.05182 45.391 5.05576 45.3955 5.05987L47.5609 7.00816M48.6464 4.19994H45.5943C45.0315 4.19994 44.7843 4.90193 45.2283 5.24572L47.4002 7.19989M47.5609 7.00816C47.5582 7.00599 47.5554 7.00383 47.5526 7.00169L47.4002 7.19989M47.5609 7.00816L47.5674 7.01404L47.4002 7.19989M47.5609 7.00816C47.6958 7.11462 47.7945 7.26037 47.8431 7.42538C47.8914 7.58894 47.888 7.76327 47.8339 7.92471M47.4002 7.19989C47.4975 7.27468 47.5686 7.37837 47.6033 7.49608C47.638 7.61379 47.6346 7.73947 47.5934 7.85508M47.5934 7.85508L47.8367 7.91249L47.8339 7.92471M47.5934 7.85508L46.8003 11.2168L50.6551 10.0162M47.5934 7.85508L47.829 7.9389C47.8306 7.93418 47.8323 7.92945 47.8339 7.92471M47.8339 7.92471L47.0436 11.2742C47.0414 11.2833 47.0388 11.2923 47.0356 11.3011C46.9293 11.598 47.2774 11.8835 47.5611 11.6838L47.5709 11.6769L47.5711 11.6771L50.5166 9.80804M50.5166 9.80804C50.5148 9.80926 50.5131 9.81048 50.5113 9.81171L50.6551 10.0162M50.5166 9.80804L50.5211 9.80516L50.6551 10.0162M50.5166 9.80804C50.6586 9.70981 50.8273 9.65714 51.0001 9.65714C51.1729 9.65714 51.3415 9.70981 51.4835 9.80804M50.6551 10.0162C50.7561 9.94524 50.8766 9.90714 51.0001 9.90714C51.1236 9.90714 51.244 9.94524 51.3451 10.0162M51.4835 9.80804L51.479 9.80516L51.3451 10.0162M51.4835 9.80804L54.4291 11.6771L54.4391 11.6835L54.4389 11.6837C54.7234 11.8837 55.0709 11.5985 54.9645 11.301C54.9614 11.2923 54.9587 11.2833 54.9566 11.2742L54.1663 7.92471M51.4835 9.80804C51.4853 9.80926 51.4871 9.81048 51.4888 9.81171L51.3451 10.0162M51.3451 10.0162L54.1663 7.92471M54.1663 7.92471C54.1679 7.92945 54.1695 7.93418 54.1712 7.9389L54.4067 7.85508L54.1634 7.91249L54.1663 7.92471ZM54.1663 7.92471C54.1121 7.76327 54.1088 7.58894 54.157 7.42538C54.2057 7.26037 54.3043 7.11462 54.4392 7.00816M54.4392 7.00816L54.4327 7.01404L54.5999 7.19989L54.4475 7.00169C54.4448 7.00383 54.442 7.00599 54.4392 7.00816ZM54.4392 7.00816L56.6046 5.05987C56.6091 5.0558 56.6138 5.05189 56.6186 5.04815C56.8678 4.85496 56.7385 4.44994 56.4052 4.44994H53.3532C53.0036 4.44994 52.6884 4.23531 52.564 3.90927L52.5624 3.90504L52.5624 3.90503L51.3213 0.466934M51.3213 0.466934C51.3215 0.46751 51.3218 0.468086 51.322 0.468664L51.5556 0.379794L51.3205 0.464681L51.3213 0.466934Z" fill="#E7AA35" stroke="#E7AA35" stroke-width="0.5" stroke-linecap="round" stroke-linejoin="round"/>
<path d="M65.6734 0.480315L64.4371 3.90503L64.4353 3.91015L64.4352 3.91013C64.3737 4.06948 64.2653 4.20642 64.1243 4.30281C63.9834 4.39911 63.8167 4.45041 63.646 4.44994M65.6734 0.480315L63.6464 4.19994M65.6734 0.480315C65.6751 0.476408 65.6767 0.472443 65.6783 0.468422C65.7883 0.178104 66.2093 0.176781 66.3213 0.466934M65.6734 0.480315L69.1663 7.92471M63.646 4.44994C63.6459 4.44994 63.6457 4.44994 63.6455 4.44994L63.6464 4.19994M63.646 4.44994H63.6464V4.19994M63.646 4.44994H60.5943C60.2616 4.44994 60.1323 4.85518 60.3814 5.04805C60.3863 5.05182 60.391 5.05576 60.3955 5.05987L62.5609 7.00816M63.6464 4.19994H60.5943C60.0315 4.19994 59.7843 4.90193 60.2283 5.24572L62.4002 7.19989M62.5609 7.00816C62.5582 7.00599 62.5554 7.00383 62.5526 7.00169L62.4002 7.19989M62.5609 7.00816L62.5674 7.01404L62.4002 7.19989M62.5609 7.00816C62.6958 7.11462 62.7945 7.26037 62.8431 7.42538C62.8914 7.58894 62.888 7.76327 62.8339 7.92471M62.4002 7.19989C62.4975 7.27468 62.5686 7.37837 62.6033 7.49608C62.638 7.61379 62.6346 7.73947 62.5934 7.85508M62.5934 7.85508L62.8367 7.91249L62.8339 7.92471M62.5934 7.85508L61.8003 11.2168L65.6551 10.0162M62.5934 7.85508L62.829 7.9389C62.8306 7.93418 62.8323 7.92945 62.8339 7.92471M62.8339 7.92471L62.0436 11.2742C62.0414 11.2833 62.0388 11.2923 62.0356 11.3011C61.9293 11.598 62.2774 11.8835 62.5611 11.6838L62.5709 11.6769L62.5711 11.6771L65.5166 9.80804M65.5166 9.80804C65.5148 9.80926 65.5131 9.81048 65.5113 9.81171L65.6551 10.0162M65.5166 9.80804L65.5211 9.80516L65.6551 10.0162M65.5166 9.80804C65.6586 9.70981 65.8273 9.65714 66.0001 9.65714C66.1729 9.65714 66.3415 9.70981 66.4835 9.80804M65.6551 10.0162C65.7561 9.94524 65.8766 9.90714 66.0001 9.90714C66.1236 9.90714 66.244 9.94524 66.3451 10.0162M66.4835 9.80804L66.479 9.80516L66.3451 10.0162M66.4835 9.80804L69.4291 11.6771L69.4391 11.6835L69.4389 11.6837C69.7234 11.8837 70.0709 11.5985 69.9645 11.301C69.9614 11.2923 69.9587 11.2833 69.9566 11.2742L69.1663 7.92471M66.4835 9.80804C66.4853 9.80926 66.4871 9.81048 66.4888 9.81171L66.3451 10.0162M66.3451 10.0162L69.1663 7.92471M69.1663 7.92471C69.1679 7.92945 69.1695 7.93418 69.1712 7.9389L69.4067 7.85508L69.1634 7.91249L69.1663 7.92471ZM69.1663 7.92471C69.1121 7.76327 69.1088 7.58894 69.157 7.42538C69.2057 7.26037 69.3043 7.11462 69.4392 7.00816M69.4392 7.00816L69.4327 7.01404L69.5999 7.19989L69.4475 7.00169C69.4448 7.00383 69.442 7.00599 69.4392 7.00816ZM69.4392 7.00816L71.6046 5.05987C71.6091 5.0558 71.6138 5.05189 71.6186 5.04815C71.8678 4.85496 71.7385 4.44994 71.4052 4.44994H68.3532C68.0036 4.44994 67.6884 4.23531 67.564 3.90927L67.5624 3.90504L67.5624 3.90503L66.3213 0.466934M66.3213 0.466934C66.3215 0.46751 66.3218 0.468086 66.322 0.468664L66.5556 0.379794L66.3205 0.464681L66.3213 0.466934Z" fill="#E7AA35" stroke="#E7AA35" stroke-width="0.5" stroke-linecap="round" stroke-linejoin="round"/>
<path d="M82.5624 3.90504L82.5624 3.90503L81.3213 0.466934C81.2095 0.177319 80.7899 0.1781 80.6789 0.46681L79.4371 3.90507L79.4353 3.91015L79.4352 3.91013C79.3737 4.06948 79.2653 4.20642 79.1243 4.30281C78.9834 4.39911 78.8167 4.45041 78.646 4.44994M82.5624 3.90504L77.4002 7.19989M82.5624 3.90504L82.564 3.90927C82.6884 4.23531 83.0036 4.44994 83.3532 4.44994H86.4052C86.7385 4.44994 86.8678 4.85496 86.6186 5.04816C86.6138 5.05189 86.6091 5.0558 86.6046 5.05988L84.4392 7.00816M82.5624 3.90504L84.5999 7.19989M78.646 4.44994C78.6459 4.44994 78.6457 4.44994 78.6455 4.44994L78.6464 4.19994V4.44994H78.646ZM78.646 4.44994H75.5943C75.2616 4.44994 75.1323 4.85518 75.3814 5.04806C75.3863 5.05182 75.391 5.05576 75.3955 5.05988L77.5609 7.00816M77.5609 7.00816C77.5582 7.00599 77.5554 7.00383 77.5526 7.00169L77.4002 7.19989M77.5609 7.00816L77.5674 7.01405L77.4002 7.19989M77.5609 7.00816C77.6958 7.11462 77.7945 7.26037 77.8431 7.42538C77.8914 7.58895 77.888 7.76327 77.8339 7.92471M77.4002 7.19989C77.4975 7.27469 77.5686 7.37837 77.6033 7.49608C77.638 7.61379 77.6346 7.73947 77.5934 7.85508M77.8339 7.92471L77.8367 7.91249L77.5934 7.85508M77.8339 7.92471L77.0436 11.2742C77.0414 11.2833 77.0388 11.2923 77.0356 11.3011C76.9293 11.598 77.2774 11.8835 77.5611 11.6838L77.5709 11.6769L77.5711 11.6771L80.5166 9.80805M77.8339 7.92471C77.8323 7.92945 77.8306 7.93418 77.829 7.9389L77.5934 7.85508M77.5934 7.85508L80.5166 9.80805M80.5166 9.80805C80.5148 9.80927 80.5131 9.81049 80.5113 9.81171L80.6551 10.0163L80.5211 9.80516L80.5166 9.80805ZM80.5166 9.80805C80.6586 9.70982 80.8273 9.65714 81.0001 9.65714C81.1729 9.65714 81.3415 9.70982 81.4836 9.80805M80.5166 9.80805L84.4067 7.85508M81.4836 9.80805L81.479 9.80516L81.3451 10.0163L81.4888 9.81171C81.4871 9.81049 81.4853 9.80927 81.4836 9.80805ZM81.4836 9.80805L84.4291 11.6771L84.4391 11.6835L84.4389 11.6837C84.7234 11.8837 85.0709 11.5985 84.9645 11.301C84.9614 11.2923 84.9587 11.2833 84.9566 11.2742L84.1663 7.92471M84.1663 7.92471C84.1679 7.92945 84.1695 7.93418 84.1712 7.9389L84.4067 7.85508M84.1663 7.92471L84.1634 7.91249L84.4067 7.85508M84.1663 7.92471C84.1121 7.76327 84.1088 7.58895 84.157 7.42538C84.2057 7.26037 84.3043 7.11462 84.4392 7.00816M84.4067 7.85508C84.3656 7.73947 84.3621 7.61379 84.3968 7.49608C84.4315 7.37837 84.5026 7.27469 84.5999 7.19989M84.4392 7.00816L84.4327 7.01405L84.5999 7.19989M84.4392 7.00816C84.442 7.00599 84.4448 7.00383 84.4475 7.00169L84.5999 7.19989" fill="#E7AA35" stroke="#E7AA35" stroke-width="0.5" stroke-linecap="round" stroke-linejoin="round"/>
<path d="M95.6734 0.480315L94.4371 3.90503L94.4353 3.91015L94.4352 3.91013C94.3737 4.06948 94.2653 4.20642 94.1243 4.30281C93.9834 4.39911 93.8167 4.45041 93.646 4.44994M95.6734 0.480315L93.6464 4.19994M95.6734 0.480315C95.6751 0.476408 95.6767 0.472443 95.6783 0.468422C95.7883 0.178104 96.2093 0.176781 96.3213 0.466934M95.6734 0.480315L99.1663 7.92471M93.646 4.44994C93.6459 4.44994 93.6457 4.44994 93.6455 4.44994L93.6464 4.19994M93.646 4.44994H93.6464V4.19994M93.646 4.44994H90.5943C90.2616 4.44994 90.1323 4.85518 90.3814 5.04805C90.3863 5.05182 90.391 5.05576 90.3955 5.05987L92.5609 7.00816M93.6464 4.19994H90.5943C90.0315 4.19994 89.7843 4.90193 90.2283 5.24572L92.4002 7.19989M92.5609 7.00816C92.5582 7.00599 92.5554 7.00383 92.5526 7.00169L92.4002 7.19989M92.5609 7.00816L92.5674 7.01404L92.4002 7.19989M92.5609 7.00816C92.6958 7.11462 92.7945 7.26037 92.8431 7.42538C92.8914 7.58894 92.888 7.76327 92.8339 7.92471M92.4002 7.19989C92.4975 7.27468 92.5686 7.37837 92.6033 7.49608C92.638 7.61379 92.6346 7.73947 92.5934 7.85508M92.5934 7.85508L92.8367 7.91249L92.8339 7.92471M92.5934 7.85508L91.8003 11.2168L95.6551 10.0162M92.5934 7.85508L92.829 7.9389C92.8306 7.93418 92.8323 7.92945 92.8339 7.92471M92.8339 7.92471L92.0436 11.2742C92.0414 11.2833 92.0388 11.2923 92.0356 11.3011C91.9293 11.598 92.2774 11.8835 92.5611 11.6838L92.5709 11.6769L92.5711 11.6771L95.5166 9.80804M95.5166 9.80804C95.5148 9.80926 95.5131 9.81048 95.5113 9.81171L95.6551 10.0162M95.5166 9.80804L95.5211 9.80516L95.6551 10.0162M95.5166 9.80804C95.6586 9.70981 95.8273 9.65714 96.0001 9.65714C96.1729 9.65714 96.3415 9.70981 96.4835 9.80804M95.6551 10.0162C95.7561 9.94524 95.8766 9.90714 96.0001 9.90714C96.1236 9.90714 96.244 9.94524 96.3451 10.0162M96.4835 9.80804L96.479 9.80516L96.3451 10.0162M96.4835 9.80804L99.4291 11.6771L99.4391 11.6835L99.4389 11.6837C99.7234 11.8837 100.071 11.5985 99.9645 11.301C99.9614 11.2923 99.9587 11.2833 99.9566 11.2742L99.1663 7.92471M96.4835 9.80804C96.4853 9.80926 96.4871 9.81048 96.4888 9.81171L96.3451 10.0162M96.3451 10.0162L99.1663 7.92471M99.1663 7.92471C99.1679 7.92945 99.1695 7.93418 99.1712 7.9389L99.4067 7.85508L99.1634 7.91249L99.1663 7.92471ZM99.1663 7.92471C99.1121 7.76327 99.1088 7.58894 99.157 7.42538C99.2057 7.26037 99.3043 7.11462 99.4392 7.00816M99.4392 7.00816L99.4327 7.01404L99.5999 7.19989L99.4475 7.00169C99.4448 7.00383 99.442 7.00599 99.4392 7.00816ZM99.4392 7.00816L101.605 5.05987C101.609 5.0558 101.614 5.05189 101.619 5.04815C101.868 4.85496 101.739 4.44994 101.405 4.44994H98.3532C98.0036 4.44994 97.6884 4.23531 97.564 3.90927L97.5624 3.90504L97.5624 3.90503L96.3213 0.466934M96.3213 0.466934C96.3215 0.46751 96.3218 0.468086 96.322 0.468664L96.5556 0.379794L96.3205 0.464681L96.3213 0.466934Z" fill="#E7AA35" stroke="#E7AA35" stroke-width="0.5" stroke-linecap="round" stroke-linejoin="round"/>
<path d="M110.673 0.480315L109.437 3.90503L109.435 3.91015L109.435 3.91013C109.374 4.06948 109.265 4.20642 109.124 4.30281C108.983 4.39911 108.817 4.45041 108.646 4.44994M110.673 0.480315L108.646 4.19994M110.673 0.480315C110.675 0.476408 110.677 0.472443 110.678 0.468422C110.788 0.178104 111.209 0.176781 111.321 0.466934M110.673 0.480315L114.166 7.92471M108.646 4.44994C108.646 4.44994 108.646 4.44994 108.646 4.44994L108.646 4.19994M108.646 4.44994H108.646V4.19994M108.646 4.44994H105.594C105.262 4.44994 105.132 4.85518 105.381 5.04805C105.386 5.05182 105.391 5.05576 105.396 5.05987L107.561 7.00816M108.646 4.19994H105.594C105.032 4.19994 104.784 4.90193 105.228 5.24572L107.4 7.19989M107.561 7.00816C107.558 7.00599 107.555 7.00383 107.553 7.00169L107.4 7.19989M107.561 7.00816L107.567 7.01404L107.4 7.19989M107.561 7.00816C107.696 7.11462 107.794 7.26037 107.843 7.42538C107.891 7.58894 107.888 7.76327 107.834 7.92471M107.4 7.19989C107.498 7.27468 107.569 7.37837 107.603 7.49608C107.638 7.61379 107.635 7.73947 107.593 7.85508M107.593 7.85508L107.837 7.91249L107.834 7.92471M107.593 7.85508L106.8 11.2168L110.655 10.0162M107.593 7.85508L107.829 7.9389C107.831 7.93418 107.832 7.92945 107.834 7.92471M107.834 7.92471L107.044 11.2742C107.041 11.2833 107.039 11.2923 107.036 11.3011C106.929 11.598 107.277 11.8835 107.561 11.6838L107.571 11.6769L107.571 11.6771L110.517 9.80804M110.517 9.80804C110.515 9.80926 110.513 9.81048 110.511 9.81171L110.655 10.0162M110.517 9.80804L110.521 9.80516L110.655 10.0162M110.517 9.80804C110.659 9.70981 110.827 9.65714 111 9.65714C111.173 9.65714 111.342 9.70981 111.484 9.80804M110.655 10.0162C110.756 9.94524 110.877 9.90714 111 9.90714C111.124 9.90714 111.244 9.94524 111.345 10.0162M111.484 9.80804L111.479 9.80516L111.345 10.0162M111.484 9.80804L114.429 11.6771L114.439 11.6835L114.439 11.6837C114.723 11.8837 115.071 11.5985 114.964 11.301C114.961 11.2923 114.959 11.2833 114.957 11.2742L114.166 7.92471M111.484 9.80804C111.485 9.80926 111.487 9.81048 111.489 9.81171L111.345 10.0162M111.345 10.0162L114.166 7.92471M114.166 7.92471C114.168 7.92945 114.17 7.93418 114.171 7.9389L114.407 7.85508L114.163 7.91249L114.166 7.92471ZM114.166 7.92471C114.112 7.76327 114.109 7.58894 114.157 7.42538C114.206 7.26037 114.304 7.11462 114.439 7.00816M114.439 7.00816L114.433 7.01404L114.6 7.19989L114.448 7.00169C114.445 7.00383 114.442 7.00599 114.439 7.00816ZM114.439 7.00816L116.605 5.05987C116.609 5.0558 116.614 5.05189 116.619 5.04815C116.868 4.85496 116.739 4.44994 116.405 4.44994H113.353C113.004 4.44994 112.688 4.23531 112.564 3.90927L112.562 3.90504L112.562 3.90503L111.321 0.466934M111.321 0.466934C111.322 0.46751 111.322 0.468086 111.322 0.468664L111.556 0.379794L111.321 0.464681L111.321 0.466934Z" fill="#E7AA35" stroke="#E7AA35" stroke-width="0.5" stroke-linecap="round" stroke-linejoin="round"/>
<path d="M125.673 0.480315L124.437 3.90503L124.435 3.91015L124.435 3.91013C124.374 4.06948 124.265 4.20642 124.124 4.30281C123.983 4.39911 123.817 4.45041 123.646 4.44994M125.673 0.480315L123.646 4.19994M125.673 0.480315C125.675 0.476408 125.677 0.472443 125.678 0.468422C125.788 0.178104 126.209 0.176781 126.321 0.466934M125.673 0.480315L129.166 7.92471M123.646 4.44994C123.646 4.44994 123.646 4.44994 123.646 4.44994L123.646 4.19994M123.646 4.44994H123.646V4.19994M123.646 4.44994H120.594C120.262 4.44994 120.132 4.85518 120.381 5.04805C120.386 5.05182 120.391 5.05576 120.396 5.05987L122.561 7.00816M123.646 4.19994H120.594C120.032 4.19994 119.784 4.90193 120.228 5.24572L122.4 7.19989M122.561 7.00816C122.558 7.00599 122.555 7.00383 122.553 7.00169L122.4 7.19989M122.561 7.00816L122.567 7.01404L122.4 7.19989M122.561 7.00816C122.696 7.11462 122.794 7.26037 122.843 7.42538C122.891 7.58894 122.888 7.76327 122.834 7.92471M122.4 7.19989C122.498 7.27468 122.569 7.37837 122.603 7.49608C122.638 7.61379 122.635 7.73947 122.593 7.85508M122.593 7.85508L122.837 7.91249L122.834 7.92471M122.593 7.85508L121.8 11.2168L125.655 10.0162M122.593 7.85508L122.829 7.9389C122.831 7.93418 122.832 7.92945 122.834 7.92471M122.834 7.92471L122.044 11.2742C122.041 11.2833 122.039 11.2923 122.036 11.3011C121.929 11.598 122.277 11.8835 122.561 11.6838L122.571 11.6769L122.571 11.6771L125.517 9.80804M125.517 9.80804C125.515 9.80926 125.513 9.81048 125.511 9.81171L125.655 10.0162M125.517 9.80804L125.521 9.80516L125.655 10.0162M125.517 9.80804C125.659 9.70981 125.827 9.65714 126 9.65714C126.173 9.65714 126.342 9.70981 126.484 9.80804M125.655 10.0162C125.756 9.94524 125.877 9.90714 126 9.90714C126.124 9.90714 126.244 9.94524 126.345 10.0162M126.484 9.80804L126.479 9.80516L126.345 10.0162M126.484 9.80804L129.429 11.6771L129.439 11.6835L129.439 11.6837C129.723 11.8837 130.071 11.5985 129.964 11.301C129.961 11.2923 129.959 11.2833 129.957 11.2742L129.166 7.92471M126.484 9.80804C126.485 9.80926 126.487 9.81048 126.489 9.81171L126.345 10.0162M126.345 10.0162L129.166 7.92471M129.166 7.92471C129.168 7.92945 129.17 7.93418 129.171 7.9389L129.407 7.85508L129.163 7.91249L129.166 7.92471ZM129.166 7.92471C129.112 7.76327 129.109 7.58894 129.157 7.42538C129.206 7.26037 129.304 7.11462 129.439 7.00816M129.439 7.00816L129.433 7.01404L129.6 7.19989L129.448 7.00169C129.445 7.00383 129.442 7.00599 129.439 7.00816ZM129.439 7.00816L131.605 5.05987C131.609 5.0558 131.614 5.05189 131.619 5.04815C131.868 4.85496 131.739 4.44994 131.405 4.44994H128.353C128.004 4.44994 127.688 4.23531 127.564 3.90927L127.562 3.90504L127.562 3.90503L126.321 0.466934M126.321 0.466934C126.322 0.46751 126.322 0.468086 126.322 0.468664L126.556 0.379794L126.321 0.464681L126.321 0.466934Z" fill="#E7AA35" stroke="#E7AA35" stroke-width="0.5" stroke-linecap="round" stroke-linejoin="round"/>
<path d="M140.673 0.480315L139.437 3.90503L139.435 3.91015L139.435 3.91013C139.374 4.06948 139.265 4.20642 139.124 4.30281C138.983 4.39911 138.817 4.45041 138.646 4.44994M140.673 0.480315L138.646 4.19994M140.673 0.480315C140.675 0.476408 140.677 0.472443 140.678 0.468422C140.788 0.178104 141.209 0.176781 141.321 0.466934M140.673 0.480315L144.166 7.92471M138.646 4.44994C138.646 4.44994 138.646 4.44994 138.646 4.44994L138.646 4.19994M138.646 4.44994H138.646V4.19994M138.646 4.44994H135.594C135.262 4.44994 135.132 4.85518 135.381 5.04805C135.386 5.05182 135.391 5.05576 135.396 5.05987L137.561 7.00816M138.646 4.19994H135.594C135.032 4.19994 134.784 4.90193 135.228 5.24572L137.4 7.19989M137.561 7.00816C137.558 7.00599 137.555 7.00383 137.553 7.00169L137.4 7.19989M137.561 7.00816L137.567 7.01404L137.4 7.19989M137.561 7.00816C137.696 7.11462 137.794 7.26037 137.843 7.42538C137.891 7.58894 137.888 7.76327 137.834 7.92471M137.4 7.19989C137.498 7.27468 137.569 7.37837 137.603 7.49608C137.638 7.61379 137.635 7.73947 137.593 7.85508M137.593 7.85508L137.837 7.91249L137.834 7.92471M137.593 7.85508L136.8 11.2168L140.655 10.0162M137.593 7.85508L137.829 7.9389C137.831 7.93418 137.832 7.92945 137.834 7.92471M137.834 7.92471L137.044 11.2742C137.041 11.2833 137.039 11.2923 137.036 11.3011C136.929 11.598 137.277 11.8835 137.561 11.6838L137.571 11.6769L137.571 11.6771L140.517 9.80804M140.517 9.80804C140.515 9.80926 140.513 9.81048 140.511 9.81171L140.655 10.0162M140.517 9.80804L140.521 9.80516L140.655 10.0162M140.517 9.80804C140.659 9.70981 140.827 9.65714 141 9.65714C141.173 9.65714 141.342 9.70981 141.484 9.80804M140.655 10.0162C140.756 9.94524 140.877 9.90714 141 9.90714C141.124 9.90714 141.244 9.94524 141.345 10.0162M141.484 9.80804L141.479 9.80516L141.345 10.0162M141.484 9.80804L144.429 11.6771L144.439 11.6835L144.439 11.6837C144.723 11.8837 145.071 11.5985 144.964 11.301C144.961 11.2923 144.959 11.2833 144.957 11.2742L144.166 7.92471M141.484 9.80804C141.485 9.80926 141.487 9.81048 141.489 9.81171L141.345 10.0162M141.345 10.0162L144.166 7.92471M144.166 7.92471C144.168 7.92945 144.17 7.93418 144.171 7.9389L144.407 7.85508L144.163 7.91249L144.166 7.92471ZM144.166 7.92471C144.112 7.76327 144.109 7.58894 144.157 7.42538C144.206 7.26037 144.304 7.11462 144.439 7.00816M144.439 7.00816L144.433 7.01404L144.6 7.19989L144.448 7.00169C144.445 7.00383 144.442 7.00599 144.439 7.00816ZM144.439 7.00816L146.605 5.05987C146.609 5.0558 146.614 5.05189 146.619 5.04815C146.868 4.85496 146.739 4.44994 146.405 4.44994H143.353C143.004 4.44994 142.688 4.23531 142.564 3.90927L142.562 3.90504L142.562 3.90503L141.321 0.466934M141.321 0.466934C141.322 0.46751 141.322 0.468086 141.322 0.468664L141.556 0.379794L141.321 0.464681L141.321 0.466934Z" fill="#E7AA35" stroke="#E7AA35" stroke-width="0.5" stroke-linecap="round" stroke-linejoin="round"/>
</svg>
