<svg width="147" height="12" viewBox="0 0 147 12" fill="none" xmlns="http://www.w3.org/2000/svg">
<path d="M5.90618 0.571749L4.67225 3.98992L4.66855 4.00016L4.66844 4.00011C4.58874 4.2067 4.44819 4.38423 4.26538 4.50919C4.08286 4.63397 3.86679 4.70047 3.64571 4.69994M5.90618 0.571749L3.64638 4.19994M5.90618 0.571749C5.9082 0.566893 5.91015 0.561993 5.91202 0.55705C5.92147 0.532124 5.93308 0.521555 5.94307 0.51511C5.95585 0.506866 5.97557 0.5 5.99985 0.5C6.02412 0.5 6.04395 0.506867 6.05688 0.515204C6.06669 0.521526 6.07797 0.531736 6.08731 0.554987M5.90618 0.571749L8.92544 7.99259M3.64571 4.69994C3.64538 4.69994 3.64504 4.69993 3.64471 4.69993L3.64638 4.19994M3.64571 4.69994H3.64638V4.19994M3.64571 4.69994H0.594313C0.561692 4.69994 0.545563 4.70881 0.536332 4.7157C0.524411 4.72459 0.512593 4.73948 0.505594 4.75943C0.498598 4.77937 0.499058 4.79673 0.50216 4.80835C0.504336 4.8165 0.50984 4.83133 0.534453 4.85039C0.544176 4.85792 0.553618 4.8658 0.56276 4.87403L2.72251 6.81726M3.64638 4.19994H0.594313C0.0315375 4.19994 -0.215651 4.90193 0.228329 5.24572L2.40023 7.19989M2.72251 6.81726C2.71672 6.81262 2.71087 6.80803 2.70497 6.80349L2.40023 7.19989M2.72251 6.81726L2.73466 6.8282L2.40023 7.19989M2.72251 6.81726C2.89457 6.95527 3.02043 7.14277 3.08291 7.35467C3.1445 7.56353 3.1415 7.78586 3.07471 7.9926M2.40023 7.19989C2.49752 7.27468 2.56862 7.37837 2.60333 7.49608C2.63804 7.61379 2.63457 7.73947 2.59342 7.85508M2.59342 7.85508L3.08006 7.9699L3.07471 7.9926M2.59342 7.85508L1.80026 11.2168L5.65509 10.0162M2.59342 7.85508L3.06448 8.02272C3.06804 8.01272 3.07145 8.00268 3.07471 7.9926M3.07471 7.9926L2.2869 11.3316C2.2826 11.3499 2.27729 11.3678 2.27098 11.3854C2.26098 11.4133 2.26444 11.4272 2.26705 11.4349C2.27102 11.4466 2.28126 11.4632 2.30109 11.4779C2.32089 11.4926 2.34194 11.4991 2.35865 11.4999C2.37154 11.5004 2.39027 11.4983 2.4172 11.4794C2.42374 11.4748 2.43038 11.4703 2.43713 11.466L5.37874 9.59944M5.37874 9.59944C5.375 9.602 5.37129 9.60457 5.36758 9.60718L5.65509 10.0162M5.37874 9.59944L5.3872 9.59407L5.65509 10.0162M5.37874 9.59944C5.56164 9.47423 5.77821 9.40714 6.00007 9.40714C6.22194 9.40714 6.4385 9.47423 6.6214 9.59944M5.65509 10.0162C5.75612 9.94524 5.87659 9.90714 6.00007 9.90714C6.12355 9.90714 6.24403 9.94524 6.34506 10.0162M6.6214 9.59944L6.61295 9.59407L6.34506 10.0162M6.6214 9.59944L9.56302 11.466C9.56968 11.4703 9.57624 11.4747 9.5827 11.4792C9.60997 11.4984 9.62897 11.5005 9.64194 11.4999C9.65871 11.4992 9.67967 11.4927 9.69931 11.4781C9.71898 11.4635 9.72915 11.447 9.73311 11.4354C9.73571 11.4277 9.73923 11.4136 9.72911 11.3853C9.72283 11.3677 9.71753 11.3498 9.71325 11.3316L8.92544 7.99259M6.6214 9.59944C6.62514 9.60199 6.62886 9.60457 6.63256 9.60718L6.34506 10.0162M6.34506 10.0162L8.92544 7.99259M8.92544 7.99259C8.92869 8.00267 8.9321 8.01272 8.93566 8.02272L9.40672 7.85508L8.92008 7.9699L8.92544 7.99259ZM8.92544 7.99259C8.85865 7.78586 8.85565 7.56352 8.91723 7.35467C8.97971 7.14276 9.10558 6.95527 9.27764 6.81726M9.27764 6.81726L9.26548 6.8282L9.59991 7.19989L9.29517 6.80349C9.28928 6.80802 9.28343 6.81261 9.27764 6.81726ZM9.27764 6.81726L11.4374 4.87403C11.4464 4.86588 11.4558 4.85806 11.4654 4.85059C11.49 4.83154 11.4956 4.81664 11.4978 4.80831C11.501 4.79655 11.5014 4.77915 11.4944 4.75929C11.4875 4.73943 11.4757 4.72464 11.4639 4.7158C11.4547 4.70895 11.4384 4.69994 11.4052 4.69994H8.35317C7.90112 4.69994 7.49226 4.42248 7.33044 3.99839L7.32722 3.98994L7.3273 3.98992L6.08731 0.554987M6.08731 0.554987C6.08764 0.555819 6.08798 0.556668 6.08831 0.557534L6.55565 0.379794L6.08535 0.549568L6.08731 0.554987Z" stroke="#E7AA35" stroke-linecap="round" stroke-linejoin="round"/>
<path d="M20.9062 0.571749L19.6722 3.98992L19.6686 4.00016L19.6684 4.00011C19.5887 4.2067 19.4482 4.38423 19.2654 4.50919C19.0829 4.63397 18.8668 4.70047 18.6457 4.69994M20.9062 0.571749L18.6464 4.19994M20.9062 0.571749C20.9082 0.566893 20.9101 0.561993 20.912 0.55705C20.9215 0.532124 20.9331 0.521555 20.9431 0.51511C20.9559 0.506866 20.9756 0.5 20.9998 0.5C21.0241 0.5 21.0439 0.506867 21.0569 0.515204C21.0667 0.521526 21.078 0.531736 21.0873 0.554987M20.9062 0.571749L23.9254 7.99259M18.6457 4.69994C18.6454 4.69994 18.645 4.69993 18.6447 4.69993L18.6464 4.19994M18.6457 4.69994H18.6464V4.19994M18.6457 4.69994H15.5943C15.5617 4.69994 15.5456 4.70881 15.5363 4.7157C15.5244 4.72459 15.5126 4.73948 15.5056 4.75943C15.4986 4.77937 15.4991 4.79673 15.5022 4.80835C15.5043 4.8165 15.5098 4.83133 15.5345 4.85039C15.5442 4.85792 15.5536 4.8658 15.5628 4.87403L17.7225 6.81726M18.6464 4.19994H15.5943C15.0315 4.19994 14.7843 4.90193 15.2283 5.24572L17.4002 7.19989M17.7225 6.81726C17.7167 6.81262 17.7109 6.80803 17.705 6.80349L17.4002 7.19989M17.7225 6.81726L17.7347 6.8282L17.4002 7.19989M17.7225 6.81726C17.8946 6.95527 18.0204 7.14277 18.0829 7.35467C18.1445 7.56353 18.1415 7.78586 18.0747 7.9926M17.4002 7.19989C17.4975 7.27468 17.5686 7.37837 17.6033 7.49608C17.638 7.61379 17.6346 7.73947 17.5934 7.85508M17.5934 7.85508L18.0801 7.9699L18.0747 7.9926M17.5934 7.85508L16.8003 11.2168L20.6551 10.0162M17.5934 7.85508L18.0645 8.02272C18.068 8.01272 18.0715 8.00268 18.0747 7.9926M18.0747 7.9926L17.2869 11.3316C17.2826 11.3499 17.2773 11.3678 17.271 11.3854C17.261 11.4133 17.2644 11.4272 17.267 11.4349C17.271 11.4466 17.2813 11.4632 17.3011 11.4779C17.3209 11.4926 17.3419 11.4991 17.3587 11.4999C17.3715 11.5004 17.3903 11.4983 17.4172 11.4794C17.4237 11.4748 17.4304 11.4703 17.4371 11.466L20.3787 9.59944M20.3787 9.59944C20.375 9.602 20.3713 9.60457 20.3676 9.60718L20.6551 10.0162M20.3787 9.59944L20.3872 9.59407L20.6551 10.0162M20.3787 9.59944C20.5616 9.47423 20.7782 9.40714 21.0001 9.40714C21.2219 9.40714 21.4385 9.47423 21.6214 9.59944M20.6551 10.0162C20.7561 9.94524 20.8766 9.90714 21.0001 9.90714C21.1236 9.90714 21.244 9.94524 21.3451 10.0162M21.6214 9.59944L21.613 9.59407L21.3451 10.0162M21.6214 9.59944L24.563 11.466C24.5697 11.4703 24.5762 11.4747 24.5827 11.4792C24.61 11.4984 24.629 11.5005 24.6419 11.4999C24.6587 11.4992 24.6797 11.4927 24.6993 11.4781C24.719 11.4635 24.7292 11.447 24.7331 11.4354C24.7357 11.4277 24.7392 11.4136 24.7291 11.3853C24.7228 11.3677 24.7175 11.3498 24.7132 11.3316L23.9254 7.99259M21.6214 9.59944C21.6251 9.60199 21.6289 9.60457 21.6326 9.60718L21.3451 10.0162M21.3451 10.0162L23.9254 7.99259M23.9254 7.99259C23.9287 8.00267 23.9321 8.01272 23.9357 8.02272L24.4067 7.85508L23.9201 7.9699L23.9254 7.99259ZM23.9254 7.99259C23.8586 7.78586 23.8556 7.56352 23.9172 7.35467C23.9797 7.14276 24.1056 6.95527 24.2776 6.81726M24.2776 6.81726L24.2655 6.8282L24.5999 7.19989L24.2952 6.80349C24.2893 6.80802 24.2834 6.81261 24.2776 6.81726ZM24.2776 6.81726L26.4374 4.87403C26.4464 4.86588 26.4558 4.85806 26.4654 4.85059C26.49 4.83154 26.4956 4.81664 26.4978 4.80831C26.501 4.79655 26.5014 4.77915 26.4944 4.75929C26.4875 4.73943 26.4757 4.72464 26.4639 4.7158C26.4547 4.70895 26.4384 4.69994 26.4052 4.69994H23.3532C22.9011 4.69994 22.4923 4.42248 22.3304 3.99839L22.3272 3.98994L22.3273 3.98992L21.0873 0.554987M21.0873 0.554987C21.0876 0.555819 21.088 0.556668 21.0883 0.557534L21.5556 0.379794L21.0854 0.549568L21.0873 0.554987Z" stroke="#E7AA35" stroke-linecap="round" stroke-linejoin="round"/>
<path d="M35.9062 0.571749L34.6722 3.98992L34.6686 4.00016L34.6684 4.00011C34.5887 4.2067 34.4482 4.38423 34.2654 4.50919C34.0829 4.63397 33.8668 4.70047 33.6457 4.69994M35.9062 0.571749L33.6464 4.19994M35.9062 0.571749C35.9082 0.566893 35.9101 0.561993 35.912 0.55705C35.9215 0.532124 35.9331 0.521555 35.9431 0.51511C35.9559 0.506866 35.9756 0.5 35.9998 0.5C36.0241 0.5 36.0439 0.506867 36.0569 0.515204C36.0667 0.521526 36.078 0.531736 36.0873 0.554987M35.9062 0.571749L38.9254 7.99259M33.6457 4.69994C33.6454 4.69994 33.645 4.69993 33.6447 4.69993L33.6464 4.19994M33.6457 4.69994H33.6464V4.19994M33.6457 4.69994H30.5943C30.5617 4.69994 30.5456 4.70881 30.5363 4.7157C30.5244 4.72459 30.5126 4.73948 30.5056 4.75943C30.4986 4.77937 30.4991 4.79673 30.5022 4.80835C30.5043 4.8165 30.5098 4.83133 30.5345 4.85039C30.5442 4.85792 30.5536 4.8658 30.5628 4.87403L32.7225 6.81726M33.6464 4.19994H30.5943C30.0315 4.19994 29.7843 4.90193 30.2283 5.24572L32.4002 7.19989M32.7225 6.81726C32.7167 6.81262 32.7109 6.80803 32.705 6.80349L32.4002 7.19989M32.7225 6.81726L32.7347 6.8282L32.4002 7.19989M32.7225 6.81726C32.8946 6.95527 33.0204 7.14277 33.0829 7.35467C33.1445 7.56353 33.1415 7.78586 33.0747 7.9926M32.4002 7.19989C32.4975 7.27468 32.5686 7.37837 32.6033 7.49608C32.638 7.61379 32.6346 7.73947 32.5934 7.85508M32.5934 7.85508L33.0801 7.9699L33.0747 7.9926M32.5934 7.85508L31.8003 11.2168L35.6551 10.0162M32.5934 7.85508L33.0645 8.02272C33.068 8.01272 33.0715 8.00268 33.0747 7.9926M33.0747 7.9926L32.2869 11.3316C32.2826 11.3499 32.2773 11.3678 32.271 11.3854C32.261 11.4133 32.2644 11.4272 32.267 11.4349C32.271 11.4466 32.2813 11.4632 32.3011 11.4779C32.3209 11.4926 32.3419 11.4991 32.3587 11.4999C32.3715 11.5004 32.3903 11.4983 32.4172 11.4794C32.4237 11.4748 32.4304 11.4703 32.4371 11.466L35.3787 9.59944M35.3787 9.59944C35.375 9.602 35.3713 9.60457 35.3676 9.60718L35.6551 10.0162M35.3787 9.59944L35.3872 9.59407L35.6551 10.0162M35.3787 9.59944C35.5616 9.47423 35.7782 9.40714 36.0001 9.40714C36.2219 9.40714 36.4385 9.47423 36.6214 9.59944M35.6551 10.0162C35.7561 9.94524 35.8766 9.90714 36.0001 9.90714C36.1236 9.90714 36.244 9.94524 36.3451 10.0162M36.6214 9.59944L36.613 9.59407L36.3451 10.0162M36.6214 9.59944L39.563 11.466C39.5697 11.4703 39.5762 11.4747 39.5827 11.4792C39.61 11.4984 39.629 11.5005 39.6419 11.4999C39.6587 11.4992 39.6797 11.4927 39.6993 11.4781C39.719 11.4635 39.7292 11.447 39.7331 11.4354C39.7357 11.4277 39.7392 11.4136 39.7291 11.3853C39.7228 11.3677 39.7175 11.3498 39.7132 11.3316L38.9254 7.99259M36.6214 9.59944C36.6251 9.60199 36.6289 9.60457 36.6326 9.60718L36.3451 10.0162M36.3451 10.0162L38.9254 7.99259M38.9254 7.99259C38.9287 8.00267 38.9321 8.01272 38.9357 8.02272L39.4067 7.85508L38.9201 7.9699L38.9254 7.99259ZM38.9254 7.99259C38.8586 7.78586 38.8556 7.56352 38.9172 7.35467C38.9797 7.14276 39.1056 6.95527 39.2776 6.81726M39.2776 6.81726L39.2655 6.8282L39.5999 7.19989L39.2952 6.80349C39.2893 6.80802 39.2834 6.81261 39.2776 6.81726ZM39.2776 6.81726L41.4374 4.87403C41.4464 4.86588 41.4558 4.85806 41.4654 4.85059C41.49 4.83154 41.4956 4.81664 41.4978 4.80831C41.501 4.79655 41.5014 4.77915 41.4944 4.75929C41.4875 4.73943 41.4757 4.72464 41.4639 4.7158C41.4547 4.70895 41.4384 4.69994 41.4052 4.69994H38.3532C37.9011 4.69994 37.4923 4.42248 37.3304 3.99839L37.3272 3.98994L37.3273 3.98992L36.0873 0.554987M36.0873 0.554987C36.0876 0.555819 36.088 0.556668 36.0883 0.557534L36.5556 0.379794L36.0854 0.549568L36.0873 0.554987Z" stroke="#E7AA35" stroke-linecap="round" stroke-linejoin="round"/>
<path d="M50.9062 0.571749L49.6722 3.98992L49.6686 4.00016L49.6684 4.00011C49.5887 4.2067 49.4482 4.38423 49.2654 4.50919C49.0829 4.63397 48.8668 4.70047 48.6457 4.69994M50.9062 0.571749L48.6464 4.19994M50.9062 0.571749C50.9082 0.566893 50.9101 0.561993 50.912 0.55705C50.9215 0.532124 50.9331 0.521555 50.9431 0.51511C50.9559 0.506866 50.9756 0.5 50.9998 0.5C51.0241 0.5 51.0439 0.506867 51.0569 0.515204C51.0667 0.521526 51.078 0.531736 51.0873 0.554987M50.9062 0.571749L53.9254 7.99259M48.6457 4.69994C48.6454 4.69994 48.645 4.69993 48.6447 4.69993L48.6464 4.19994M48.6457 4.69994H48.6464V4.19994M48.6457 4.69994H45.5943C45.5617 4.69994 45.5456 4.70881 45.5363 4.7157C45.5244 4.72459 45.5126 4.73948 45.5056 4.75943C45.4986 4.77937 45.4991 4.79673 45.5022 4.80835C45.5043 4.8165 45.5098 4.83133 45.5345 4.85039C45.5442 4.85792 45.5536 4.8658 45.5628 4.87403L47.7225 6.81726M48.6464 4.19994H45.5943C45.0315 4.19994 44.7843 4.90193 45.2283 5.24572L47.4002 7.19989M47.7225 6.81726C47.7167 6.81262 47.7109 6.80803 47.705 6.80349L47.4002 7.19989M47.7225 6.81726L47.7347 6.8282L47.4002 7.19989M47.7225 6.81726C47.8946 6.95527 48.0204 7.14277 48.0829 7.35467C48.1445 7.56353 48.1415 7.78586 48.0747 7.9926M47.4002 7.19989C47.4975 7.27468 47.5686 7.37837 47.6033 7.49608C47.638 7.61379 47.6346 7.73947 47.5934 7.85508M47.5934 7.85508L48.0801 7.9699L48.0747 7.9926M47.5934 7.85508L46.8003 11.2168L50.6551 10.0162M47.5934 7.85508L48.0645 8.02272C48.068 8.01272 48.0715 8.00268 48.0747 7.9926M48.0747 7.9926L47.2869 11.3316C47.2826 11.3499 47.2773 11.3678 47.271 11.3854C47.261 11.4133 47.2644 11.4272 47.267 11.4349C47.271 11.4466 47.2813 11.4632 47.3011 11.4779C47.3209 11.4926 47.3419 11.4991 47.3587 11.4999C47.3715 11.5004 47.3903 11.4983 47.4172 11.4794C47.4237 11.4748 47.4304 11.4703 47.4371 11.466L50.3787 9.59944M50.3787 9.59944C50.375 9.602 50.3713 9.60457 50.3676 9.60718L50.6551 10.0162M50.3787 9.59944L50.3872 9.59407L50.6551 10.0162M50.3787 9.59944C50.5616 9.47423 50.7782 9.40714 51.0001 9.40714C51.2219 9.40714 51.4385 9.47423 51.6214 9.59944M50.6551 10.0162C50.7561 9.94524 50.8766 9.90714 51.0001 9.90714C51.1236 9.90714 51.244 9.94524 51.3451 10.0162M51.6214 9.59944L51.613 9.59407L51.3451 10.0162M51.6214 9.59944L54.563 11.466C54.5697 11.4703 54.5762 11.4747 54.5827 11.4792C54.61 11.4984 54.629 11.5005 54.6419 11.4999C54.6587 11.4992 54.6797 11.4927 54.6993 11.4781C54.719 11.4635 54.7292 11.447 54.7331 11.4354C54.7357 11.4277 54.7392 11.4136 54.7291 11.3853C54.7228 11.3677 54.7175 11.3498 54.7132 11.3316L53.9254 7.99259M51.6214 9.59944C51.6251 9.60199 51.6289 9.60457 51.6326 9.60718L51.3451 10.0162M51.3451 10.0162L53.9254 7.99259M53.9254 7.99259C53.9287 8.00267 53.9321 8.01272 53.9357 8.02272L54.4067 7.85508L53.9201 7.9699L53.9254 7.99259ZM53.9254 7.99259C53.8586 7.78586 53.8556 7.56352 53.9172 7.35467C53.9797 7.14276 54.1056 6.95527 54.2776 6.81726M54.2776 6.81726L54.2655 6.8282L54.5999 7.19989L54.2952 6.80349C54.2893 6.80802 54.2834 6.81261 54.2776 6.81726ZM54.2776 6.81726L56.4374 4.87403C56.4464 4.86588 56.4558 4.85806 56.4654 4.85059C56.49 4.83154 56.4956 4.81664 56.4978 4.80831C56.501 4.79655 56.5014 4.77915 56.4944 4.75929C56.4875 4.73943 56.4757 4.72464 56.4639 4.7158C56.4547 4.70895 56.4384 4.69994 56.4052 4.69994H53.3532C52.9011 4.69994 52.4923 4.42248 52.3304 3.99839L52.3272 3.98994L52.3273 3.98992L51.0873 0.554987M51.0873 0.554987C51.0876 0.555819 51.088 0.556668 51.0883 0.557534L51.5556 0.379794L51.0854 0.549568L51.0873 0.554987Z" stroke="#E7AA35" stroke-linecap="round" stroke-linejoin="round"/>
<path d="M65.9062 0.571749L64.6722 3.98992L64.6686 4.00016L64.6684 4.00011C64.5887 4.2067 64.4482 4.38423 64.2654 4.50919C64.0829 4.63397 63.8668 4.70047 63.6457 4.69994M65.9062 0.571749L63.6464 4.19994M65.9062 0.571749C65.9082 0.566893 65.9101 0.561993 65.912 0.55705C65.9215 0.532124 65.9331 0.521555 65.9431 0.51511C65.9559 0.506866 65.9756 0.5 65.9998 0.5C66.0241 0.5 66.0439 0.506867 66.0569 0.515204C66.0667 0.521526 66.078 0.531736 66.0873 0.554987M65.9062 0.571749L68.9254 7.99259M63.6457 4.69994C63.6454 4.69994 63.645 4.69993 63.6447 4.69993L63.6464 4.19994M63.6457 4.69994H63.6464V4.19994M63.6457 4.69994H60.5943C60.5617 4.69994 60.5456 4.70881 60.5363 4.7157C60.5244 4.72459 60.5126 4.73948 60.5056 4.75943C60.4986 4.77937 60.4991 4.79673 60.5022 4.80835C60.5043 4.8165 60.5098 4.83133 60.5345 4.85039C60.5442 4.85792 60.5536 4.8658 60.5628 4.87403L62.7225 6.81726M63.6464 4.19994H60.5943C60.0315 4.19994 59.7843 4.90193 60.2283 5.24572L62.4002 7.19989M62.7225 6.81726C62.7167 6.81262 62.7109 6.80803 62.705 6.80349L62.4002 7.19989M62.7225 6.81726L62.7347 6.8282L62.4002 7.19989M62.7225 6.81726C62.8946 6.95527 63.0204 7.14277 63.0829 7.35467C63.1445 7.56353 63.1415 7.78586 63.0747 7.9926M62.4002 7.19989C62.4975 7.27468 62.5686 7.37837 62.6033 7.49608C62.638 7.61379 62.6346 7.73947 62.5934 7.85508M62.5934 7.85508L63.0801 7.9699L63.0747 7.9926M62.5934 7.85508L61.8003 11.2168L65.6551 10.0162M62.5934 7.85508L63.0645 8.02272C63.068 8.01272 63.0715 8.00268 63.0747 7.9926M63.0747 7.9926L62.2869 11.3316C62.2826 11.3499 62.2773 11.3678 62.271 11.3854C62.261 11.4133 62.2644 11.4272 62.267 11.4349C62.271 11.4466 62.2813 11.4632 62.3011 11.4779C62.3209 11.4926 62.3419 11.4991 62.3587 11.4999C62.3715 11.5004 62.3903 11.4983 62.4172 11.4794C62.4237 11.4748 62.4304 11.4703 62.4371 11.466L65.3787 9.59944M65.3787 9.59944C65.375 9.602 65.3713 9.60457 65.3676 9.60718L65.6551 10.0162M65.3787 9.59944L65.3872 9.59407L65.6551 10.0162M65.3787 9.59944C65.5616 9.47423 65.7782 9.40714 66.0001 9.40714C66.2219 9.40714 66.4385 9.47423 66.6214 9.59944M65.6551 10.0162C65.7561 9.94524 65.8766 9.90714 66.0001 9.90714C66.1236 9.90714 66.244 9.94524 66.3451 10.0162M66.6214 9.59944L66.613 9.59407L66.3451 10.0162M66.6214 9.59944L69.563 11.466C69.5697 11.4703 69.5762 11.4747 69.5827 11.4792C69.61 11.4984 69.629 11.5005 69.6419 11.4999C69.6587 11.4992 69.6797 11.4927 69.6993 11.4781C69.719 11.4635 69.7292 11.447 69.7331 11.4354C69.7357 11.4277 69.7392 11.4136 69.7291 11.3853C69.7228 11.3677 69.7175 11.3498 69.7132 11.3316L68.9254 7.99259M66.6214 9.59944C66.6251 9.60199 66.6289 9.60457 66.6326 9.60718L66.3451 10.0162M66.3451 10.0162L68.9254 7.99259M68.9254 7.99259C68.9287 8.00267 68.9321 8.01272 68.9357 8.02272L69.4067 7.85508L68.9201 7.9699L68.9254 7.99259ZM68.9254 7.99259C68.8586 7.78586 68.8556 7.56352 68.9172 7.35467C68.9797 7.14276 69.1056 6.95527 69.2776 6.81726M69.2776 6.81726L69.2655 6.8282L69.5999 7.19989L69.2952 6.80349C69.2893 6.80802 69.2834 6.81261 69.2776 6.81726ZM69.2776 6.81726L71.4374 4.87403C71.4464 4.86588 71.4558 4.85806 71.4654 4.85059C71.49 4.83154 71.4956 4.81664 71.4978 4.80831C71.501 4.79655 71.5014 4.77915 71.4944 4.75929C71.4875 4.73943 71.4757 4.72464 71.4639 4.7158C71.4547 4.70895 71.4384 4.69994 71.4052 4.69994H68.3532C67.9011 4.69994 67.4923 4.42248 67.3304 3.99839L67.3272 3.98994L67.3273 3.98992L66.0873 0.554987M66.0873 0.554987C66.0876 0.555819 66.088 0.556668 66.0883 0.557534L66.5556 0.379794L66.0854 0.549568L66.0873 0.554987Z" stroke="#E7AA35" stroke-linecap="round" stroke-linejoin="round"/>
<path d="M80.9062 0.571749L79.6722 3.98992L79.6686 4.00016L79.6684 4.00011C79.5887 4.2067 79.4482 4.38423 79.2654 4.50919C79.0829 4.63397 78.8668 4.70047 78.6457 4.69994M80.9062 0.571749L78.6464 4.19994M80.9062 0.571749C80.9082 0.566893 80.9101 0.561993 80.912 0.55705C80.9215 0.532124 80.9331 0.521555 80.9431 0.51511C80.9559 0.506866 80.9756 0.5 80.9998 0.5C81.0241 0.5 81.0439 0.506867 81.0569 0.515204C81.0667 0.521526 81.078 0.531736 81.0873 0.554987M80.9062 0.571749L83.9254 7.99259M78.6457 4.69994C78.6454 4.69994 78.645 4.69993 78.6447 4.69993L78.6464 4.19994M78.6457 4.69994H78.6464V4.19994M78.6457 4.69994H75.5943C75.5617 4.69994 75.5456 4.70881 75.5363 4.7157C75.5244 4.72459 75.5126 4.73948 75.5056 4.75943C75.4986 4.77937 75.4991 4.79673 75.5022 4.80835C75.5043 4.8165 75.5098 4.83133 75.5345 4.85039C75.5442 4.85792 75.5536 4.8658 75.5628 4.87403L77.7225 6.81726M78.6464 4.19994H75.5943C75.0315 4.19994 74.7843 4.90193 75.2283 5.24572L77.4002 7.19989M77.7225 6.81726C77.7167 6.81262 77.7109 6.80803 77.705 6.80349L77.4002 7.19989M77.7225 6.81726L77.7347 6.8282L77.4002 7.19989M77.7225 6.81726C77.8946 6.95527 78.0204 7.14277 78.0829 7.35467C78.1445 7.56353 78.1415 7.78586 78.0747 7.9926M77.4002 7.19989C77.4975 7.27468 77.5686 7.37837 77.6033 7.49608C77.638 7.61379 77.6346 7.73947 77.5934 7.85508M77.5934 7.85508L78.0801 7.9699L78.0747 7.9926M77.5934 7.85508L76.8003 11.2168L80.6551 10.0162M77.5934 7.85508L78.0645 8.02272C78.068 8.01272 78.0715 8.00268 78.0747 7.9926M78.0747 7.9926L77.2869 11.3316C77.2826 11.3499 77.2773 11.3678 77.271 11.3854C77.261 11.4133 77.2644 11.4272 77.267 11.4349C77.271 11.4466 77.2813 11.4632 77.3011 11.4779C77.3209 11.4926 77.3419 11.4991 77.3587 11.4999C77.3715 11.5004 77.3903 11.4983 77.4172 11.4794C77.4237 11.4748 77.4304 11.4703 77.4371 11.466L80.3787 9.59944M80.3787 9.59944C80.375 9.602 80.3713 9.60457 80.3676 9.60718L80.6551 10.0162M80.3787 9.59944L80.3872 9.59407L80.6551 10.0162M80.3787 9.59944C80.5616 9.47423 80.7782 9.40714 81.0001 9.40714C81.2219 9.40714 81.4385 9.47423 81.6214 9.59944M80.6551 10.0162C80.7561 9.94524 80.8766 9.90714 81.0001 9.90714C81.1236 9.90714 81.244 9.94524 81.3451 10.0162M81.6214 9.59944L81.613 9.59407L81.3451 10.0162M81.6214 9.59944L84.563 11.466C84.5697 11.4703 84.5762 11.4747 84.5827 11.4792C84.61 11.4984 84.629 11.5005 84.6419 11.4999C84.6587 11.4992 84.6797 11.4927 84.6993 11.4781C84.719 11.4635 84.7292 11.447 84.7331 11.4354C84.7357 11.4277 84.7392 11.4136 84.7291 11.3853C84.7228 11.3677 84.7175 11.3498 84.7132 11.3316L83.9254 7.99259M81.6214 9.59944C81.6251 9.60199 81.6289 9.60457 81.6326 9.60718L81.3451 10.0162M81.3451 10.0162L83.9254 7.99259M83.9254 7.99259C83.9287 8.00267 83.9321 8.01272 83.9357 8.02272L84.4067 7.85508L83.9201 7.9699L83.9254 7.99259ZM83.9254 7.99259C83.8586 7.78586 83.8556 7.56352 83.9172 7.35467C83.9797 7.14276 84.1056 6.95527 84.2776 6.81726M84.2776 6.81726L84.2655 6.8282L84.5999 7.19989L84.2952 6.80349C84.2893 6.80802 84.2834 6.81261 84.2776 6.81726ZM84.2776 6.81726L86.4374 4.87403C86.4464 4.86588 86.4558 4.85806 86.4654 4.85059C86.49 4.83154 86.4956 4.81664 86.4978 4.80831C86.501 4.79655 86.5014 4.77915 86.4944 4.75929C86.4875 4.73943 86.4757 4.72464 86.4639 4.7158C86.4547 4.70895 86.4384 4.69994 86.4052 4.69994H83.3532C82.9011 4.69994 82.4923 4.42248 82.3304 3.99839L82.3272 3.98994L82.3273 3.98992L81.0873 0.554987M81.0873 0.554987C81.0876 0.555819 81.088 0.556668 81.0883 0.557534L81.5556 0.379794L81.0854 0.549568L81.0873 0.554987Z" stroke="#E7AA35" stroke-linecap="round" stroke-linejoin="round"/>
<path d="M95.9062 0.571749L94.6722 3.98992L94.6686 4.00016L94.6684 4.00011C94.5887 4.2067 94.4482 4.38423 94.2654 4.50919C94.0829 4.63397 93.8668 4.70047 93.6457 4.69994M95.9062 0.571749L93.6464 4.19994M95.9062 0.571749C95.9082 0.566893 95.9101 0.561993 95.912 0.55705C95.9215 0.532124 95.9331 0.521555 95.9431 0.51511C95.9559 0.506866 95.9756 0.5 95.9998 0.5C96.0241 0.5 96.0439 0.506867 96.0569 0.515204C96.0667 0.521526 96.078 0.531736 96.0873 0.554987M95.9062 0.571749L98.9254 7.99259M93.6457 4.69994C93.6454 4.69994 93.645 4.69993 93.6447 4.69993L93.6464 4.19994M93.6457 4.69994H93.6464V4.19994M93.6457 4.69994H90.5943C90.5617 4.69994 90.5456 4.70881 90.5363 4.7157C90.5244 4.72459 90.5126 4.73948 90.5056 4.75943C90.4986 4.77937 90.4991 4.79673 90.5022 4.80835C90.5043 4.8165 90.5098 4.83133 90.5345 4.85039C90.5442 4.85792 90.5536 4.8658 90.5628 4.87403L92.7225 6.81726M93.6464 4.19994H90.5943C90.0315 4.19994 89.7843 4.90193 90.2283 5.24572L92.4002 7.19989M92.7225 6.81726C92.7167 6.81262 92.7109 6.80803 92.705 6.80349L92.4002 7.19989M92.7225 6.81726L92.7347 6.8282L92.4002 7.19989M92.7225 6.81726C92.8946 6.95527 93.0204 7.14277 93.0829 7.35467C93.1445 7.56353 93.1415 7.78586 93.0747 7.9926M92.4002 7.19989C92.4975 7.27468 92.5686 7.37837 92.6033 7.49608C92.638 7.61379 92.6346 7.73947 92.5934 7.85508M92.5934 7.85508L93.0801 7.9699L93.0747 7.9926M92.5934 7.85508L91.8003 11.2168L95.6551 10.0162M92.5934 7.85508L93.0645 8.02272C93.068 8.01272 93.0715 8.00268 93.0747 7.9926M93.0747 7.9926L92.2869 11.3316C92.2826 11.3499 92.2773 11.3678 92.271 11.3854C92.261 11.4133 92.2644 11.4272 92.267 11.4349C92.271 11.4466 92.2813 11.4632 92.3011 11.4779C92.3209 11.4926 92.3419 11.4991 92.3587 11.4999C92.3715 11.5004 92.3903 11.4983 92.4172 11.4794C92.4237 11.4748 92.4304 11.4703 92.4371 11.466L95.3787 9.59944M95.3787 9.59944C95.375 9.602 95.3713 9.60457 95.3676 9.60718L95.6551 10.0162M95.3787 9.59944L95.3872 9.59407L95.6551 10.0162M95.3787 9.59944C95.5616 9.47423 95.7782 9.40714 96.0001 9.40714C96.2219 9.40714 96.4385 9.47423 96.6214 9.59944M95.6551 10.0162C95.7561 9.94524 95.8766 9.90714 96.0001 9.90714C96.1236 9.90714 96.244 9.94524 96.3451 10.0162M96.6214 9.59944L96.613 9.59407L96.3451 10.0162M96.6214 9.59944L99.563 11.466C99.5697 11.4703 99.5762 11.4747 99.5827 11.4792C99.61 11.4984 99.629 11.5005 99.6419 11.4999C99.6587 11.4992 99.6797 11.4927 99.6993 11.4781C99.719 11.4635 99.7292 11.447 99.7331 11.4354C99.7357 11.4277 99.7392 11.4136 99.7291 11.3853C99.7228 11.3677 99.7175 11.3498 99.7132 11.3316L98.9254 7.99259M96.6214 9.59944C96.6251 9.60199 96.6289 9.60457 96.6326 9.60718L96.3451 10.0162M96.3451 10.0162L98.9254 7.99259M98.9254 7.99259C98.9287 8.00267 98.9321 8.01272 98.9357 8.02272L99.4067 7.85508L98.9201 7.9699L98.9254 7.99259ZM98.9254 7.99259C98.8586 7.78586 98.8556 7.56352 98.9172 7.35467C98.9797 7.14276 99.1056 6.95527 99.2776 6.81726M99.2776 6.81726L99.2655 6.8282L99.5999 7.19989L99.2952 6.80349C99.2893 6.80802 99.2834 6.81261 99.2776 6.81726ZM99.2776 6.81726L101.437 4.87403C101.446 4.86588 101.456 4.85806 101.465 4.85059C101.49 4.83154 101.496 4.81664 101.498 4.80831C101.501 4.79655 101.501 4.77915 101.494 4.75929C101.487 4.73943 101.476 4.72464 101.464 4.7158C101.455 4.70895 101.438 4.69994 101.405 4.69994H98.3532C97.9011 4.69994 97.4923 4.42248 97.3304 3.99839L97.3272 3.98994L97.3273 3.98992L96.0873 0.554987M96.0873 0.554987C96.0876 0.555819 96.088 0.556668 96.0883 0.557534L96.5556 0.379794L96.0854 0.549568L96.0873 0.554987Z" stroke="#E7AA35" stroke-linecap="round" stroke-linejoin="round"/>
<path d="M110.906 0.571749L109.672 3.98992L109.669 4.00016L109.668 4.00011C109.589 4.2067 109.448 4.38423 109.265 4.50919C109.083 4.63397 108.867 4.70047 108.646 4.69994M110.906 0.571749L108.646 4.19994M110.906 0.571749C110.908 0.566893 110.91 0.561993 110.912 0.55705C110.921 0.532124 110.933 0.521555 110.943 0.51511C110.956 0.506866 110.976 0.5 111 0.5C111.024 0.5 111.044 0.506867 111.057 0.515204C111.067 0.521526 111.078 0.531736 111.087 0.554987M110.906 0.571749L113.925 7.99259M108.646 4.69994C108.645 4.69994 108.645 4.69993 108.645 4.69993L108.646 4.19994M108.646 4.69994H108.646V4.19994M108.646 4.69994H105.594C105.562 4.69994 105.546 4.70881 105.536 4.7157C105.524 4.72459 105.513 4.73948 105.506 4.75943C105.499 4.77937 105.499 4.79673 105.502 4.80835C105.504 4.8165 105.51 4.83133 105.534 4.85039C105.544 4.85792 105.554 4.8658 105.563 4.87403L107.723 6.81726M108.646 4.19994H105.594C105.032 4.19994 104.784 4.90193 105.228 5.24572L107.4 7.19989M107.723 6.81726C107.717 6.81262 107.711 6.80803 107.705 6.80349L107.4 7.19989M107.723 6.81726L107.735 6.8282L107.4 7.19989M107.723 6.81726C107.895 6.95527 108.02 7.14277 108.083 7.35467C108.144 7.56353 108.141 7.78586 108.075 7.9926M107.4 7.19989C107.498 7.27468 107.569 7.37837 107.603 7.49608C107.638 7.61379 107.635 7.73947 107.593 7.85508M107.593 7.85508L108.08 7.9699L108.075 7.9926M107.593 7.85508L106.8 11.2168L110.655 10.0162M107.593 7.85508L108.064 8.02272C108.068 8.01272 108.071 8.00268 108.075 7.9926M108.075 7.9926L107.287 11.3316C107.283 11.3499 107.277 11.3678 107.271 11.3854C107.261 11.4133 107.264 11.4272 107.267 11.4349C107.271 11.4466 107.281 11.4632 107.301 11.4779C107.321 11.4926 107.342 11.4991 107.359 11.4999C107.372 11.5004 107.39 11.4983 107.417 11.4794C107.424 11.4748 107.43 11.4703 107.437 11.466L110.379 9.59944M110.379 9.59944C110.375 9.602 110.371 9.60457 110.368 9.60718L110.655 10.0162M110.379 9.59944L110.387 9.59407L110.655 10.0162M110.379 9.59944C110.562 9.47423 110.778 9.40714 111 9.40714C111.222 9.40714 111.439 9.47423 111.621 9.59944M110.655 10.0162C110.756 9.94524 110.877 9.90714 111 9.90714C111.124 9.90714 111.244 9.94524 111.345 10.0162M111.621 9.59944L111.613 9.59407L111.345 10.0162M111.621 9.59944L114.563 11.466C114.57 11.4703 114.576 11.4747 114.583 11.4792C114.61 11.4984 114.629 11.5005 114.642 11.4999C114.659 11.4992 114.68 11.4927 114.699 11.4781C114.719 11.4635 114.729 11.447 114.733 11.4354C114.736 11.4277 114.739 11.4136 114.729 11.3853C114.723 11.3677 114.718 11.3498 114.713 11.3316L113.925 7.99259M111.621 9.59944C111.625 9.60199 111.629 9.60457 111.633 9.60718L111.345 10.0162M111.345 10.0162L113.925 7.99259M113.925 7.99259C113.929 8.00267 113.932 8.01272 113.936 8.02272L114.407 7.85508L113.92 7.9699L113.925 7.99259ZM113.925 7.99259C113.859 7.78586 113.856 7.56352 113.917 7.35467C113.98 7.14276 114.106 6.95527 114.278 6.81726M114.278 6.81726L114.265 6.8282L114.6 7.19989L114.295 6.80349C114.289 6.80802 114.283 6.81261 114.278 6.81726ZM114.278 6.81726L116.437 4.87403C116.446 4.86588 116.456 4.85806 116.465 4.85059C116.49 4.83154 116.496 4.81664 116.498 4.80831C116.501 4.79655 116.501 4.77915 116.494 4.75929C116.487 4.73943 116.476 4.72464 116.464 4.7158C116.455 4.70895 116.438 4.69994 116.405 4.69994H113.353C112.901 4.69994 112.492 4.42248 112.33 3.99839L112.327 3.98994L112.327 3.98992L111.087 0.554987M111.087 0.554987C111.088 0.555819 111.088 0.556668 111.088 0.557534L111.556 0.379794L111.085 0.549568L111.087 0.554987Z" stroke="#E7AA35" stroke-linecap="round" stroke-linejoin="round"/>
<path d="M125.906 0.571749L124.672 3.98992L124.669 4.00016L124.668 4.00011C124.589 4.2067 124.448 4.38423 124.265 4.50919C124.083 4.63397 123.867 4.70047 123.646 4.69994M125.906 0.571749L123.646 4.19994M125.906 0.571749C125.908 0.566893 125.91 0.561993 125.912 0.55705C125.921 0.532124 125.933 0.521555 125.943 0.51511C125.956 0.506866 125.976 0.5 126 0.5C126.024 0.5 126.044 0.506867 126.057 0.515204C126.067 0.521526 126.078 0.531736 126.087 0.554987M125.906 0.571749L128.925 7.99259M123.646 4.69994C123.645 4.69994 123.645 4.69993 123.645 4.69993L123.646 4.19994M123.646 4.69994H123.646V4.19994M123.646 4.69994H120.594C120.562 4.69994 120.546 4.70881 120.536 4.7157C120.524 4.72459 120.513 4.73948 120.506 4.75943C120.499 4.77937 120.499 4.79673 120.502 4.80835C120.504 4.8165 120.51 4.83133 120.534 4.85039C120.544 4.85792 120.554 4.8658 120.563 4.87403L122.723 6.81726M123.646 4.19994H120.594C120.032 4.19994 119.784 4.90193 120.228 5.24572L122.4 7.19989M122.723 6.81726C122.717 6.81262 122.711 6.80803 122.705 6.80349L122.4 7.19989M122.723 6.81726L122.735 6.8282L122.4 7.19989M122.723 6.81726C122.895 6.95527 123.02 7.14277 123.083 7.35467C123.144 7.56353 123.141 7.78586 123.075 7.9926M122.4 7.19989C122.498 7.27468 122.569 7.37837 122.603 7.49608C122.638 7.61379 122.635 7.73947 122.593 7.85508M122.593 7.85508L123.08 7.9699L123.075 7.9926M122.593 7.85508L121.8 11.2168L125.655 10.0162M122.593 7.85508L123.064 8.02272C123.068 8.01272 123.071 8.00268 123.075 7.9926M123.075 7.9926L122.287 11.3316C122.283 11.3499 122.277 11.3678 122.271 11.3854C122.261 11.4133 122.264 11.4272 122.267 11.4349C122.271 11.4466 122.281 11.4632 122.301 11.4779C122.321 11.4926 122.342 11.4991 122.359 11.4999C122.372 11.5004 122.39 11.4983 122.417 11.4794C122.424 11.4748 122.43 11.4703 122.437 11.466L125.379 9.59944M125.379 9.59944C125.375 9.602 125.371 9.60457 125.368 9.60718L125.655 10.0162M125.379 9.59944L125.387 9.59407L125.655 10.0162M125.379 9.59944C125.562 9.47423 125.778 9.40714 126 9.40714C126.222 9.40714 126.439 9.47423 126.621 9.59944M125.655 10.0162C125.756 9.94524 125.877 9.90714 126 9.90714C126.124 9.90714 126.244 9.94524 126.345 10.0162M126.621 9.59944L126.613 9.59407L126.345 10.0162M126.621 9.59944L129.563 11.466C129.57 11.4703 129.576 11.4747 129.583 11.4792C129.61 11.4984 129.629 11.5005 129.642 11.4999C129.659 11.4992 129.68 11.4927 129.699 11.4781C129.719 11.4635 129.729 11.447 129.733 11.4354C129.736 11.4277 129.739 11.4136 129.729 11.3853C129.723 11.3677 129.718 11.3498 129.713 11.3316L128.925 7.99259M126.621 9.59944C126.625 9.60199 126.629 9.60457 126.633 9.60718L126.345 10.0162M126.345 10.0162L128.925 7.99259M128.925 7.99259C128.929 8.00267 128.932 8.01272 128.936 8.02272L129.407 7.85508L128.92 7.9699L128.925 7.99259ZM128.925 7.99259C128.859 7.78586 128.856 7.56352 128.917 7.35467C128.98 7.14276 129.106 6.95527 129.278 6.81726M129.278 6.81726L129.265 6.8282L129.6 7.19989L129.295 6.80349C129.289 6.80802 129.283 6.81261 129.278 6.81726ZM129.278 6.81726L131.437 4.87403C131.446 4.86588 131.456 4.85806 131.465 4.85059C131.49 4.83154 131.496 4.81664 131.498 4.80831C131.501 4.79655 131.501 4.77915 131.494 4.75929C131.487 4.73943 131.476 4.72464 131.464 4.7158C131.455 4.70895 131.438 4.69994 131.405 4.69994H128.353C127.901 4.69994 127.492 4.42248 127.33 3.99839L127.327 3.98994L127.327 3.98992L126.087 0.554987M126.087 0.554987C126.088 0.555819 126.088 0.556668 126.088 0.557534L126.556 0.379794L126.085 0.549568L126.087 0.554987Z" stroke="#E7AA35" stroke-linecap="round" stroke-linejoin="round"/>
<path d="M140.906 0.571749L139.672 3.98992L139.669 4.00016L139.668 4.00011C139.589 4.2067 139.448 4.38423 139.265 4.50919C139.083 4.63397 138.867 4.70047 138.646 4.69994M140.906 0.571749L138.646 4.19994M140.906 0.571749C140.908 0.566893 140.91 0.561993 140.912 0.55705C140.921 0.532124 140.933 0.521555 140.943 0.51511C140.956 0.506866 140.976 0.5 141 0.5C141.024 0.5 141.044 0.506867 141.057 0.515204C141.067 0.521526 141.078 0.531736 141.087 0.554987M140.906 0.571749L143.925 7.99259M138.646 4.69994C138.645 4.69994 138.645 4.69993 138.645 4.69993L138.646 4.19994M138.646 4.69994H138.646V4.19994M138.646 4.69994H135.594C135.562 4.69994 135.546 4.70881 135.536 4.7157C135.524 4.72459 135.513 4.73948 135.506 4.75943C135.499 4.77937 135.499 4.79673 135.502 4.80835C135.504 4.8165 135.51 4.83133 135.534 4.85039C135.544 4.85792 135.554 4.8658 135.563 4.87403L137.723 6.81726M138.646 4.19994H135.594C135.032 4.19994 134.784 4.90193 135.228 5.24572L137.4 7.19989M137.723 6.81726C137.717 6.81262 137.711 6.80803 137.705 6.80349L137.4 7.19989M137.723 6.81726L137.735 6.8282L137.4 7.19989M137.723 6.81726C137.895 6.95527 138.02 7.14277 138.083 7.35467C138.144 7.56353 138.141 7.78586 138.075 7.9926M137.4 7.19989C137.498 7.27468 137.569 7.37837 137.603 7.49608C137.638 7.61379 137.635 7.73947 137.593 7.85508M137.593 7.85508L138.08 7.9699L138.075 7.9926M137.593 7.85508L136.8 11.2168L140.655 10.0162M137.593 7.85508L138.064 8.02272C138.068 8.01272 138.071 8.00268 138.075 7.9926M138.075 7.9926L137.287 11.3316C137.283 11.3499 137.277 11.3678 137.271 11.3854C137.261 11.4133 137.264 11.4272 137.267 11.4349C137.271 11.4466 137.281 11.4632 137.301 11.4779C137.321 11.4926 137.342 11.4991 137.359 11.4999C137.372 11.5004 137.39 11.4983 137.417 11.4794C137.424 11.4748 137.43 11.4703 137.437 11.466L140.379 9.59944M140.379 9.59944C140.375 9.602 140.371 9.60457 140.368 9.60718L140.655 10.0162M140.379 9.59944L140.387 9.59407L140.655 10.0162M140.379 9.59944C140.562 9.47423 140.778 9.40714 141 9.40714C141.222 9.40714 141.439 9.47423 141.621 9.59944M140.655 10.0162C140.756 9.94524 140.877 9.90714 141 9.90714C141.124 9.90714 141.244 9.94524 141.345 10.0162M141.621 9.59944L141.613 9.59407L141.345 10.0162M141.621 9.59944L144.563 11.466C144.57 11.4703 144.576 11.4747 144.583 11.4792C144.61 11.4984 144.629 11.5005 144.642 11.4999C144.659 11.4992 144.68 11.4927 144.699 11.4781C144.719 11.4635 144.729 11.447 144.733 11.4354C144.736 11.4277 144.739 11.4136 144.729 11.3853C144.723 11.3677 144.718 11.3498 144.713 11.3316L143.925 7.99259M141.621 9.59944C141.625 9.60199 141.629 9.60457 141.633 9.60718L141.345 10.0162M141.345 10.0162L143.925 7.99259M143.925 7.99259C143.929 8.00267 143.932 8.01272 143.936 8.02272L144.407 7.85508L143.92 7.9699L143.925 7.99259ZM143.925 7.99259C143.859 7.78586 143.856 7.56352 143.917 7.35467C143.98 7.14276 144.106 6.95527 144.278 6.81726M144.278 6.81726L144.265 6.8282L144.6 7.19989L144.295 6.80349C144.289 6.80802 144.283 6.81261 144.278 6.81726ZM144.278 6.81726L146.437 4.87403C146.446 4.86588 146.456 4.85806 146.465 4.85059C146.49 4.83154 146.496 4.81664 146.498 4.80831C146.501 4.79655 146.501 4.77915 146.494 4.75929C146.487 4.73943 146.476 4.72464 146.464 4.7158C146.455 4.70895 146.438 4.69994 146.405 4.69994H143.353C142.901 4.69994 142.492 4.42248 142.33 3.99839L142.327 3.98994L142.327 3.98992L141.087 0.554987M141.087 0.554987C141.088 0.555819 141.088 0.556668 141.088 0.557534L141.556 0.379794L141.085 0.549568L141.087 0.554987Z" stroke="#E7AA35" stroke-linecap="round" stroke-linejoin="round"/>
</svg>
