<svg width="22" height="22" viewBox="0 0 22 22" fill="none" xmlns="http://www.w3.org/2000/svg">
<path d="M10.074 1.633C10.394 0.789 11.605 0.789 11.926 1.633L13.996 7.367C14.141 7.747 14.51 8 14.922 8H20.009C20.949 8 21.359 9.17 20.62 9.743L17 13C16.8378 13.1247 16.7193 13.2975 16.6615 13.4937C16.6036 13.6898 16.6094 13.8993 16.678 14.092L18 19.695C18.322 20.595 17.28 21.368 16.492 20.814L11.575 17.694C11.4066 17.5757 11.2058 17.5122 11 17.5122C10.7942 17.5122 10.5934 17.5757 10.425 17.694L5.508 20.814C4.721 21.368 3.678 20.594 4 19.695L5.322 14.092C5.39058 13.8993 5.39636 13.6898 5.33851 13.4937C5.28066 13.2975 5.16216 13.1247 5 13L1.38 9.743C0.64 9.17 1.052 8 1.99 8H7.077C7.27729 8.00067 7.47307 7.9405 7.63842 7.82747C7.80377 7.71444 7.9309 7.55387 8.003 7.367L10.073 1.633H10.074Z" stroke="#E7AA35" stroke-linecap="round" stroke-linejoin="round"/>
</svg>
