<svg width="30" height="30" viewBox="0 0 30 30" fill="none" xmlns="http://www.w3.org/2000/svg">
<path d="M15 2C13.2273 2 11.8423 2.68353 10.8452 4.0506C9.84801 5.41766 9.34943 7.16518 9.34943 9.29316C9.33712 11.937 10.1496 14.0327 11.7869 15.5804C11.9962 15.7867 12.0701 16.0511 12.0085 16.3735L11.5838 17.3021C11.4484 17.6116 11.2483 17.8534 10.9837 18.0275C10.719 18.2016 10.1619 18.4499 9.3125 18.7723C9.27557 18.7852 8.49692 19.0496 6.97656 19.5655C5.4562 20.0814 4.64678 20.3651 4.5483 20.4167C3.5142 20.8681 2.83712 21.3388 2.51705 21.8289C2.17235 22.6414 2 24.6984 2 28H28C28 24.6984 27.8277 22.6414 27.483 21.8289C27.1629 21.3388 26.4858 20.8681 25.4517 20.4167C25.3532 20.3651 24.5438 20.0814 23.0234 19.5655C21.5031 19.0496 20.7244 18.7852 20.6875 18.7723C19.8381 18.4499 19.281 18.2016 19.0163 18.0275C18.7517 17.8534 18.5516 17.6116 18.4162 17.3021L17.9915 16.3735C17.9299 16.0511 18.0038 15.7867 18.2131 15.5804C19.8504 14.0327 20.6629 11.937 20.6506 9.29316C20.6506 7.16518 20.152 5.41766 19.1548 4.0506C18.1577 2.68353 16.7727 2 15 2Z" fill="white"/>
</svg>
