<svg width="26" height="25" viewBox="0 0 26 25" fill="none" xmlns="http://www.w3.org/2000/svg">
<path d="M13 0C11.2273 0 9.84233 0.657242 8.84517 1.97173C7.84801 3.28621 7.34943 4.96652 7.34943 7.01265C7.33712 9.55481 8.14962 11.5699 9.78693 13.058C9.99621 13.2564 10.0701 13.5107 10.0085 13.8207L9.58381 14.7135C9.44839 15.0112 9.24834 15.2437 8.98366 15.4111C8.71899 15.5785 8.16193 15.8172 7.3125 16.1272C7.27557 16.1396 6.49692 16.3938 4.97656 16.8899C3.4562 17.3859 2.64678 17.6587 2.5483 17.7083C1.5142 18.1424 0.837121 18.595 0.517045 19.0662C0.172348 19.8475 0 21.8254 0 25H26C26 21.8254 25.8277 19.8475 25.483 19.0662C25.1629 18.595 24.4858 18.1424 23.4517 17.7083C23.3532 17.6587 22.5438 17.3859 21.0234 16.8899C19.5031 16.3938 18.7244 16.1396 18.6875 16.1272C17.8381 15.8172 17.281 15.5785 17.0163 15.4111C16.7517 15.2437 16.5516 15.0112 16.4162 14.7135L15.9915 13.8207C15.9299 13.5107 16.0038 13.2564 16.2131 13.058C17.8504 11.5699 18.6629 9.55481 18.6506 7.01265C18.6506 4.96652 18.152 3.28621 17.1548 1.97173C16.1577 0.657242 14.7727 0 13 0Z" fill="white"/>
</svg>
